<?xml version="1.0" standalone="no"?>
<!DOCTYPE svg PUBLIC "-//W3C//DTD SVG 20010904//EN"
 "http://www.w3.org/TR/2001/REC-SVG-20010904/DTD/svg10.dtd">
<svg version="1.0" xmlns="http://www.w3.org/2000/svg"
 width="1805.000000pt" height="924.000000pt" viewBox="0 0 1805.000000 924.000000"
 preserveAspectRatio="xMidYMid meet">

<g transform="translate(0.000000,924.000000) scale(0.100000,-0.100000)"
fill="#000000" stroke="none">
<path d="M0 7010 l0 -2230 33 -43 c19 -24 39 -65 47 -91 24 -88 -3 -209 -59
-260 l-21 -19 0 -1621 1 -1621 85 -50 c214 -125 500 -381 663 -592 97 -127
203 -292 258 -404 l38 -78 6938 0 6937 -1 0 255 0 255 1520 0 1520 0 0 -255 0
-255 35 0 c21 0 35 5 35 13 0 8 4 7 10 -3 6 -10 10 1619 10 4608 l0 4622
-3914 0 c-3470 0 -3915 -2 -3920 -15 -7 -19 -21 -19 -40 0 -13 13 -592 15
-5095 15 l-5081 0 0 -2230z m12187 2158 c-3 -8 -6 -5 -6 6 -1 11 2 17 5 13 3
-3 4 -12 1 -19z m-3330 -211 c49 -110 48 -107 25 -107 -12 0 -23 9 -27 20 -9
28 -58 27 -77 -1 -7 -12 -21 -20 -30 -18 -14 3 -11 17 24 92 23 48 44 87 47
87 3 0 20 -33 38 -73z m-763 47 c20 -20 20 -44 0 -72 -14 -20 -14 -25 -2 -40
29 -33 30 -42 6 -42 -15 0 -30 10 -40 28 l-17 27 -1 -27 c0 -21 -5 -28 -20
-28 -18 0 -20 7 -20 85 l0 85 39 0 c23 0 46 -7 55 -16z m146 1 c0 -10 -10 -15
-30 -15 -23 0 -30 -4 -30 -20 0 -16 7 -20 30 -20 20 0 30 -5 30 -15 0 -10 -10
-15 -30 -15 -23 0 -30 -4 -30 -20 0 -16 7 -20 30 -20 20 0 30 -5 30 -15 0 -11
-12 -15 -50 -15 l-50 0 0 85 0 85 50 0 c38 0 50 -4 50 -15z m119 1 c16 -19 -1
-29 -34 -20 -36 9 -31 -10 10 -35 27 -16 35 -27 35 -49 0 -37 -17 -52 -56 -52
-41 0 -75 38 -48 53 12 7 19 5 26 -7 5 -9 16 -16 23 -16 22 0 18 38 -4 45 -10
3 -26 14 -36 25 -15 17 -16 24 -7 45 9 20 19 25 46 25 18 0 39 -6 45 -14z m73
-53 c3 -65 4 -68 28 -68 24 0 25 3 28 68 3 59 5 67 22 67 18 0 20 -7 20 -63 0
-84 -17 -109 -73 -105 -52 4 -67 29 -67 111 0 50 2 57 20 57 17 0 19 -8 22
-67z m168 -2 c0 -64 2 -70 22 -73 12 -2 23 -9 26 -15 2 -9 -10 -13 -42 -13
l-46 0 0 85 c0 78 2 85 20 85 18 0 20 -7 20 -69z m150 54 c0 -8 -9 -15 -20
-15 -18 0 -20 -7 -20 -70 0 -63 -2 -70 -20 -70 -18 0 -20 7 -20 69 0 60 -2 69
-20 74 -43 11 -19 27 40 27 47 0 60 -3 60 -15z m279 -9 c32 -34 32 -88 1 -121
-19 -20 -33 -25 -72 -25 l-48 0 0 85 0 85 48 0 c38 0 53 -5 71 -24z m196 1
c21 -17 27 -32 27 -62 0 -52 -36 -85 -93 -85 -53 0 -89 34 -89 85 0 77 95 114
155 62z m144 9 c16 -19 -1 -29 -34 -20 -36 9 -31 -10 10 -35 27 -16 35 -27 35
-49 0 -37 -17 -52 -56 -52 -41 0 -75 38 -48 53 12 7 19 5 26 -7 5 -9 16 -16
23 -16 22 0 18 38 -4 45 -10 3 -26 14 -36 25 -15 17 -16 24 -7 45 9 20 19 25
46 25 18 0 39 -6 45 -14z m8024 -143 c-7 -2 -19 -2 -25 0 -7 3 -2 5 12 5 14 0
19 -2 13 -5z m-61 -13 c-12 -5 -27 -20 -32 -32 -5 -13 -9 -17 -9 -9 -1 20 29
51 48 50 10 0 8 -4 -7 -9z m-35 -127 c-3 -10 -5 -2 -5 17 0 19 2 27 5 18 2
-10 2 -26 0 -35z m-10397 -233 c0 -5 -4 -10 -10 -10 -5 0 -10 5 -10 10 0 6 5
10 10 10 6 0 10 -4 10 -10z m798 -167 c5 -17 -26 -29 -40 -15 -6 6 -7 15 -3
22 9 14 37 9 43 -7z m322 -35 c0 -50 1 -52 16 -30 12 18 25 22 65 22 l49 0 0
-50 0 -50 -49 0 c-40 0 -53 4 -65 22 l-16 22 0 -22 c0 -20 -5 -22 -50 -22 -42
0 -52 4 -66 25 -15 23 -15 27 0 50 10 16 26 25 41 25 21 0 25 5 25 30 0 25 4
30 25 30 23 0 25 -3 25 -52z m490 22 c0 -25 4 -30 24 -30 14 0 32 -10 40 -22
l16 -22 0 22 c0 19 5 22 45 22 28 0 45 -4 45 -12 0 -9 3 -9 12 0 20 20 76 15
89 -9 l11 -21 14 21 c18 25 74 30 74 6 0 -8 -9 -15 -20 -15 -13 0 -20 -7 -20
-20 0 -13 7 -20 20 -20 11 0 20 -7 20 -15 0 -23 -57 -19 -72 5 -7 11 -17 20
-22 20 -5 0 -6 -3 -3 -7 13 -13 -16 -33 -49 -33 -25 0 -38 7 -50 25 -8 13 -13
29 -9 35 3 6 -3 10 -14 10 -17 0 -21 -6 -21 -35 0 -31 -3 -35 -25 -35 -19 0
-25 5 -25 22 l0 22 -16 -22 c-12 -18 -25 -22 -65 -22 -44 0 -49 2 -49 22 l0
22 -16 -22 c-20 -30 -88 -31 -104 -3 -5 11 -10 26 -10 35 0 46 86 64 114 24
15 -22 16 -20 16 30 0 49 2 52 25 52 21 0 25 -5 25 -30z m1030 -50 l0 -80 -48
0 c-54 0 -72 12 -72 50 0 34 17 50 52 50 24 0 28 4 28 30 0 23 4 30 20 30 18
0 20 -7 20 -80z m-2490 50 c12 -12 20 -33 20 -55 0 -46 -29 -75 -74 -75 -50 0
-67 9 -81 44 -14 34 -5 73 22 94 26 19 90 15 113 -8z m570 0 c12 -12 20 -33
20 -55 0 -50 -28 -75 -85 -75 l-45 0 0 75 0 75 45 0 c32 0 51 -6 65 -20z m694
12 c10 -16 -11 -34 -33 -27 -32 10 -25 -11 9 -25 23 -9 30 -19 30 -39 0 -35
-17 -51 -54 -51 -40 0 -58 12 -50 33 7 20 16 21 32 5 9 -9 15 -9 24 0 8 8 5
14 -15 21 -42 16 -55 62 -23 83 15 10 74 10 80 0z m1526 -7 c0 -8 -7 -15 -15
-15 -12 0 -15 -13 -15 -60 0 -57 -1 -60 -25 -60 -24 0 -25 3 -25 60 0 47 -3
60 -15 60 -8 0 -15 7 -15 15 0 12 13 15 55 15 42 0 55 -3 55 -15z m543 1 c3
-12 -30 -32 -39 -24 -11 12 5 40 21 36 9 -2 17 -7 18 -12z m-3203 -21 c0 -8 5
-15 10 -15 6 0 10 -7 10 -15 0 -8 -4 -15 -10 -15 -5 0 -10 -16 -10 -35 0 -28
-4 -35 -19 -35 -14 0 -19 10 -24 46 -2 25 -2 54 0 65 6 22 43 26 43 4z m3430
1 c0 -3 -4 -8 -10 -11 -5 -3 -10 -1 -10 4 0 6 5 11 10 11 6 0 10 -2 10 -4z
m-3306 -38 l16 -22 0 22 c0 17 6 22 25 22 22 0 25 -4 25 -35 0 -19 5 -35 10
-35 6 0 10 16 10 35 0 31 3 35 25 35 21 0 25 -5 25 -31 0 -51 -16 -69 -60 -69
-33 0 -42 5 -54 28 -14 24 -15 25 -16 6 0 -24 -18 -34 -61 -34 -38 0 -58 37
-41 75 16 34 74 36 96 3z m396 -28 c0 -47 -2 -50 -25 -50 -23 0 -25 3 -25 50
0 47 2 50 25 50 23 0 25 -3 25 -50z m130 0 l0 -50 -48 0 c-54 0 -72 12 -72 50
0 38 18 50 72 50 l48 0 0 -50z m1180 0 l0 -50 -48 0 c-54 0 -72 12 -72 50 0
38 18 50 72 50 l48 0 0 -50z m94 35 c-4 -8 -12 -15 -20 -15 -9 0 -14 -12 -14
-35 0 -31 -3 -35 -25 -35 -23 0 -25 3 -25 50 l0 50 45 0 c35 0 43 -3 39 -15z
m126 -7 l0 -22 16 22 c12 18 25 22 65 22 l49 0 0 -50 0 -50 -49 0 c-40 0 -53
4 -65 22 l-16 22 0 -27 c0 -16 -5 -37 -10 -48 -18 -33 -110 -22 -110 14 0 5
16 7 35 4 19 -3 35 -2 35 4 0 5 -11 9 -25 9 -15 0 -31 9 -41 25 -15 23 -15 27
0 50 14 21 24 25 66 25 45 0 50 -2 50 -22z m440 -28 l0 -50 -50 0 c-44 0 -52
3 -62 25 -8 19 -8 31 0 50 10 22 18 25 62 25 l50 0 0 -50z m261 27 c7 -15 7
-31 0 -50 -15 -38 -73 -39 -97 -2 -15 23 -15 27 0 50 23 34 82 36 97 2z m183
8 c-4 -8 -12 -15 -20 -15 -9 0 -14 -12 -14 -35 0 -31 -3 -35 -25 -35 -22 0
-25 4 -25 36 0 28 -3 35 -17 32 -12 -2 -19 -14 -21 -36 -2 -24 -8 -32 -23 -32
-16 0 -19 7 -19 50 l0 50 85 0 c71 0 83 -2 79 -15z m116 -35 l0 -50 -50 0
c-44 0 -52 3 -62 25 -8 19 -8 31 0 50 10 22 18 25 62 25 l50 0 0 -50z m170 31
c22 -43 1 -81 -45 -81 -54 0 -75 45 -42 88 15 20 75 15 87 -7z m65 -1 c0 -22
-39 -19 -43 3 -3 15 1 18 20 15 12 -2 23 -10 23 -18z m0 -60 c0 -8 -10 -16
-22 -18 -22 -3 -32 16 -16 32 12 11 38 2 38 -14z m6319 -35 c19 -19 10 -45
-15 -45 -25 0 -35 26 -19 45 15 18 15 18 34 0z m-12979 -205 c0 -16 -6 -26
-18 -28 -19 -4 -32 20 -23 44 9 25 41 13 41 -16z m12410 -132 l0 -52 58 -34
c62 -37 68 -52 41 -104 -24 -47 -12 -73 49 -102 108 -52 166 -42 132 24 -9 18
-14 34 -11 38 11 10 49 -34 71 -83 23 -54 71 -101 111 -111 22 -6 35 -24 17
-24 -25 0 -143 101 -143 122 0 4 -7 8 -15 8 -8 0 -15 -4 -15 -10 0 -31 -182
17 -224 60 l-21 21 23 40 c32 55 24 76 -44 123 -55 38 -56 40 -51 79 3 22 1
51 -4 66 -10 25 -9 25 8 8 13 -13 18 -33 18 -69z m1400 12 c0 -16 -6 -26 -18
-28 -19 -4 -32 20 -23 44 9 25 41 13 41 -16z m-1644 -56 c14 -32 19 -56 15
-79 -6 -31 -3 -36 36 -63 24 -16 68 -42 98 -57 94 -47 116 -68 145 -145 32
-84 47 -94 163 -108 61 -7 90 -16 105 -31 12 -11 44 -29 70 -41 l47 -21 -29
-57 c-16 -32 -52 -79 -80 -105 l-52 -48 -37 29 c-52 41 -88 58 -162 76 -102
26 -133 44 -188 106 -29 32 -76 72 -105 89 -108 62 -137 92 -188 198 l-47 98
26 48 c25 47 133 157 153 157 6 0 19 -21 30 -46z m-773 -190 c3 -22 -21 -39
-39 -28 -11 6 -12 38 -2 48 13 13 38 1 41 -20z m-7492 -40 c35 -17 74 -81 74
-122 0 -42 -28 -89 -109 -186 l-82 -96 96 0 c95 0 95 0 95 -25 l0 -25 -156 0
c-121 0 -154 3 -148 13 4 6 50 61 101 120 105 121 133 162 133 194 0 102 -133
127 -158 30 -7 -27 -14 -33 -40 -35 -29 -3 -32 -1 -32 23 0 39 27 83 63 105
39 24 116 26 163 4z m367 -5 c7 -12 -1 -30 -37 -80 l-47 -64 45 -5 c113 -14
167 -124 114 -230 -29 -56 -74 -80 -149 -80 -97 0 -159 63 -159 162 0 41 8 58
55 129 131 192 151 211 178 168z m617 -179 c0 -252 -11 -280 -113 -280 -28 0
-53 7 -67 18 -22 17 -22 18 -2 41 18 23 20 24 43 8 29 -21 34 -21 53 -1 13 13
16 46 16 210 l0 194 35 0 35 0 0 -190z m3350 146 c0 -32 -18 -43 -37 -23 -20
20 -10 47 17 47 15 0 20 -7 20 -24z m3757 -76 c72 -91 187 -205 266 -264 71
-52 197 -120 292 -157 l70 -28 -37 -15 c-37 -16 -39 -16 -91 13 -74 42 -130
61 -221 72 -95 12 -156 41 -248 118 -69 57 -87 88 -102 181 -4 28 4 17 38 -49
52 -97 80 -129 144 -164 45 -24 180 -67 212 -67 8 0 -22 25 -68 55 -107 72
-204 164 -274 262 -43 59 -56 85 -51 101 3 13 7 21 8 20 1 -2 29 -37 62 -78z
m-14626 50 c141 -26 281 -133 344 -264 171 -355 -117 -751 -507 -696 -262 37
-451 291 -411 551 13 82 65 196 117 255 46 54 126 106 201 132 94 33 164 39
256 22z m12789 -60 c0 -5 -4 -10 -10 -10 -5 0 -10 5 -10 10 0 6 5 10 10 10 6
0 10 -4 10 -10z m-890 -24 c0 -3 -4 -8 -10 -11 -5 -3 -10 -1 -10 4 0 6 5 11
10 11 6 0 10 -2 10 -4z m-4089 -16 c13 -7 19 -7 19 0 0 5 16 10 35 10 l35 0 0
-151 0 -152 -45 5 c-25 3 -48 2 -51 -3 -9 -15 -103 -10 -135 6 -47 25 -69 70
-69 141 0 68 25 118 70 141 30 15 114 17 141 3z m386 -14 c28 -24 28 -26 31
-150 l4 -126 -36 0 -36 0 0 109 c0 86 -3 113 -16 125 -21 22 -50 20 -74 -4
-17 -17 -20 -33 -20 -125 l0 -105 -35 0 -35 0 0 146 0 146 40 -3 c21 -2 42 0
46 4 4 4 29 7 55 7 36 0 55 -6 76 -24z m493 -11 c47 -24 70 -66 70 -125 0 -47
-4 -56 -39 -91 -34 -34 -44 -39 -86 -39 -85 0 -142 64 -132 147 10 93 107 149
187 108z m-8090 -100 c15 -18 6 -45 -15 -45 -18 0 -30 24 -21 45 7 19 20 19
36 0z m6545 -140 c0 -26 -4 -30 -32 -33 -25 -2 -33 1 -38 18 -9 28 12 52 44
48 22 -2 26 -8 26 -33z m-625 -190 c16 -20 6 -45 -19 -45 -23 0 -32 18 -19 43
11 21 22 22 38 2z m1079 -13 c12 -23 -1 -45 -25 -40 -23 4 -31 37 -12 49 19
13 26 11 37 -9z m-1629 -502 l0 -80 -48 0 c-54 0 -72 12 -72 50 0 34 17 50 52
50 24 0 28 4 28 30 0 23 4 30 20 30 18 0 20 -7 20 -80z m458 57 c2 -11 -3 -17
-17 -17 -23 0 -35 15 -26 31 10 15 39 6 43 -14z m2062 3 c0 -13 -7 -20 -20
-20 -13 0 -20 7 -20 20 0 13 7 20 20 20 13 0 20 -7 20 -20z m858 -3 c2 -11 -3
-17 -17 -17 -23 0 -35 15 -26 31 10 15 39 6 43 -14z m-3884 5 c10 -16 -11 -34
-33 -27 -32 10 -25 -11 9 -25 23 -9 30 -19 30 -39 0 -35 -17 -51 -54 -51 -40
0 -58 12 -50 33 7 20 16 21 32 5 9 -9 15 -9 24 0 8 8 5 14 -15 21 -33 13 -47
39 -36 69 7 18 16 22 48 22 22 0 42 -4 45 -8z m236 -23 c0 -17 28 -40 35 -29
9 14 78 13 93 -2 7 -7 12 -24 12 -38 0 -36 -17 -50 -60 -50 -42 0 -60 14 -60
47 0 13 -4 23 -10 23 -5 0 -10 -16 -10 -35 0 -28 -4 -35 -19 -35 -14 0 -19 10
-24 46 -2 25 -2 54 0 65 6 20 43 27 43 8z m2173 -8 c2 -11 2 -40 0 -65 -5 -39
-9 -46 -28 -46 -19 0 -23 7 -28 46 -7 62 1 84 28 84 14 0 25 -7 28 -19z
m-2295 -23 c7 -7 12 -24 12 -38 0 -34 -17 -50 -55 -50 -38 0 -55 16 -55 50 0
34 17 50 55 50 17 0 36 -5 43 -12z m518 -13 c15 -23 15 -27 0 -50 -13 -20 -25
-25 -56 -25 -33 0 -42 4 -52 25 -8 19 -8 31 0 50 10 21 19 25 52 25 31 0 43
-5 56 -25z m94 10 c0 -8 -5 -15 -12 -15 -6 0 -4 -6 6 -13 30 -22 12 -57 -29
-57 -38 0 -48 9 -35 30 5 9 5 19 -2 27 -16 19 8 43 43 43 19 0 29 -5 29 -15z
m119 -2 c9 -17 10 -17 16 0 4 9 17 17 30 17 l24 0 -22 -50 c-29 -65 -49 -65
-82 0 l-25 50 24 0 c14 0 29 -8 35 -17z m180 0 c9 -17 10 -17 16 0 4 9 18 17
31 17 29 0 29 1 2 -55 -29 -59 -50 -59 -82 3 l-25 47 -1 -47 c0 -41 -3 -48
-20 -48 -17 0 -20 7 -20 50 l0 50 45 0 c31 0 47 -5 54 -17z m169 5 c7 -7 12
-24 12 -38 0 -34 -17 -50 -55 -50 -38 0 -55 16 -55 50 0 34 17 50 55 50 17 0
36 -5 43 -12z m102 -3 c0 -8 -5 -15 -12 -15 -6 0 -4 -6 6 -13 30 -22 12 -57
-29 -57 -38 0 -48 9 -35 30 5 9 5 19 -2 27 -16 19 8 43 43 43 19 0 29 -5 29
-15z m100 7 c0 -4 -4 -12 -9 -17 -6 -6 -4 -15 5 -23 12 -11 14 -10 14 6 0 27
20 42 55 42 38 0 55 -16 55 -50 0 -14 -5 -31 -12 -38 -17 -17 -73 -15 -89 4
-11 14 -13 14 -21 0 -5 -10 -23 -16 -43 -16 -34 0 -54 14 -35 25 5 3 7 17 4
30 -3 13 -3 29 1 34 7 13 75 15 75 3z m298 -44 c3 -43 1 -48 -17 -48 -17 0
-21 6 -21 35 0 19 -4 35 -10 35 -5 0 -10 -16 -10 -35 0 -28 -4 -35 -20 -35
-15 0 -20 7 -20 29 0 17 -4 33 -10 36 -6 4 -10 -8 -10 -29 0 -32 -3 -36 -25
-36 -23 0 -25 3 -25 50 l0 51 83 -3 82 -3 3 -47z m159 35 c2 -6 -6 -13 -19
-15 -13 -2 -23 -10 -23 -18 0 -8 10 -16 23 -18 33 -5 21 -26 -16 -30 -24 -2
-34 2 -48 22 -15 24 -15 28 0 52 14 20 24 24 48 22 17 -2 33 -8 35 -15z m117
-5 l16 -22 0 22 c0 22 3 23 83 20 l82 -3 3 -47 c3 -43 1 -48 -17 -48 -17 0
-21 6 -21 36 0 21 -4 33 -10 29 -5 -3 -10 -19 -10 -36 0 -22 -5 -29 -20 -29
-16 0 -20 7 -20 35 0 19 -4 35 -10 35 -5 0 -10 -16 -10 -35 0 -31 -3 -35 -25
-35 -19 0 -25 5 -25 22 l0 22 -16 -22 c-23 -33 -90 -31 -106 3 -8 19 -8 31 0
50 16 34 83 36 106 3z m308 5 c22 -20 23 -41 1 -65 -25 -27 -79 -24 -99 7 -15
23 -15 27 0 50 20 30 69 34 98 8z m188 -18 c0 -19 5 -35 10 -35 6 0 10 16 10
35 0 31 3 35 25 35 22 0 25 -4 25 -38 0 -48 -14 -62 -61 -62 -41 0 -49 11 -49
66 0 27 4 34 20 34 16 0 20 -7 20 -35z m290 16 c-15 -30 5 -35 24 -6 21 32 80
35 96 6 11 -21 9 -48 -3 -68 -13 -21 -74 -16 -90 7 l-14 21 -6 -21 c-5 -18
-12 -21 -44 -18 -28 2 -37 7 -34 18 2 8 3 26 2 39 -2 34 6 41 45 41 31 0 34
-2 24 -19z m220 4 c0 -8 -6 -15 -14 -15 -15 0 -26 -21 -26 -51 0 -12 -7 -19
-20 -19 -17 0 -20 7 -20 50 l0 50 40 0 c29 0 40 -4 40 -15z m50 -35 c0 -43 -3
-50 -20 -50 -17 0 -20 7 -20 50 0 43 3 50 20 50 17 0 20 -7 20 -50z m140 0 l0
-50 -47 0 c-71 0 -104 40 -66 82 11 13 30 18 65 18 l48 0 0 -50z m168 38 c7
-7 12 -29 12 -50 0 -34 -3 -38 -25 -38 -22 0 -25 5 -27 38 l-1 37 -4 -37 c-4
-33 -8 -38 -29 -38 -21 0 -24 5 -24 36 0 21 -4 33 -10 29 -5 -3 -10 -19 -10
-36 0 -22 -5 -29 -20 -29 -17 0 -20 7 -20 50 l0 50 73 0 c43 0 78 -5 85 -12z
m188 -5 c13 -17 13 -17 14 0 0 14 9 17 45 17 28 0 45 -4 45 -12 0 -9 3 -9 12
0 18 18 75 15 87 -5 9 -17 10 -17 28 0 27 24 73 23 73 -2 0 -14 -5 -18 -20
-14 -16 4 -20 0 -20 -17 0 -17 4 -21 20 -17 15 4 20 0 20 -14 0 -27 -47 -25
-79 4 -14 12 -23 18 -19 13 13 -16 -13 -36 -47 -36 -36 0 -71 31 -62 55 5 10
0 15 -13 15 -16 0 -20 -7 -20 -35 0 -31 -3 -35 -25 -35 -17 0 -25 6 -25 17 0
15 -1 15 -18 0 -10 -10 -28 -17 -40 -17 -17 0 -22 -6 -22 -25 0 -20 -5 -25
-25 -25 -24 0 -25 2 -25 75 l0 75 51 0 c38 0 55 -5 65 -17z m364 -33 c0 -43
-3 -50 -20 -50 -17 0 -20 7 -20 50 0 43 3 50 20 50 17 0 20 -7 20 -50z m92 33
c-6 -11 -6 -23 1 -34 19 -30 1 -51 -40 -47 -28 2 -37 7 -34 18 2 8 3 26 2 39
-2 34 6 41 45 41 30 0 34 -2 26 -17z m138 -33 l0 -50 -48 0 c-54 0 -72 12 -72
50 0 38 18 50 72 50 l48 0 0 -50z m90 35 c0 -8 -5 -15 -12 -15 -6 0 -4 -6 6
-13 30 -22 12 -57 -29 -57 -38 0 -48 9 -35 30 5 9 5 19 -2 27 -16 19 8 43 43
43 19 0 29 -5 29 -15z m1350 -15 c0 -5 -4 -10 -10 -10 -5 0 -10 5 -10 10 0 6
5 10 10 10 6 0 10 -4 10 -10z m-2965 -70 c-9 -16 -22 -30 -30 -30 -18 0 -18 1
-5 34 6 16 17 26 30 26 20 0 20 -1 5 -30z m-7495 -374 c0 -3 -4 -8 -10 -11 -5
-3 -10 -1 -10 4 0 6 5 11 10 11 6 0 10 -2 10 -4z m5425 -26 c0 -16 -6 -26 -18
-28 -19 -4 -32 20 -23 44 9 25 41 13 41 -16z m5964 -154 c15 -18 3 -46 -20
-46 -25 0 -35 26 -19 45 15 19 24 19 39 1z m-5620 -71 c61 -31 79 -139 32
-189 l-21 -23 20 -18 c53 -48 45 -151 -15 -204 -31 -27 -43 -31 -93 -31 -70 0
-117 26 -138 75 -20 49 -18 55 21 55 25 0 35 -4 35 -15 0 -25 47 -65 75 -65
37 0 85 50 85 88 0 39 -32 78 -70 85 -23 5 -30 12 -30 31 0 18 7 25 29 29 40
8 61 33 61 73 0 85 -113 101 -134 19 -5 -20 -13 -25 -36 -25 -24 0 -30 4 -30
20 0 29 26 76 52 94 29 20 120 21 157 1z m-329 -225 l0 -230 -30 0 -30 0 0
205 0 205 -40 0 c-39 0 -39 1 -28 25 10 23 17 25 70 25 l58 0 0 -230z m1010
225 c0 -14 -304 -465 -314 -465 -7 0 -20 6 -30 13 -17 12 -8 27 104 196 67
101 124 190 127 197 4 11 -17 14 -116 14 l-121 0 0 25 0 25 175 0 c96 0 175
-2 175 -5z m460 -20 c0 -24 -3 -25 -55 -25 l-55 0 0 -205 0 -205 -30 0 -30 0
0 205 0 205 -60 0 c-57 0 -60 1 -60 25 l0 25 145 0 145 0 0 -25z m-3930 -101
c0 -8 -5 -12 -10 -9 -6 4 -8 11 -5 16 9 14 15 11 15 -7z m4135 -56 c32 -25 55
-74 55 -118 l0 -30 -110 0 c-124 0 -134 -7 -81 -61 38 -38 74 -38 112 1 26 26
33 28 54 18 29 -13 30 -16 9 -46 -24 -34 -68 -52 -128 -52 -48 0 -60 4 -91 31
-59 52 -69 151 -21 222 28 42 60 57 122 57 38 0 59 -6 79 -22z m290 12 c11
-18 -19 -51 -41 -46 -11 3 -29 -1 -40 -8 -16 -12 -19 -30 -22 -125 l-4 -111
-29 0 -29 0 0 144 0 145 43 4 c85 7 116 7 122 -3z m210 0 c3 -5 0 -18 -7 -30
-10 -15 -20 -19 -39 -15 -43 10 -53 -15 -57 -136 l-4 -109 -29 0 -29 0 0 144
0 145 43 4 c85 7 116 7 122 -3z m223 -6 c20 -14 22 -14 22 0 0 11 10 16 30 16
l30 0 0 -150 0 -150 -30 0 c-16 0 -30 5 -30 11 0 5 -10 3 -22 -5 -32 -23 -113
-21 -153 4 -37 23 -65 81 -65 137 0 48 32 114 67 135 36 22 121 23 151 2z
m322 -6 c26 -28 25 -32 -6 -47 -22 -10 -28 -9 -39 5 -15 21 -45 12 -45 -14 0
-12 14 -25 40 -37 93 -42 117 -109 61 -166 -25 -24 -37 -29 -78 -29 -52 1 -70
10 -97 51 -17 27 -17 27 13 37 26 9 31 8 46 -14 18 -28 51 -29 68 -3 16 25 2
45 -52 74 -60 33 -80 70 -61 115 16 39 35 49 87 50 31 0 48 -6 63 -22z m480
-23 c46 -24 70 -62 70 -112 0 -84 -51 -133 -138 -133 -77 0 -132 56 -132 134
0 38 45 101 84 116 33 14 85 11 116 -5z m-2625 -230 c0 -28 -3 -30 -35 -30
-26 0 -36 5 -38 18 -7 34 6 48 40 45 29 -3 33 -6 33 -33z m2755 -91 c0 -8 -5
-12 -10 -9 -6 4 -8 11 -5 16 9 14 15 11 15 -7z m-6740 -144 c0 -5 -4 -10 -10
-10 -5 0 -10 5 -10 10 0 6 5 10 10 10 6 0 10 -4 10 -10z m11735 -80 c0 -16 -6
-26 -18 -28 -19 -4 -32 20 -23 44 9 25 41 13 41 -16z m1985 -150 c61 -30 97
-66 127 -124 95 -187 -40 -406 -251 -406 -115 0 -203 52 -253 149 -103 197 41
419 262 408 47 -3 85 -11 115 -27z m-12342 -186 c2 -13 -4 -24 -13 -28 -24 -9
-35 1 -35 30 0 21 4 25 23 22 13 -2 23 -11 25 -24z m1199 -16 c-3 -8 -6 -5 -6
6 -1 11 2 17 5 13 3 -3 4 -12 1 -19z m-5199 -52 c-2 -13 -10 -21 -23 -21 -23
0 -33 34 -14 45 20 13 40 -1 37 -24z m4894 -22 c25 -13 29 -20 25 -42 -5 -27
15 -52 83 -103 40 -29 57 -28 70 7 6 14 18 24 29 24 29 0 71 -21 71 -36 0 -7
5 -16 12 -20 8 -5 9 -2 5 9 -5 14 -2 16 18 11 20 -5 24 -3 19 9 -3 9 -13 18
-22 20 -13 3 -11 5 4 6 15 1 32 -14 58 -52 37 -53 45 -74 24 -61 -8 5 -9 2 -5
-10 4 -10 7 -31 7 -47 0 -18 5 -28 13 -27 7 2 11 -6 9 -19 -2 -12 3 -35 11
-50 11 -20 13 -42 7 -76 -9 -59 -13 -63 -30 -32 -15 28 -36 34 -25 8 36 -94
38 -105 19 -160 -10 -29 -23 -52 -29 -49 -11 4 -15 -15 -15 -66 0 -15 -5 -30
-11 -34 -8 -4 -9 1 -4 17 7 21 6 22 -9 10 -9 -7 -16 -22 -16 -33 0 -18 -25
-36 -36 -25 -3 3 3 21 14 41 11 19 22 33 25 30 3 -3 8 -1 12 5 3 6 -1 11 -9
11 -20 0 -61 -60 -58 -85 2 -12 -6 -29 -17 -39 -18 -17 -19 -16 -20 38 0 31 4
56 8 56 5 0 5 17 -1 38 -5 20 -10 44 -10 52 -2 29 -31 40 -90 34 -49 -6 -61
-3 -89 17 -18 13 -34 19 -36 13 -2 -5 -11 -25 -21 -44 -15 -32 -21 -35 -62
-37 -25 -1 -54 -4 -65 -7 -11 -2 -26 -5 -34 -5 -11 -1 -10 -6 4 -21 17 -19 17
-21 2 -38 -10 -10 -17 -28 -17 -40 0 -24 -21 -48 -50 -57 -11 -3 -20 -14 -20
-23 0 -9 -21 -36 -46 -59 -40 -38 -45 -46 -39 -73 4 -17 2 -30 -3 -30 -12 0
-62 94 -62 117 0 12 -20 28 -57 46 l-56 28 -22 -21 c-12 -11 -24 -20 -28 -20
-4 0 -19 18 -33 40 -28 42 -45 49 -24 10 9 -18 9 -21 0 -15 -17 10 -55 99 -70
164 -18 74 -7 241 20 334 38 124 97 217 138 217 13 0 42 15 65 34 60 48 162
98 232 112 89 18 200 17 237 -2z m1369 0 c24 -12 30 -21 28 -42 -3 -29 20 -58
81 -103 40 -29 57 -28 70 7 6 14 18 24 29 24 29 0 71 -21 71 -36 0 -7 5 -16
12 -20 8 -5 9 -2 5 9 -5 14 -2 16 18 11 20 -5 24 -3 19 9 -3 9 -13 18 -22 20
-13 3 -11 5 4 6 15 1 32 -14 58 -52 34 -50 45 -74 28 -63 -4 2 -6 -12 -4 -32
3 -20 10 -40 17 -44 7 -5 11 -16 8 -27 -3 -10 2 -32 10 -47 11 -21 13 -42 7
-77 -9 -59 -13 -63 -30 -32 -15 28 -36 34 -25 8 36 -94 38 -105 19 -160 -11
-31 -23 -52 -30 -49 -6 2 -11 -1 -11 -7 1 -53 -5 -97 -14 -97 -6 0 -8 9 -3 22
6 20 5 21 -10 9 -9 -7 -16 -22 -16 -33 0 -18 -25 -36 -36 -25 -3 3 3 21 14 41
11 19 22 33 25 30 3 -3 8 -1 12 5 3 6 -1 11 -9 11 -20 0 -61 -60 -58 -85 2
-12 -6 -29 -17 -39 -18 -17 -19 -16 -20 38 0 31 4 56 8 56 5 0 5 17 -1 38 -5
20 -10 44 -10 52 -2 29 -31 40 -90 34 -49 -6 -61 -3 -89 17 -18 13 -34 19 -36
13 -2 -5 -11 -25 -21 -44 -15 -31 -22 -35 -57 -37 -22 -1 -51 -4 -65 -7 -14
-2 -31 -5 -39 -5 -11 -1 -10 -6 4 -21 17 -19 17 -21 2 -38 -10 -10 -17 -28
-17 -40 0 -24 -21 -48 -50 -57 -11 -3 -20 -14 -20 -23 0 -9 -21 -36 -46 -59
-40 -38 -45 -46 -39 -73 4 -17 2 -30 -3 -30 -12 0 -62 94 -62 117 0 12 -20 28
-57 46 l-57 27 -23 -21 c-19 -19 -25 -20 -38 -9 -9 8 -23 27 -31 43 -9 16 -18
27 -21 24 -2 -3 1 -15 7 -27 9 -16 9 -20 1 -15 -20 12 -60 105 -72 167 -24
119 9 350 63 451 24 46 74 97 94 97 12 0 41 15 65 33 79 59 162 100 229 113
96 18 205 17 241 -2z m1380 0 c24 -12 30 -21 28 -42 -4 -30 9 -46 76 -98 44
-34 62 -34 75 2 6 14 18 24 29 24 29 0 71 -21 71 -36 0 -7 5 -16 12 -20 8 -5
9 -2 5 10 -6 15 -3 17 18 12 19 -5 23 -3 19 8 -3 8 -13 17 -22 19 -13 3 -11 5
4 6 15 1 32 -14 58 -52 34 -50 45 -74 28 -63 -4 2 -6 -12 -4 -32 3 -20 10 -40
17 -44 7 -5 11 -16 8 -27 -3 -10 2 -32 10 -47 11 -21 13 -42 7 -77 -9 -59 -13
-63 -30 -32 -15 28 -36 34 -25 8 36 -94 38 -105 19 -160 -11 -31 -23 -52 -30
-49 -6 2 -11 -1 -11 -7 1 -53 -5 -97 -14 -97 -6 0 -8 9 -3 22 6 20 5 21 -10 9
-9 -7 -16 -22 -16 -33 0 -18 -25 -36 -36 -25 -3 3 3 21 14 41 11 19 22 33 25
30 3 -3 8 -1 12 5 3 6 -1 11 -9 11 -20 0 -61 -60 -58 -85 2 -12 -6 -29 -17
-39 -18 -17 -19 -16 -20 38 0 31 4 56 8 56 5 0 5 17 -1 38 -5 20 -10 44 -10
52 -2 29 -31 40 -90 34 -48 -5 -61 -3 -86 15 -17 11 -32 21 -35 21 -3 0 -11
-15 -17 -34 -15 -47 -26 -54 -90 -57 -30 -1 -63 -5 -73 -7 -17 -4 -17 -6 -1
-23 16 -18 16 -20 1 -37 -10 -10 -17 -28 -17 -40 0 -24 -21 -48 -50 -57 -11
-3 -20 -14 -20 -23 0 -9 -21 -36 -46 -59 -40 -38 -45 -46 -39 -73 4 -17 2 -30
-3 -30 -12 0 -62 94 -62 117 0 12 -20 28 -57 46 l-57 27 -21 -20 c-12 -11 -24
-20 -28 -20 -4 0 -21 19 -38 43 -18 23 -29 34 -25 25 3 -10 9 -26 12 -35 4
-10 -5 -2 -19 17 -50 71 -62 123 -61 275 0 124 3 149 27 223 32 97 40 114 79
165 19 24 38 37 53 37 13 0 37 11 53 25 60 51 176 109 242 121 97 18 205 17
241 -2z m1370 0 c24 -12 30 -21 28 -42 -3 -29 20 -58 81 -103 40 -29 57 -28
70 7 6 14 18 24 29 24 29 0 71 -21 71 -36 0 -7 5 -16 12 -20 8 -5 9 -2 5 9 -5
14 -2 16 18 11 20 -5 24 -3 19 9 -3 9 -13 18 -22 20 -13 3 -11 5 4 6 15 1 32
-14 58 -52 37 -53 45 -74 24 -61 -8 5 -9 2 -5 -10 4 -10 7 -31 7 -47 0 -18 5
-28 13 -27 7 2 11 -6 9 -19 -2 -12 3 -35 11 -50 11 -20 13 -42 7 -76 -9 -59
-13 -63 -30 -32 -15 28 -36 34 -25 8 36 -94 38 -105 19 -160 -10 -29 -23 -52
-29 -49 -11 4 -15 -15 -15 -66 0 -15 -5 -30 -11 -34 -8 -4 -9 1 -4 17 7 21 6
22 -9 10 -9 -7 -16 -22 -16 -33 0 -18 -25 -36 -36 -25 -3 3 3 21 14 41 11 19
22 33 25 30 3 -3 8 -1 12 5 3 6 -1 11 -9 11 -20 0 -61 -60 -58 -85 2 -12 -6
-29 -17 -39 -18 -17 -19 -16 -20 38 0 31 4 56 8 56 5 0 5 17 -1 38 -5 20 -10
44 -10 52 -2 29 -31 40 -90 34 -49 -6 -61 -3 -89 17 -18 13 -34 19 -36 13 -2
-5 -11 -25 -21 -44 -15 -31 -22 -35 -57 -37 -22 -1 -51 -4 -65 -7 -14 -2 -31
-5 -39 -5 -11 -1 -10 -6 4 -21 17 -19 17 -21 2 -38 -10 -10 -17 -28 -17 -40 0
-24 -21 -48 -50 -57 -11 -3 -20 -14 -20 -23 0 -9 -21 -36 -46 -59 -40 -38 -45
-46 -39 -73 4 -17 2 -30 -3 -30 -12 0 -62 94 -62 117 0 12 -20 28 -57 46 l-57
27 -21 -20 c-12 -11 -24 -20 -28 -20 -4 0 -21 19 -38 43 -18 23 -29 34 -25 25
3 -10 9 -26 12 -35 4 -10 -5 -2 -19 17 -50 71 -62 123 -61 275 0 124 3 149 27
223 32 97 40 114 79 165 19 23 38 37 52 37 13 0 43 15 67 33 79 59 162 100
229 113 96 18 205 17 241 -2z m1381 -1 c23 -14 28 -23 25 -42 -5 -26 16 -53
83 -102 40 -29 57 -28 70 7 6 14 18 24 29 24 29 0 71 -21 71 -36 0 -7 5 -16
12 -20 8 -5 9 -2 5 9 -5 14 -2 16 18 11 20 -5 24 -3 19 9 -3 9 -13 18 -22 20
-13 3 -11 5 4 6 21 1 62 -45 50 -56 -3 -3 4 -23 14 -44 11 -21 20 -52 20 -69
0 -19 5 -29 13 -28 7 2 11 -6 9 -19 -2 -12 3 -35 11 -50 11 -20 13 -42 7 -76
-9 -59 -13 -63 -30 -32 -15 28 -36 34 -25 8 36 -94 38 -105 19 -160 -10 -29
-23 -52 -29 -49 -11 4 -15 -15 -16 -66 0 -15 -4 -30 -8 -33 -5 -3 -7 5 -3 17
5 21 4 22 -11 9 -9 -7 -17 -22 -17 -33 0 -18 -25 -36 -36 -25 -3 3 3 21 14 41
11 19 22 33 25 30 3 -3 8 -1 12 5 3 6 -1 11 -9 11 -20 0 -61 -60 -58 -85 2
-12 -6 -29 -17 -39 -18 -17 -19 -16 -20 38 0 31 4 56 8 56 5 0 5 17 -1 38 -5
20 -10 44 -10 52 -2 29 -31 40 -90 34 -49 -6 -61 -3 -89 17 -18 13 -34 19 -36
13 -2 -5 -11 -25 -21 -44 -15 -32 -21 -35 -62 -37 -25 -1 -54 -4 -65 -7 -11
-2 -26 -5 -34 -5 -11 -1 -10 -6 4 -21 17 -19 17 -21 2 -38 -10 -10 -17 -28
-17 -40 0 -24 -21 -48 -50 -57 -11 -3 -20 -14 -20 -23 0 -9 -21 -36 -46 -59
-40 -38 -45 -46 -39 -73 4 -17 2 -30 -3 -30 -12 0 -62 94 -62 117 0 12 -20 28
-57 46 l-57 27 -21 -20 c-12 -11 -24 -20 -28 -20 -4 0 -19 18 -33 40 -28 42
-45 49 -24 10 9 -16 9 -20 1 -15 -20 12 -60 105 -72 167 -23 116 9 351 62 450
25 47 74 98 95 98 12 0 41 15 65 33 70 53 166 100 232 113 96 19 203 17 239
-3z m408 -227 c0 -12 -14 5 -31 39 -8 16 -6 15 10 -4 12 -13 21 -28 21 -35z
m4295 -6 c0 -29 -32 -41 -41 -16 -9 24 4 48 23 44 12 -2 18 -12 18 -28z
m-7007 -85 c-3 -3 -9 2 -12 12 -6 14 -5 15 5 6 7 -7 10 -15 7 -18z m2995 -89
c8 -21 -17 -50 -37 -43 -16 6 -22 38 -9 50 11 12 41 7 46 -7z m-5723 -136 c0
-5 -5 -10 -11 -10 -5 0 -7 5 -4 10 3 6 8 10 11 10 2 0 4 -4 4 -10z m1370 0 c0
-5 -5 -10 -11 -10 -5 0 -7 5 -4 10 3 6 8 10 11 10 2 0 4 -4 4 -10z m1380 0 c0
-5 -5 -10 -11 -10 -5 0 -7 5 -4 10 3 6 8 10 11 10 2 0 4 -4 4 -10z m1370 0 c0
-5 -5 -10 -11 -10 -5 0 -7 5 -4 10 3 6 8 10 11 10 2 0 4 -4 4 -10z m1380 0 c0
-5 -5 -10 -11 -10 -5 0 -7 5 -4 10 3 6 8 10 11 10 2 0 4 -4 4 -10z m-2595
-100 c11 -17 -6 -50 -25 -50 -19 0 -36 33 -25 50 3 5 15 10 25 10 10 0 22 -5
25 -10z m-6565 -170 c0 -5 -4 -10 -10 -10 -5 0 -10 5 -10 10 0 6 5 10 10 10 6
0 10 -4 10 -10z m6399 -264 c15 -18 3 -46 -20 -46 -22 0 -34 22 -25 45 7 19
30 19 45 1z m-3019 -51 c-59 -34 -181 -65 -258 -65 -70 0 -75 1 -52 13 41 22
70 28 154 34 44 3 98 11 120 18 55 17 66 17 36 0z m1349 -10 c-66 -34 -156
-55 -240 -55 -67 0 -72 1 -49 13 41 22 70 28 154 34 44 3 98 11 120 18 62 20
66 17 15 -10z m1380 0 c-66 -34 -156 -55 -240 -55 -67 0 -72 1 -49 13 41 22
70 28 154 34 44 3 98 11 120 18 62 20 66 17 15 -10z m1370 0 c-66 -34 -156
-55 -240 -55 -67 0 -72 1 -49 13 41 22 70 28 154 34 44 3 98 11 120 18 62 20
66 17 15 -10z m1396 9 c-40 -30 -173 -64 -253 -64 -70 0 -75 1 -52 13 41 22
70 28 154 34 44 3 98 11 120 18 54 17 54 17 31 -1z m-5900 -25 c13 -20 -10
-29 -50 -18 -60 16 -62 26 -6 28 27 1 53 -4 56 -10z m1374 -3 c17 -20 -9 -27
-56 -14 -58 15 -59 25 -5 27 32 1 53 -4 61 -13z m1380 0 c17 -20 -9 -27 -56
-14 -58 15 -59 25 -5 27 32 1 53 -4 61 -13z m1370 0 c17 -20 -9 -27 -56 -14
-58 15 -59 25 -5 27 32 1 53 -4 61 -13z m1376 3 c13 -20 -10 -29 -50 -18 -60
16 -62 26 -6 28 27 1 53 -4 56 -10z m1064 -163 c15 -18 3 -46 -19 -46 -20 0
-32 23 -24 45 8 19 28 19 43 1z m528 -108 c-3 -8 -6 -5 -6 6 -1 11 2 17 5 13
3 -3 4 -12 1 -19z m3169 -83 c8 -20 -13 -45 -32 -38 -8 3 -14 16 -14 29 0 17
6 24 20 24 11 0 23 -7 26 -15z m1859 -10 c0 -13 -8 -21 -22 -23 -19 -3 -23 1
-23 23 0 22 4 26 23 23 14 -2 22 -10 22 -23z m-11903 -92 c23 -14 28 -23 25
-43 -4 -20 6 -35 54 -80 l60 -56 -43 -21 c-35 -17 -50 -34 -77 -87 l-34 -65
18 -60 18 -60 26 20 c56 43 68 49 124 55 54 6 57 6 57 -15 0 -22 2 -22 80 -26
57 -3 80 3 80 21 0 8 -10 14 -26 14 -37 0 -25 24 16 30 30 4 32 6 17 19 -10 7
-17 19 -17 26 0 8 -9 10 -25 7 -16 -3 -25 -11 -25 -23 0 -10 -8 -22 -17 -28
-14 -7 -24 -3 -46 22 -25 28 -28 29 -24 10 5 -21 4 -21 -18 -7 -28 18 -74 4
-82 -26 -5 -20 -37 -27 -59 -12 -6 4 -11 30 -11 59 -1 46 1 50 14 37 14 -13
18 -13 37 1 11 9 33 23 48 33 33 20 37 42 8 42 -31 0 -34 23 -8 63 27 42 40
44 99 17 24 -11 49 -20 56 -20 18 0 4 28 -15 33 -13 4 -12 5 4 6 15 1 32 -15
58 -54 39 -59 48 -85 15 -45 l-20 25 15 -32 c9 -18 16 -46 16 -63 0 -18 4 -29
10 -25 6 3 10 -4 10 -18 0 -14 6 -40 14 -58 7 -19 12 -50 9 -69 -8 -64 -12
-67 -39 -35 -14 17 -24 23 -21 15 2 -8 13 -41 22 -72 14 -44 16 -63 8 -80 -6
-13 -16 -36 -22 -52 -10 -24 -14 -27 -22 -15 -8 10 -9 9 -4 -8 3 -12 1 -24 -4
-28 -6 -3 -8 -19 -4 -35 3 -19 1 -30 -5 -30 -7 0 -9 8 -5 18 6 15 5 15 -10 3
-9 -7 -17 -19 -17 -26 0 -15 -28 -40 -36 -32 -4 3 3 22 14 41 12 20 18 38 13
40 -11 7 -46 -56 -43 -80 2 -11 -6 -28 -17 -38 -18 -17 -19 -16 -20 38 0 30 4
58 9 61 5 3 4 19 -2 38 -5 17 -10 41 -9 52 1 24 -47 49 -75 38 -35 -13 -85 -6
-108 16 -12 11 -25 21 -28 21 -2 0 -11 -18 -18 -41 -8 -22 -17 -42 -22 -45 -9
-6 -111 -17 -148 -16 l-25 0 25 -20 c20 -16 22 -22 12 -36 -15 -21 -19 -30
-26 -62 -3 -16 -16 -29 -36 -37 -18 -7 -30 -18 -30 -29 0 -10 -21 -38 -46 -61
-40 -38 -45 -46 -39 -73 4 -17 2 -30 -3 -30 -13 0 -62 94 -62 118 0 12 -19 27
-56 45 -49 24 -59 26 -73 14 -34 -29 -40 -28 -67 13 -28 43 -44 48 -24 8 11
-22 11 -23 -5 -3 -25 30 -51 95 -65 161 -41 195 57 539 156 550 14 1 44 18 67
37 60 49 162 99 232 113 93 19 201 17 237 -3z m1369 1 c25 -12 30 -21 27 -44
-2 -23 8 -37 55 -82 l57 -54 -42 -21 c-35 -17 -50 -34 -77 -87 l-34 -65 18
-60 18 -60 26 20 c56 43 68 49 124 55 54 6 57 6 57 -15 0 -22 2 -22 80 -26 57
-3 80 3 80 21 0 8 -10 14 -26 14 -37 0 -25 24 16 30 30 4 32 6 17 19 -10 7
-17 19 -17 26 0 8 -9 10 -25 7 -16 -3 -25 -11 -25 -23 0 -10 -8 -22 -17 -28
-14 -7 -24 -3 -46 22 -25 28 -28 29 -24 10 5 -21 4 -21 -18 -7 -28 18 -74 4
-82 -26 -5 -20 -37 -27 -59 -12 -6 4 -11 30 -11 59 -1 46 1 50 14 37 14 -13
18 -13 37 1 11 9 33 23 48 33 33 20 37 42 8 42 -31 0 -34 23 -8 63 27 42 40
44 99 17 24 -11 49 -20 56 -20 18 0 4 28 -15 33 -12 3 -11 5 5 6 15 1 31 -14
56 -52 31 -47 34 -58 30 -101 -4 -35 -3 -47 6 -42 7 5 11 -1 11 -17 0 -14 6
-40 14 -58 7 -19 12 -50 9 -69 -8 -64 -12 -67 -39 -35 -14 17 -24 23 -21 15 2
-8 13 -41 22 -72 14 -44 16 -63 8 -80 -6 -13 -16 -36 -22 -52 -10 -24 -14 -27
-22 -15 -8 10 -9 9 -4 -8 3 -12 1 -24 -4 -28 -6 -3 -8 -19 -4 -35 3 -19 1 -30
-5 -30 -7 0 -9 8 -5 18 6 15 5 15 -10 3 -9 -7 -17 -19 -17 -26 0 -15 -28 -40
-36 -32 -4 3 3 22 14 41 12 20 18 38 13 40 -11 7 -46 -56 -43 -80 2 -11 -6
-28 -17 -38 -18 -17 -19 -16 -20 38 0 30 4 58 9 61 5 3 4 19 -2 38 -5 17 -10
41 -9 52 1 24 -47 49 -75 38 -35 -13 -85 -6 -108 16 -12 11 -25 21 -28 21 -2
0 -11 -18 -18 -41 -8 -22 -17 -42 -22 -45 -9 -6 -111 -17 -148 -16 l-25 0 25
-20 c20 -16 22 -22 12 -36 -15 -21 -19 -30 -26 -62 -3 -16 -16 -29 -36 -37
-18 -7 -30 -18 -30 -29 0 -10 -21 -38 -46 -61 -40 -38 -45 -46 -39 -73 4 -17
2 -30 -3 -30 -13 0 -62 94 -62 118 0 12 -19 27 -56 45 -49 24 -59 26 -73 14
-34 -29 -40 -28 -67 13 -28 43 -44 48 -24 8 11 -22 11 -23 -5 -3 -26 31 -53
98 -66 165 -39 198 58 535 157 546 14 1 44 18 67 37 60 49 162 99 232 113 88
18 200 17 236 -2z m1380 0 c24 -12 30 -21 27 -43 -2 -23 8 -38 55 -82 l58 -54
-43 -22 c-35 -17 -50 -34 -77 -87 l-34 -65 18 -60 18 -60 26 20 c56 43 68 49
124 55 54 6 57 6 57 -15 0 -22 2 -22 80 -26 57 -3 80 3 80 21 0 8 -10 14 -26
14 -37 0 -25 24 16 30 30 4 32 6 17 19 -10 7 -17 19 -17 26 0 8 -9 10 -25 7
-16 -3 -25 -11 -25 -23 0 -10 -8 -22 -17 -28 -14 -7 -24 -3 -46 22 -25 28 -28
29 -24 10 5 -21 4 -21 -18 -7 -28 18 -74 4 -82 -26 -5 -20 -37 -27 -59 -12 -6
4 -11 30 -11 59 -1 46 1 50 14 37 14 -13 18 -13 37 1 11 9 33 23 48 33 33 20
37 42 8 42 -31 0 -34 23 -8 63 27 42 40 44 99 17 24 -11 49 -20 56 -20 18 0 4
28 -15 33 -12 3 -11 5 5 6 15 1 31 -14 56 -52 31 -47 34 -58 30 -101 -4 -35
-3 -47 6 -42 7 5 11 -1 11 -17 0 -14 6 -40 14 -58 7 -19 12 -50 9 -69 -8 -64
-12 -67 -39 -35 -14 17 -24 23 -21 15 2 -8 13 -41 22 -72 14 -44 16 -63 8 -80
-6 -13 -16 -36 -22 -52 -10 -24 -14 -27 -23 -15 -8 11 -9 10 -4 -4 3 -11 3
-24 -1 -30 -4 -7 -6 -24 -4 -39 1 -16 -2 -28 -8 -28 -6 0 -7 8 -4 18 6 15 5
15 -10 3 -9 -7 -17 -19 -17 -26 0 -15 -28 -40 -36 -32 -4 3 3 22 14 41 12 20
18 38 13 40 -11 7 -46 -56 -43 -80 2 -11 -6 -28 -17 -38 -18 -17 -19 -16 -20
38 0 30 4 58 9 61 5 3 4 19 -2 38 -5 17 -10 41 -9 52 1 24 -47 49 -75 38 -35
-13 -85 -6 -108 16 -12 11 -25 21 -28 21 -2 0 -11 -18 -18 -41 -8 -22 -17 -42
-22 -45 -9 -6 -111 -17 -148 -16 l-25 0 25 -20 c20 -16 22 -22 12 -36 -15 -21
-19 -30 -26 -62 -3 -16 -16 -29 -36 -37 -18 -7 -30 -18 -30 -29 0 -10 -21 -38
-46 -61 -40 -38 -45 -46 -39 -73 4 -17 2 -30 -3 -30 -13 0 -62 94 -62 118 0
12 -19 27 -56 45 l-57 28 -21 -20 c-12 -12 -25 -21 -29 -21 -4 0 -19 18 -33
40 -28 43 -43 48 -24 8 11 -22 11 -23 -5 -3 -76 92 -97 318 -45 496 36 123 93
213 135 215 13 1 43 17 66 36 64 52 165 101 234 114 92 18 201 17 236 -2z
m1370 0 c25 -12 30 -21 27 -44 -2 -23 8 -37 55 -82 l57 -54 -42 -21 c-35 -17
-50 -34 -77 -87 l-34 -65 18 -60 18 -60 26 20 c56 43 68 49 124 55 54 6 57 6
57 -15 0 -22 2 -22 80 -26 57 -3 80 3 80 21 0 8 -10 14 -26 14 -37 0 -25 24
16 30 30 4 32 6 17 19 -10 7 -17 19 -17 26 0 8 -9 10 -25 7 -16 -3 -25 -11
-25 -23 0 -10 -8 -22 -17 -28 -14 -7 -24 -3 -46 22 -25 28 -28 29 -24 10 5
-21 4 -21 -18 -7 -28 18 -74 4 -82 -26 -5 -20 -37 -27 -59 -12 -6 4 -11 30
-11 59 -1 46 1 50 14 37 14 -13 18 -13 37 1 11 9 33 23 48 33 33 20 37 42 8
42 -31 0 -34 23 -8 63 27 42 40 44 99 17 24 -11 49 -20 56 -20 18 0 4 28 -15
33 -12 3 -11 5 5 6 15 1 31 -14 56 -52 31 -47 34 -58 30 -101 -4 -35 -3 -47 6
-42 7 5 11 -1 11 -17 0 -14 6 -40 14 -58 7 -19 12 -50 9 -69 -8 -64 -12 -67
-39 -35 -14 17 -24 23 -21 15 2 -8 13 -41 22 -72 14 -44 16 -63 8 -80 -6 -13
-16 -36 -22 -52 -10 -24 -14 -27 -22 -15 -8 10 -9 9 -4 -8 3 -12 1 -24 -4 -28
-6 -3 -8 -19 -4 -35 3 -19 1 -30 -5 -30 -7 0 -9 8 -5 18 6 15 5 15 -10 3 -9
-7 -17 -19 -17 -26 0 -15 -28 -40 -36 -32 -4 3 3 22 14 41 12 20 18 38 13 40
-11 7 -46 -56 -43 -80 2 -11 -6 -28 -17 -38 -18 -17 -19 -16 -20 38 0 30 4 58
9 61 5 3 4 19 -2 38 -5 17 -10 41 -9 52 1 24 -47 49 -75 38 -35 -13 -85 -6
-108 16 -12 11 -25 21 -28 21 -2 0 -11 -18 -18 -41 -8 -22 -17 -42 -22 -45 -9
-6 -111 -17 -148 -16 l-25 0 25 -20 c20 -16 22 -22 12 -36 -15 -21 -19 -30
-26 -62 -3 -16 -16 -29 -36 -37 -18 -7 -30 -18 -30 -29 0 -10 -21 -38 -46 -61
-40 -38 -45 -46 -39 -73 4 -17 2 -30 -3 -30 -13 0 -62 94 -62 118 0 12 -19 27
-56 45 -49 24 -59 26 -73 14 -34 -29 -40 -28 -67 13 -28 43 -44 48 -24 8 11
-22 11 -23 -5 -3 -97 117 -98 425 -1 611 32 62 64 96 91 99 13 2 44 19 67 38
63 51 164 100 233 113 92 18 201 17 236 -2z m1381 -1 c23 -14 28 -23 25 -43
-4 -20 6 -35 54 -80 l60 -56 -43 -21 c-35 -17 -50 -34 -77 -87 l-34 -65 18
-60 18 -60 26 20 c56 43 68 49 124 55 54 6 57 6 57 -15 0 -22 2 -22 80 -26 57
-3 80 3 80 21 0 8 -10 14 -26 14 -37 0 -25 24 16 30 30 4 32 6 17 19 -10 7
-17 19 -17 26 0 8 -9 10 -25 7 -16 -3 -25 -11 -25 -23 0 -10 -8 -22 -17 -28
-14 -7 -24 -3 -46 22 -25 28 -28 29 -24 10 5 -21 4 -21 -18 -7 -28 18 -74 4
-82 -26 -5 -20 -37 -27 -59 -12 -6 4 -11 30 -11 59 -1 46 1 50 14 37 14 -13
18 -13 37 1 11 9 33 23 48 33 33 20 37 42 8 42 -31 0 -34 23 -8 63 27 42 40
44 99 17 24 -11 49 -20 56 -20 18 0 4 28 -15 33 -13 3 -11 5 4 6 24 1 59 -43
48 -61 -5 -7 -3 -8 6 -3 9 6 12 4 8 -6 -3 -8 0 -26 8 -40 7 -13 13 -39 14 -56
0 -18 5 -33 10 -33 6 0 10 -8 10 -19 0 -10 6 -33 14 -52 14 -33 11 -106 -5
-123 -4 -5 -13 3 -20 17 -12 26 -36 39 -26 15 29 -77 40 -130 30 -150 -6 -13
-16 -36 -22 -52 -10 -24 -14 -27 -22 -15 -8 10 -9 9 -4 -8 3 -12 1 -24 -4 -28
-6 -3 -8 -19 -4 -35 3 -19 1 -30 -5 -30 -7 0 -9 8 -5 18 6 15 5 15 -10 3 -9
-7 -17 -19 -17 -26 0 -15 -28 -40 -36 -32 -4 3 3 22 14 41 12 20 18 38 13 40
-11 7 -46 -56 -43 -80 2 -11 -6 -28 -17 -38 -18 -17 -19 -16 -20 38 0 30 4 58
9 61 5 3 4 19 -2 38 -5 17 -10 41 -9 52 1 24 -47 49 -75 38 -35 -13 -85 -6
-108 16 -12 11 -25 21 -28 21 -2 0 -11 -18 -18 -41 -8 -22 -17 -42 -22 -45 -9
-6 -111 -17 -148 -16 l-25 0 25 -20 c20 -16 22 -22 12 -36 -15 -21 -19 -30
-26 -62 -3 -16 -16 -29 -36 -37 -18 -7 -30 -18 -30 -29 0 -10 -21 -38 -46 -61
-40 -38 -45 -46 -39 -73 4 -17 2 -30 -3 -30 -13 0 -62 94 -62 118 0 12 -19 27
-56 45 -49 24 -59 26 -73 14 -34 -29 -40 -28 -67 13 -28 43 -44 48 -24 8 11
-22 11 -23 -5 -3 -26 31 -53 98 -66 165 -39 198 58 535 157 546 14 1 44 18 67
37 60 49 162 99 232 113 93 19 201 17 237 -3z m-10232 -168 c0 -18 -5 -25 -19
-25 -11 0 -23 5 -26 10 -11 18 3 40 25 40 15 0 20 -7 20 -25z m10638 -61 c-4
-3 -12 5 -18 18 -12 22 -12 22 6 6 10 -10 15 -20 12 -24z m-6963 6 c8 -25 -1
-40 -25 -40 -22 0 -34 28 -19 46 16 20 37 17 44 -6z m1175 -12 c10 -13 16 -26
13 -30 -7 -13 -40 -9 -40 5 0 6 -4 20 -8 30 -10 25 13 22 35 -5z m355 12 c3
-5 1 -10 -4 -10 -6 0 -11 5 -11 10 0 6 2 10 4 10 3 0 8 -4 11 -10z m1015 -12
c10 -13 16 -26 13 -30 -7 -13 -40 -9 -40 5 0 6 -4 20 -8 30 -10 25 13 22 35
-5z m1380 0 c10 -13 16 -26 13 -30 -7 -13 -40 -9 -40 5 0 6 -4 20 -8 30 -10
25 13 22 35 -5z m1370 0 c10 -13 16 -26 13 -30 -7 -13 -40 -9 -40 5 0 6 -4 20
-8 30 -10 25 13 22 35 -5z m1380 0 c10 -13 16 -26 13 -30 -7 -13 -40 -9 -40 5
0 6 -4 20 -8 30 -10 25 13 22 35 -5z m-10750 -8 c0 -5 -2 -10 -4 -10 -3 0 -8
5 -11 10 -3 6 -1 10 4 10 6 0 11 -4 11 -10z m6948 -75 c-3 -3 -9 2 -12 12 -6
14 -5 15 5 6 7 -7 10 -15 7 -18z m1380 0 c-3 -3 -9 2 -12 12 -6 14 -5 15 5 6
7 -7 10 -15 7 -18z m-2748 -35 c0 -5 -4 -10 -10 -10 -5 0 -10 5 -10 10 0 6 5
10 10 10 6 0 10 -4 10 -10z m1370 0 c0 -5 -4 -10 -10 -10 -5 0 -10 5 -10 10 0
6 5 10 10 10 6 0 10 -4 10 -10z m1380 0 c0 -5 -4 -10 -10 -10 -5 0 -10 5 -10
10 0 6 5 10 10 10 6 0 10 -4 10 -10z m1370 0 c0 -5 -4 -10 -10 -10 -5 0 -10 5
-10 10 0 6 5 10 10 10 6 0 10 -4 10 -10z m1380 0 c0 -5 -4 -10 -10 -10 -5 0
-10 5 -10 10 0 6 5 10 10 10 6 0 10 -4 10 -10z m-5480 -190 c0 -5 -5 -10 -11
-10 -5 0 -7 5 -4 10 3 6 8 10 11 10 2 0 4 -4 4 -10z m1370 0 c0 -5 -5 -10 -11
-10 -5 0 -7 5 -4 10 3 6 8 10 11 10 2 0 4 -4 4 -10z m1380 0 c0 -5 -5 -10 -11
-10 -5 0 -7 5 -4 10 3 6 8 10 11 10 2 0 4 -4 4 -10z m1370 0 c0 -5 -5 -10 -11
-10 -5 0 -7 5 -4 10 3 6 8 10 11 10 2 0 4 -4 4 -10z m1380 0 c0 -5 -5 -10 -11
-10 -5 0 -7 5 -4 10 3 6 8 10 11 10 2 0 4 -4 4 -10z m3655 -30 c0 -16 -6 -26
-18 -28 -19 -4 -32 20 -23 44 9 25 41 13 41 -16z m267 -289 c22 12 22 11 6 -8
-16 -18 -16 -21 -2 -42 16 -22 17 -22 38 -4 21 18 21 18 4 -3 -16 -18 -16 -22
-2 -43 15 -21 17 -21 42 -5 27 17 27 17 10 -3 -22 -24 -23 -37 -3 -53 13 -10
19 -10 35 5 11 10 20 13 20 8 0 -6 -7 -13 -15 -17 -19 -7 -19 -30 -1 -45 11
-10 20 -10 38 0 23 12 23 12 4 -10 -18 -20 -19 -22 -1 -41 16 -18 20 -19 35
-5 9 8 20 15 24 15 5 0 -2 -9 -15 -19 -24 -19 -24 -19 -5 -40 18 -20 21 -20
45 -5 l26 17 -23 -25 -22 -25 20 -18 c19 -17 21 -17 40 0 11 10 22 16 25 13 3
-3 -6 -13 -21 -22 l-26 -18 23 -24 c12 -13 18 -24 13 -24 -5 0 -15 9 -22 20
-12 19 -14 19 -40 4 l-27 -16 22 20 c23 20 23 20 4 43 -19 23 -20 23 -40 5
l-20 -19 46 -58 c49 -63 53 -65 71 -47 7 7 12 8 12 4 0 -11 69 46 154 128 38
36 75 66 83 66 19 0 101 -78 120 -113 15 -29 14 -30 -29 -68 -23 -21 -46 -38
-50 -39 -5 0 -8 -7 -8 -16 0 -11 15 -4 49 25 50 42 71 50 71 29 0 -14 -111
-108 -126 -108 -18 0 -109 -83 -118 -107 -6 -19 -3 -30 15 -49 21 -22 24 -23
41 -7 17 15 17 18 2 42 l-17 26 25 -23 25 -22 18 20 c10 11 20 18 23 15 3 -2
-6 -13 -19 -24 -24 -19 -24 -19 -5 -40 17 -19 21 -20 36 -6 9 8 21 15 26 15 5
0 -2 -9 -16 -19 -24 -19 -24 -20 -6 -40 l19 -20 31 21 31 21 -27 -29 c-23 -25
-25 -32 -14 -46 17 -23 24 -23 55 4 25 22 25 22 -1 -6 -25 -27 -26 -30 -11
-53 l16 -24 28 27 c16 15 29 24 29 20 0 -4 -12 -17 -26 -29 -25 -22 -26 -23
-7 -46 l18 -23 19 21 c11 12 24 21 30 21 6 -1 -1 -11 -16 -23 -27 -22 -27 -24
-12 -45 14 -20 18 -22 33 -9 30 26 46 29 19 4 -26 -25 -27 -26 -10 -47 l17
-21 30 22 30 23 -28 -31 c-25 -26 -26 -31 -12 -43 8 -7 15 -17 15 -22 0 -6 -8
0 -19 13 -16 20 -21 21 -35 10 -20 -17 -20 -35 -1 -51 8 -7 12 -17 9 -22 -3
-5 -17 1 -30 13 -22 21 -26 21 -40 7 -15 -14 -14 -18 1 -44 l17 -29 -21 24
-21 23 -38 -27 -37 -27 33 31 c27 26 31 34 22 51 -14 26 -22 25 -62 -7 -32
-26 -32 -26 -10 -2 12 14 19 29 15 34 -5 4 -3 5 4 1 19 -11 23 9 7 33 -15 21
-41 20 -28 -1 4 -6 2 -8 -3 -5 -6 4 -16 0 -23 -8 -7 -8 -17 -15 -23 -15 -6 0
-1 7 11 15 21 15 21 17 6 41 -16 23 -18 24 -35 8 -11 -10 -22 -15 -25 -11 -3
3 3 11 14 18 18 12 19 15 5 36 -13 19 -18 21 -37 11 -19 -10 -20 -10 -7 5 11
14 11 20 0 35 -7 9 -15 19 -16 21 -1 2 -11 -2 -20 -10 -16 -13 -17 -12 -4 4
11 14 11 20 0 35 -7 9 -15 19 -16 21 -1 2 -11 -2 -20 -10 -16 -13 -17 -12 -5
3 19 23 -4 60 -33 52 -15 -4 -16 -3 -6 4 7 5 10 15 7 21 -16 25 14 9 37 -20
14 -18 27 -27 31 -21 3 6 -5 19 -19 30 l-25 20 25 20 c30 24 30 26 4 61 -20
28 -22 28 -52 13 -50 -24 -127 -93 -133 -119 -8 -31 -22 -29 -67 8 -32 27 -36
33 -25 48 11 14 11 14 -4 3 -18 -14 -18 -20 1 -76 20 -58 10 -136 -25 -193
-43 -69 -60 -68 -140 9 -39 37 -75 63 -88 63 -17 0 -21 6 -21 30 0 19 -16 54
-42 94 -24 35 -43 75 -43 88 0 61 190 86 260 34 41 -30 49 -20 22 28 -31 54
-29 72 6 65 23 -5 37 4 95 60 l69 65 -48 61 c-48 62 -59 67 -78 37 -15 -23 17
-58 36 -39 20 20 32 13 13 -8 -16 -17 -16 -22 -4 -38 8 -10 -4 2 -27 26 -24
27 -44 41 -48 34 -3 -6 5 -19 19 -30 30 -24 33 -48 5 -48 -14 0 -19 5 -15 15
7 17 -24 53 -38 44 -6 -4 -7 -1 -3 6 11 17 -22 51 -42 43 -14 -5 -15 -3 -5 9
16 20 -9 54 -34 45 -14 -6 -15 -4 -6 5 17 17 -12 60 -35 52 -12 -3 -13 -2 -5
4 19 13 -14 56 -36 48 -13 -5 -13 -4 -4 6 10 10 9 17 -5 33 -17 21 -17 21 4 3
27 -22 37 -11 17 20 l-16 24 -23 -22 c-13 -13 -24 -17 -24 -11 0 6 9 16 20 22
19 10 19 12 4 35 -15 23 -17 24 -42 8 l-27 -17 19 22 c18 21 18 23 1 49 l-18
28 27 -24 c24 -23 28 -23 42 -9 15 14 15 18 -1 41 -9 14 -12 28 -7 31 6 3 18
-6 27 -20 l17 -26 21 20 c20 20 20 22 4 40 -9 10 -17 23 -17 28 1 5 9 -1 20
-14 17 -20 22 -22 42 -11z m-9727 -286 c-74 -35 -160 -55 -240 -55 -64 0 -68
1 -45 13 41 22 70 28 154 34 44 3 98 11 120 18 62 20 66 16 11 -10z m1395 10
c-59 -34 -181 -65 -258 -65 -70 0 -75 1 -52 13 41 22 70 28 154 34 44 3 98 11
120 18 55 17 66 17 36 0z m1380 0 c-59 -34 -181 -65 -258 -65 -70 0 -75 1 -52
13 41 22 70 28 154 34 44 3 98 11 120 18 55 17 66 17 36 0z m1370 0 c-59 -34
-181 -65 -258 -65 -70 0 -75 1 -52 13 41 22 70 28 154 34 44 3 98 11 120 18
55 17 66 17 36 0z m1355 -10 c-74 -35 -160 -55 -240 -55 -64 0 -68 1 -45 13
41 22 70 28 154 34 44 3 98 11 120 18 62 20 66 16 11 -10z m-5880 -15 c13 -21
-5 -28 -47 -18 -62 13 -66 25 -9 27 27 1 52 -3 56 -9z m1370 -1 c13 -20 -10
-29 -50 -18 -60 16 -62 26 -6 28 27 1 53 -4 56 -10z m1380 0 c13 -20 -10 -29
-50 -18 -60 16 -62 26 -6 28 27 1 53 -4 56 -10z m1370 0 c13 -20 -10 -29 -50
-18 -60 16 -62 26 -6 28 27 1 53 -4 56 -10z m1380 1 c13 -21 -5 -28 -47 -18
-62 13 -66 25 -9 27 27 1 52 -3 56 -9z m1645 -204 c0 -28 -24 -41 -40 -21 -16
20 -5 45 20 45 14 0 20 -7 20 -24z m-5965 -176 c0 -29 -32 -41 -41 -16 -9 24
4 48 23 44 12 -2 18 -12 18 -28z m-283 -67 c24 -15 28 -23 24 -44 -4 -23 4
-35 55 -80 l60 -53 -43 -22 c-34 -18 -50 -36 -77 -88 l-34 -65 18 -60 18 -60
26 20 c56 43 68 49 124 55 54 6 57 6 57 -15 0 -22 2 -22 80 -26 57 -3 80 3 80
21 0 8 -10 14 -26 14 -37 0 -25 24 16 30 30 4 32 6 17 19 -10 7 -17 19 -17 26
0 8 -9 10 -25 7 -16 -3 -25 -11 -25 -23 0 -10 -8 -22 -17 -28 -14 -7 -24 -3
-46 22 -25 28 -28 29 -24 10 5 -21 4 -21 -18 -7 -28 18 -74 4 -82 -26 -5 -20
-37 -27 -59 -12 -6 4 -11 30 -11 59 -1 46 1 50 14 37 14 -13 18 -13 37 1 11 9
33 23 48 33 33 20 37 42 8 42 -31 0 -34 23 -8 63 27 42 40 44 99 17 24 -11 49
-20 56 -20 18 0 4 28 -15 33 -13 3 -11 5 4 6 24 1 59 -43 48 -61 -5 -7 -3 -8
6 -3 9 6 12 4 8 -6 -3 -8 0 -26 8 -40 7 -13 13 -39 14 -56 0 -18 5 -33 10 -33
6 0 10 -8 10 -19 0 -10 6 -33 14 -52 14 -33 11 -106 -5 -123 -4 -5 -13 3 -20
17 -12 26 -36 39 -26 15 29 -77 40 -130 30 -150 -6 -13 -16 -36 -22 -52 -10
-24 -14 -27 -22 -15 -8 10 -9 9 -4 -8 3 -12 1 -24 -4 -28 -6 -3 -8 -19 -4 -35
3 -19 1 -30 -5 -30 -7 0 -9 8 -5 17 6 16 5 16 -10 4 -9 -7 -17 -19 -17 -26 0
-15 -28 -40 -36 -32 -4 3 3 22 14 41 12 20 18 38 13 40 -11 7 -46 -56 -43 -80
2 -11 -6 -28 -17 -38 -18 -17 -19 -16 -20 38 0 30 4 58 9 61 5 3 4 19 -2 38
-5 17 -10 41 -9 52 1 24 -47 49 -75 38 -35 -13 -85 -6 -108 16 -12 11 -25 21
-28 21 -2 0 -11 -18 -18 -41 -8 -22 -17 -42 -22 -45 -8 -5 -108 -16 -148 -16
l-25 0 25 -20 c20 -16 22 -22 12 -36 -15 -21 -19 -30 -26 -62 -3 -16 -16 -29
-36 -37 -18 -7 -30 -18 -30 -29 0 -10 -21 -38 -46 -61 -40 -38 -45 -46 -39
-73 4 -17 2 -30 -3 -30 -13 0 -62 94 -62 117 0 12 -20 28 -55 47 l-54 28 -28
-22 c-27 -21 -28 -21 -43 -2 -8 11 -25 32 -38 48 l-22 29 15 -35 c15 -33 15
-34 -1 -15 -96 118 -95 429 4 621 24 46 76 99 90 90 6 -3 32 12 60 33 69 55
166 102 237 117 93 19 201 17 237 -3z m1380 0 c23 -14 28 -23 25 -43 -4 -20 6
-35 54 -80 l60 -56 -43 -21 c-35 -17 -50 -34 -77 -87 l-34 -65 18 -60 18 -60
26 20 c56 43 68 49 124 55 54 6 57 6 57 -15 0 -22 2 -22 80 -26 57 -3 80 3 80
21 0 8 -10 14 -26 14 -37 0 -25 24 16 30 30 4 32 6 17 19 -10 7 -17 19 -17 26
0 8 -9 10 -25 7 -16 -3 -25 -11 -25 -23 0 -10 -8 -22 -17 -28 -14 -7 -24 -3
-46 22 -25 28 -28 29 -24 10 5 -21 4 -21 -18 -7 -28 18 -74 4 -82 -26 -5 -20
-37 -27 -59 -12 -6 4 -11 30 -11 59 -1 46 1 50 14 37 14 -13 18 -13 37 1 11 9
33 23 48 33 33 20 37 42 8 42 -31 0 -34 23 -8 63 27 42 40 44 99 17 24 -11 49
-20 56 -20 18 0 4 28 -15 33 -13 3 -11 5 4 6 24 1 59 -43 48 -61 -4 -6 -3 -8
3 -5 6 4 18 -4 27 -18 23 -35 19 -45 -5 -15 l-20 25 15 -32 c9 -18 16 -46 16
-63 0 -18 4 -29 10 -25 6 3 10 -5 10 -18 0 -14 6 -39 14 -58 14 -33 11 -106
-5 -123 -4 -5 -13 3 -20 17 -12 26 -36 39 -26 15 29 -77 40 -130 30 -150 -6
-13 -16 -36 -22 -52 -10 -24 -14 -27 -22 -15 -8 10 -9 9 -4 -8 3 -12 1 -24 -4
-28 -6 -3 -8 -19 -4 -35 3 -19 1 -30 -5 -30 -7 0 -9 8 -5 17 6 16 5 16 -10 4
-9 -7 -17 -19 -17 -26 0 -15 -28 -40 -36 -32 -4 3 3 22 14 41 12 20 18 38 13
40 -11 7 -46 -56 -43 -80 2 -11 -6 -28 -17 -38 -18 -17 -19 -16 -20 38 0 30 4
58 9 61 5 3 4 19 -2 38 -5 17 -10 41 -9 52 1 24 -47 49 -75 38 -35 -13 -85 -6
-108 16 -12 11 -25 21 -28 21 -2 0 -11 -18 -18 -41 -8 -22 -17 -42 -22 -45 -9
-6 -111 -17 -148 -16 l-25 0 25 -20 c20 -16 22 -22 12 -36 -15 -21 -19 -30
-26 -62 -3 -16 -16 -29 -36 -37 -18 -7 -30 -18 -30 -29 0 -10 -21 -38 -46 -61
-40 -38 -45 -46 -39 -73 4 -17 2 -30 -3 -30 -13 0 -62 94 -62 117 0 12 -20 28
-55 47 -50 26 -57 27 -73 14 -35 -30 -41 -29 -68 12 -28 43 -44 48 -24 8 11
-22 11 -23 -5 -3 -26 31 -53 98 -66 165 -39 198 58 535 157 546 14 1 44 18 67
37 60 49 162 99 232 113 93 19 201 17 237 -3z m1370 0 c23 -14 28 -23 25 -43
-4 -20 6 -35 54 -80 l60 -56 -43 -21 c-35 -17 -50 -34 -77 -87 l-34 -65 18
-60 18 -60 26 20 c56 43 68 49 124 55 54 6 57 6 57 -15 0 -22 2 -22 80 -26 57
-3 80 3 80 21 0 8 -10 14 -26 14 -37 0 -25 24 16 30 30 4 32 6 17 19 -10 7
-17 19 -17 26 0 8 -9 10 -25 7 -16 -3 -25 -11 -25 -23 0 -10 -8 -22 -17 -28
-14 -7 -24 -3 -46 22 -25 28 -28 29 -24 10 5 -21 4 -21 -18 -7 -28 18 -74 4
-82 -26 -5 -20 -37 -27 -59 -12 -6 4 -11 30 -11 59 -1 46 1 50 14 37 14 -13
18 -13 37 1 11 9 33 23 48 33 33 20 37 42 8 42 -31 0 -34 23 -8 63 27 42 40
44 99 17 24 -11 49 -20 56 -20 18 0 4 28 -15 33 -13 3 -11 5 4 6 24 1 59 -43
48 -61 -4 -6 -3 -8 3 -5 6 4 18 -4 27 -18 23 -35 19 -45 -5 -15 l-20 25 15
-32 c9 -18 16 -46 16 -63 0 -16 5 -30 10 -30 6 0 10 -8 10 -19 0 -10 6 -33 14
-52 14 -33 11 -106 -5 -123 -4 -5 -13 3 -20 17 -12 26 -36 39 -26 15 29 -77
40 -130 30 -150 -6 -13 -16 -36 -22 -52 -10 -24 -14 -27 -22 -15 -8 10 -9 9
-4 -8 3 -12 1 -24 -4 -28 -6 -3 -8 -19 -4 -35 3 -19 1 -30 -5 -30 -7 0 -9 8
-5 17 6 16 5 16 -10 4 -9 -7 -17 -19 -17 -26 0 -15 -28 -40 -36 -32 -4 3 3 22
14 41 12 20 18 38 13 40 -11 7 -46 -56 -43 -80 2 -11 -6 -28 -17 -38 -18 -17
-19 -16 -20 38 0 30 4 58 9 61 5 3 4 19 -2 38 -5 17 -10 41 -9 52 1 24 -47 49
-75 38 -35 -13 -85 -6 -108 16 -12 11 -25 21 -28 21 -2 0 -11 -18 -18 -41 -8
-22 -17 -42 -22 -45 -9 -6 -111 -17 -148 -16 l-25 0 25 -20 c20 -16 22 -22 12
-36 -15 -21 -19 -30 -26 -62 -3 -16 -16 -29 -36 -37 -18 -7 -30 -18 -30 -29 0
-10 -21 -38 -46 -61 -40 -38 -45 -46 -39 -73 4 -17 2 -30 -3 -30 -13 0 -62 94
-62 118 0 12 -19 27 -56 45 -49 24 -59 26 -73 14 -34 -29 -40 -28 -67 13 -28
43 -44 48 -24 8 11 -22 11 -23 -5 -3 -26 31 -53 98 -66 165 -39 198 58 535
157 546 14 1 44 18 67 37 60 49 162 99 232 113 93 19 201 17 237 -3z m1373
-19 c13 -10 19 -24 17 -42 -2 -21 4 -33 28 -51 29 -21 31 -26 25 -62 -4 -21
-26 -73 -50 -115 l-43 -75 15 -47 c8 -26 17 -53 19 -61 3 -11 7 -11 19 -1 13
11 15 1 15 -76 0 -83 -1 -87 -17 -71 -16 16 -18 15 -34 -25 -9 -24 -26 -48
-37 -53 -11 -6 -54 -11 -96 -10 -42 0 -68 -3 -58 -6 31 -12 46 -37 32 -54 -7
-8 -15 -30 -19 -48 -5 -23 -15 -36 -38 -46 -22 -10 -33 -22 -35 -40 -2 -15
-12 -30 -24 -35 -28 -13 -73 -78 -57 -83 13 -5 6 -33 -8 -33 -10 0 -53 87 -55
113 -2 22 1 19 -60 50 -51 26 -52 26 -69 7 -26 -29 -37 -25 -68 25 -33 52 -45
60 -22 14 9 -17 15 -33 12 -35 -9 -10 -65 116 -77 174 -25 120 7 337 65 453
23 45 74 99 90 93 6 -3 35 13 62 35 67 53 168 103 223 112 88 13 224 9 245 -7z
m5523 -40 c-4 -3 -12 5 -18 18 -12 22 -12 22 6 6 10 -10 15 -20 12 -24z
m-9240 -170 c-4 -3 -12 5 -18 18 -12 22 -12 22 6 6 10 -10 15 -20 12 -24z
m-288 -6 c10 -13 16 -26 13 -30 -7 -13 -40 -9 -40 5 0 6 -4 20 -8 30 -10 25
13 22 35 -5z m1380 0 c10 -13 16 -26 13 -30 -7 -13 -40 -9 -40 5 0 6 -4 20 -8
30 -10 25 13 22 35 -5z m1370 0 c10 -13 16 -26 13 -30 -7 -13 -40 -9 -40 5 0
6 -4 20 -8 30 -10 25 13 22 35 -5z m-5053 -120 c-3 -8 -6 -5 -6 6 -1 11 2 17
5 13 3 -3 4 -12 1 -19z m2633 2 c0 -5 -4 -10 -10 -10 -5 0 -10 5 -10 10 0 6 5
10 10 10 6 0 10 -4 10 -10z m1380 0 c0 -5 -4 -10 -10 -10 -5 0 -10 5 -10 10 0
6 5 10 10 10 6 0 10 -4 10 -10z m1370 0 c0 -5 -4 -10 -10 -10 -5 0 -10 5 -10
10 0 6 5 10 10 10 6 0 10 -4 10 -10z m5115 0 c3 -5 1 -10 -4 -10 -6 0 -11 5
-11 10 0 6 2 10 4 10 3 0 8 -4 11 -10z m-2675 -50 c0 -5 -2 -10 -4 -10 -3 0
-8 5 -11 10 -3 6 -1 10 4 10 6 0 11 -4 11 -10z m-5170 -140 c0 -5 -5 -10 -11
-10 -5 0 -7 5 -4 10 3 6 8 10 11 10 2 0 4 -4 4 -10z m1380 0 c0 -5 -5 -10 -11
-10 -5 0 -7 5 -4 10 3 6 8 10 11 10 2 0 4 -4 4 -10z m1370 0 c0 -5 -5 -10 -11
-10 -5 0 -7 5 -4 10 3 6 8 10 11 10 2 0 4 -4 4 -10z m-8923 -26 c7 -19 -20
-49 -36 -40 -6 4 -11 18 -11 32 0 17 5 24 20 24 11 0 23 -7 27 -16z m10223
-174 c0 -5 -2 -10 -4 -10 -3 0 -8 5 -11 10 -3 6 -1 10 4 10 6 0 11 -4 11 -10z
m-2620 -155 c0 -26 -22 -39 -39 -22 -15 15 -14 44 2 50 21 7 37 -4 37 -28z
m-1707 -236 c-28 -28 -151 -61 -243 -66 -85 -4 -92 -3 -70 9 40 22 69 29 154
35 44 3 98 11 120 18 53 17 52 17 39 4z m1352 -14 c-74 -35 -160 -55 -240 -55
-64 0 -68 1 -45 13 41 22 70 28 154 34 44 3 98 11 120 18 62 20 66 16 11 -10z
m1398 14 c-28 -28 -151 -61 -243 -66 -85 -4 -92 -3 -70 9 40 22 69 29 154 35
44 3 98 11 120 18 53 17 52 17 39 4z m-3155 -38 c4 -11 -5 -13 -44 -7 -68 9
-77 24 -13 22 35 -1 54 -6 57 -15z m1380 0 c4 -11 -5 -13 -43 -9 -68 8 -79 26
-14 24 35 -1 54 -6 57 -15z m1370 0 c4 -11 -5 -13 -43 -9 -68 8 -79 26 -14 24
35 -1 54 -6 57 -15z m1371 5 c17 -20 -9 -27 -56 -14 -57 15 -58 23 -4 26 31 1
53 -3 60 -12z m321 3 c0 -15 -102 -39 -163 -39 -75 0 -73 20 4 36 64 13 159
15 159 3z m-9004 -64 c8 -20 -13 -45 -32 -38 -14 5 -19 34 -7 46 11 12 33 7
39 -8z"/>
<path d="M8806 8935 c-3 -9 0 -15 9 -15 16 0 20 16 6 24 -5 3 -11 -1 -15 -9z"/>
<path d="M8040 8966 c0 -19 4 -24 15 -19 18 6 16 34 -2 41 -8 2 -13 -6 -13
-22z"/>
<path d="M8950 8934 c0 -51 2 -55 22 -52 12 2 29 15 37 29 13 24 13 29 -2 53
-10 14 -26 26 -37 26 -18 0 -20 -7 -20 -56z"/>
<path d="M9122 8978 c-17 -17 -15 -73 2 -87 24 -20 69 -9 85 20 13 24 13 29
-2 53 -19 28 -63 36 -85 14z"/>
<path d="M7940 8230 c0 -11 7 -20 15 -20 8 0 15 9 15 20 0 11 -7 20 -15 20 -8
0 -15 -9 -15 -20z"/>
<path d="M8075 8240 c-7 -12 2 -30 16 -30 5 0 9 9 9 20 0 21 -15 27 -25 10z"/>
<path d="M8380 8230 c0 -13 5 -20 13 -17 6 2 12 10 12 17 0 7 -6 15 -12 18 -8
2 -13 -5 -13 -18z"/>
<path d="M8510 8230 c0 -13 5 -20 13 -17 6 2 12 10 12 17 0 7 -6 15 -12 18 -8
2 -13 -5 -13 -18z"/>
<path d="M8728 8213 c7 -3 16 -2 19 1 4 3 -2 6 -13 5 -11 0 -14 -3 -6 -6z"/>
<path d="M9464 8239 c-10 -17 13 -36 27 -22 12 12 4 33 -11 33 -5 0 -12 -5
-16 -11z"/>
<path d="M6966 8284 c-9 -8 -16 -22 -16 -29 0 -15 27 -45 40 -45 13 0 40 30
40 45 0 15 -27 45 -40 45 -5 0 -16 -7 -24 -16z"/>
<path d="M7550 8255 c0 -48 0 -48 24 -39 10 4 16 18 16 39 0 21 -6 35 -16 39
-24 9 -24 9 -24 -39z"/>
<path d="M7754 8239 c-10 -17 13 -36 27 -22 12 12 4 33 -11 33 -5 0 -12 -5
-16 -11z"/>
<path d="M8934 8239 c-10 -17 13 -36 27 -22 12 12 4 33 -11 33 -5 0 -12 -5
-16 -11z"/>
<path d="M9155 8240 c-7 -12 2 -30 16 -30 5 0 9 9 9 20 0 21 -15 27 -25 10z"/>
<path d="M9285 8240 c-7 -12 2 -30 16 -30 5 0 9 9 9 20 0 21 -15 27 -25 10z"/>
<path d="M9600 8230 c0 -13 5 -20 13 -17 6 2 12 10 12 17 0 7 -6 15 -12 18 -8
2 -13 -5 -13 -18z"/>
<path d="M9878 8213 c7 -3 16 -2 19 1 4 3 -2 6 -13 5 -11 0 -14 -3 -6 -6z"/>
<path d="M10160 8230 c0 -13 5 -20 13 -17 6 2 12 10 12 17 0 7 -6 15 -12 18
-8 2 -13 -5 -13 -18z"/>
<path d="M10348 8213 c7 -3 16 -2 19 1 4 3 -2 6 -13 5 -11 0 -14 -3 -6 -6z"/>
<path d="M7963 7340 c-53 -21 -72 -109 -35 -159 57 -77 172 -31 172 69 0 42
-15 67 -50 85 -32 17 -54 18 -87 5z"/>
<path d="M995 7331 c-8 -15 35 -35 47 -23 6 6 7 15 4 21 -9 14 -43 14 -51 2z"/>
<path d="M1167 7314 c-22 -12 -28 -21 -25 -42 3 -24 9 -28 50 -36 40 -8 51 -7
68 9 25 23 25 40 0 65 -24 24 -54 25 -93 4z"/>
<path d="M848 7224 c-54 -17 -78 -50 -78 -109 0 -71 80 -110 140 -68 24 16 24
16 11 0 -7 -9 -28 -21 -45 -26 -22 -7 -25 -9 -10 -10 32 -1 87 40 107 82 24
47 15 88 -25 122 -34 29 -36 29 -100 9z m83 -11 c12 -16 12 -17 -1 -7 -8 6
-22 14 -30 17 -13 5 -12 6 1 6 9 1 23 -7 30 -16z"/>
<path d="M1387 7169 c61 -18 79 -75 43 -135 -22 -34 -124 -93 -164 -95 -12 0
-15 -3 -8 -6 17 -7 96 23 144 55 45 29 72 82 63 122 -8 37 -49 70 -84 69 -24
-1 -24 -1 6 -10z"/>
<path d="M1315 7150 c-4 -6 -10 -8 -15 -5 -14 8 -66 -21 -84 -47 -21 -29 -20
-87 0 -117 14 -19 22 -22 58 -17 55 7 55 7 26 16 -21 7 -18 8 20 10 38 2 41 3
20 10 -22 7 -21 8 15 11 l40 2 -50 7 -50 7 45 2 c38 3 41 4 20 11 -23 7 -23 8
10 11 29 2 25 3 -20 9 l-55 7 55 3 c51 2 53 3 20 10 -34 7 -34 7 15 10 l50 3
-50 7 c-43 6 -45 7 -15 9 25 1 31 4 21 10 -11 7 -10 10 5 14 10 2 1 6 -21 7
-32 1 -36 3 -20 10 18 8 17 9 -7 9 -15 1 -30 -4 -33 -9z"/>
<path d="M1035 6945 c0 -14 5 -23 10 -22 6 2 10 12 10 22 0 10 -4 20 -10 22
-5 2 -10 -8 -10 -22z"/>
<path d="M768 6943 c-27 -7 -21 -31 11 -47 26 -14 30 -14 41 -1 10 13 9 19 -5
35 -10 11 -21 19 -24 19 -3 -1 -14 -3 -23 -6z"/>
<path d="M1412 6901 c9 -15 9 -23 -3 -37 -13 -16 -12 -16 9 -5 24 13 28 31 10
49 -19 19 -29 14 -16 -7z"/>
<path d="M1206 6849 c3 -5 -1 -9 -9 -9 -7 0 -23 -9 -36 -21 -22 -21 -21 -55 3
-71 6 -4 7 -8 2 -8 -5 0 -3 -7 4 -15 8 -9 28 -15 54 -14 35 1 37 2 16 9 -22 7
-21 8 13 9 33 1 37 -1 24 -13 -8 -8 -29 -16 -47 -18 l-34 -3 26 -14 c34 -17
73 -8 94 23 14 22 14 28 0 53 -19 37 -72 90 -97 96 -10 3 -17 1 -13 -4z m47
-66 c-7 -2 -19 -2 -25 0 -7 3 -2 5 12 5 14 0 19 -2 13 -5z m15 -20 c-10 -2
-26 -2 -35 0 -10 3 -2 5 17 5 19 0 27 -2 18 -5z m0 -20 c-15 -2 -42 -2 -60 0
-18 2 -6 4 27 4 33 0 48 -2 33 -4z"/>
<path d="M1003 6723 c19 -22 22 -39 8 -47 -5 -4 -7 3 -4 13 7 26 -29 46 -57
31 -11 -6 -20 -19 -20 -29 0 -14 10 -20 43 -24 67 -9 92 34 35 64 -22 12 -23
11 -5 -8z"/>
<path d="M8873 7335 c-73 -51 -38 -196 47 -195 50 1 80 44 80 115 0 37 -5 51
-26 70 -31 28 -70 32 -101 10z"/>
<path d="M7064 6399 c-10 -17 13 -36 27 -22 12 12 4 33 -11 33 -5 0 -12 -5
-16 -11z"/>
<path d="M6934 6399 c-10 -17 13 -36 27 -22 12 12 4 33 -11 33 -5 0 -12 -5
-16 -11z"/>
<path d="M7200 6390 c0 -13 5 -20 13 -17 6 2 12 10 12 17 0 7 -6 15 -12 18 -8
2 -13 -5 -13 -18z"/>
<path d="M8540 6390 c0 -13 5 -20 13 -17 6 2 12 10 12 17 0 7 -6 15 -12 18 -8
2 -13 -5 -13 -18z"/>
<path d="M8850 6390 c0 -11 7 -20 15 -20 8 0 15 9 15 20 0 11 -7 20 -15 20 -8
0 -15 -9 -15 -20z"/>
<path d="M9458 6373 c7 -3 16 -2 19 1 4 3 -2 6 -13 5 -11 0 -14 -3 -6 -6z"/>
<path d="M9720 6390 c0 -11 7 -20 15 -20 8 0 15 9 15 20 0 11 -7 20 -15 20 -8
0 -15 -9 -15 -20z"/>
<path d="M10090 6390 c0 -11 7 -20 15 -20 8 0 15 9 15 20 0 11 -7 20 -15 20
-8 0 -15 -9 -15 -20z"/>
<path d="M10308 6373 c7 -3 16 -2 19 1 4 3 -2 6 -13 5 -11 0 -14 -3 -6 -6z"/>
<path d="M10674 6399 c-10 -17 13 -36 27 -22 12 12 4 33 -11 33 -5 0 -12 -5
-16 -11z"/>
<path d="M8715 5485 c-39 -38 -32 -45 45 -45 39 0 70 4 70 9 0 4 -9 20 -21 35
-26 33 -62 34 -94 1z"/>
<path d="M9446 5479 c-19 -23 -26 -42 -26 -74 0 -89 76 -133 137 -81 25 21 28
31 28 81 0 50 -3 60 -28 81 -39 34 -79 31 -111 -7z"/>
<path d="M5979 4518 c-1 -7 -1 -27 -1 -45 0 -23 -3 -30 -14 -26 -8 3 -14 1
-14 -4 0 -5 -17 -15 -37 -22 -21 -7 -50 -25 -65 -38 -16 -15 -33 -23 -42 -20
-24 9 -19 -11 5 -24 18 -9 25 -7 43 14 24 29 76 57 106 57 23 0 44 42 37 72
-3 11 0 18 10 18 8 0 13 6 11 13 -6 17 -38 21 -39 5z"/>
<path d="M5740 4470 c0 -5 7 -10 15 -10 8 0 15 5 15 10 0 6 -7 10 -15 10 -8 0
-15 -4 -15 -10z"/>
<path d="M5558 4372 c-29 -18 -42 -38 -33 -53 4 -6 72 37 104 67 13 12 -48 0
-71 -14z"/>
<path d="M6246 4374 c-4 -9 -1 -23 5 -31 19 -22 -5 -40 -26 -19 -9 9 -22 16
-30 16 -7 0 -15 5 -17 12 -3 9 -13 9 -39 -2 -48 -19 -50 -21 -88 -93 l-35 -65
19 -60 18 -61 41 34 c33 27 53 35 104 41 58 6 62 5 62 -13 0 -18 9 -21 68 -26
63 -5 92 3 92 24 0 4 -10 9 -22 11 -39 6 -33 28 8 28 37 0 37 0 18 21 -10 12
-18 23 -16 25 1 2 0 4 -3 4 -3 0 -14 0 -25 0 -13 0 -20 -7 -20 -19 0 -32 -31
-34 -62 -4 -24 23 -28 24 -28 8 0 -15 -3 -16 -12 -7 -20 20 -46 14 -80 -18
-34 -33 -36 -34 -58 -20 -10 6 -15 28 -16 67 0 32 1 50 3 41 6 -26 40 -22 75
7 18 16 42 25 62 25 19 0 40 8 49 18 22 25 21 32 -4 32 -16 0 -20 5 -16 20 6
24 -18 28 -27 4z m-96 -66 c21 -26 17 -38 -10 -38 -13 0 -17 5 -14 14 3 8 1
17 -5 21 -6 3 -11 10 -11 16 0 16 21 9 40 -13z"/>
<path d="M5706 4274 c-11 -8 -30 -14 -42 -14 -17 0 -21 -4 -17 -20 6 -24 19
-26 27 -5 3 8 15 15 26 15 11 0 23 7 27 15 8 23 1 25 -21 9z"/>
<path d="M5506 4232 c-3 -6 1 -13 10 -16 23 -9 28 -2 10 13 -8 7 -17 8 -20 3z"/>
<path d="M6130 4220 c0 -5 5 -10 10 -10 6 0 10 5 10 10 0 6 -4 10 -10 10 -5 0
-10 -4 -10 -10z"/>
<path d="M5612 4201 c-9 -10 -25 -21 -34 -24 -10 -4 -18 -15 -18 -25 0 -10 -9
-27 -20 -37 -21 -19 -28 -65 -10 -65 6 0 10 11 10 25 0 13 6 28 13 32 8 4 16
15 19 24 4 9 27 30 52 46 40 26 43 31 26 36 -13 3 -28 -2 -38 -12z"/>
<path d="M5437 4083 c-4 -3 -6 -22 -6 -42 2 -31 3 -32 6 -8 3 18 13 31 29 37
13 5 24 12 24 15 0 7 -45 6 -53 -2z"/>
<path d="M5470 3999 c0 -7 7 -17 15 -23 8 -6 16 -22 18 -35 2 -14 9 -27 15
-29 16 -5 15 1 -9 53 -20 42 -39 59 -39 34z"/>
<path d="M5740 3895 c0 -5 5 -17 10 -25 5 -8 10 -10 10 -5 0 6 -5 17 -10 25
-5 8 -10 11 -10 5z"/>
<path d="M5808 3843 c6 -2 18 -2 25 0 6 3 1 5 -13 5 -14 0 -19 -2 -12 -5z"/>
<path d="M7349 4518 c-1 -7 -1 -27 -1 -45 0 -23 -3 -30 -14 -26 -8 3 -14 1
-14 -4 0 -5 -17 -15 -37 -22 -21 -7 -50 -25 -65 -38 -16 -15 -33 -23 -42 -20
-24 9 -19 -11 5 -24 18 -9 25 -7 43 14 24 29 76 57 106 57 23 0 44 42 37 72
-3 11 0 18 10 18 8 0 13 6 11 13 -6 17 -38 21 -39 5z"/>
<path d="M7110 4470 c0 -5 7 -10 15 -10 8 0 15 5 15 10 0 6 -7 10 -15 10 -8 0
-15 -4 -15 -10z"/>
<path d="M6928 4372 c-29 -18 -42 -38 -33 -53 4 -6 72 37 104 67 13 12 -48 0
-71 -14z"/>
<path d="M7616 4374 c-4 -9 -1 -23 5 -31 19 -22 -5 -40 -26 -19 -9 9 -22 16
-30 16 -7 0 -15 5 -17 12 -3 9 -15 8 -44 -4 -31 -13 -46 -28 -78 -83 l-39 -67
18 -64 17 -64 42 34 c33 28 53 36 104 42 58 6 62 5 62 -13 0 -18 9 -21 68 -26
63 -5 92 3 92 24 0 4 -10 9 -22 11 -39 6 -33 28 8 28 37 0 37 0 18 21 -10 12
-18 23 -16 25 1 2 0 4 -3 4 -3 0 -14 0 -25 0 -13 0 -20 -7 -20 -19 0 -32 -31
-34 -62 -4 -24 23 -28 24 -28 8 0 -15 -3 -16 -12 -7 -20 20 -46 14 -80 -18
-34 -33 -36 -34 -58 -20 -10 6 -15 28 -16 67 0 32 1 50 3 41 6 -26 40 -22 75
7 18 16 42 25 62 25 19 0 40 8 49 18 22 25 21 32 -4 32 -16 0 -20 5 -16 20 6
24 -18 28 -27 4z m-96 -66 c21 -26 17 -38 -10 -38 -13 0 -17 5 -14 14 3 8 1
17 -5 21 -6 3 -11 10 -11 16 0 16 21 9 40 -13z"/>
<path d="M7076 4274 c-11 -8 -30 -14 -42 -14 -17 0 -21 -4 -17 -20 6 -24 19
-26 27 -5 3 8 15 15 26 15 11 0 23 7 27 15 8 23 1 25 -21 9z"/>
<path d="M6876 4232 c-3 -6 1 -13 10 -16 23 -9 28 -2 10 13 -8 7 -17 8 -20 3z"/>
<path d="M7500 4220 c0 -5 5 -10 10 -10 6 0 10 5 10 10 0 6 -4 10 -10 10 -5 0
-10 -4 -10 -10z"/>
<path d="M6982 4201 c-9 -10 -25 -21 -34 -24 -10 -4 -18 -15 -18 -25 0 -10 -9
-27 -20 -37 -21 -19 -28 -65 -10 -65 6 0 10 11 10 25 0 13 6 28 13 32 8 4 16
15 19 24 4 9 27 30 52 46 40 26 43 31 26 36 -13 3 -28 -2 -38 -12z"/>
<path d="M6807 4083 c-4 -3 -6 -22 -6 -42 2 -31 3 -32 6 -8 3 18 13 31 29 37
13 5 24 12 24 15 0 7 -45 6 -53 -2z"/>
<path d="M6840 3999 c0 -7 7 -17 15 -23 8 -6 16 -22 18 -35 2 -14 9 -27 15
-29 16 -5 15 1 -9 53 -20 42 -39 59 -39 34z"/>
<path d="M7110 3895 c0 -5 5 -17 10 -25 5 -8 10 -10 10 -5 0 6 -5 17 -10 25
-5 8 -10 11 -10 5z"/>
<path d="M7178 3843 c6 -2 18 -2 25 0 6 3 1 5 -13 5 -14 0 -19 -2 -12 -5z"/>
<path d="M8729 4518 c-1 -7 -1 -27 -1 -45 0 -23 -3 -30 -14 -26 -8 3 -14 1
-14 -4 0 -5 -17 -15 -37 -22 -21 -7 -50 -25 -65 -38 -16 -15 -33 -23 -42 -20
-24 9 -19 -11 5 -24 18 -9 25 -7 43 14 24 29 76 57 106 57 23 0 44 42 37 72
-3 11 0 18 10 18 8 0 13 6 11 13 -6 17 -38 21 -39 5z"/>
<path d="M8490 4470 c0 -5 7 -10 15 -10 8 0 15 5 15 10 0 6 -7 10 -15 10 -8 0
-15 -4 -15 -10z"/>
<path d="M8308 4372 c-29 -18 -42 -38 -33 -53 4 -6 72 37 104 67 13 12 -48 0
-71 -14z"/>
<path d="M8996 4374 c-4 -9 -1 -23 5 -31 19 -22 -5 -40 -26 -19 -9 9 -22 16
-30 16 -7 0 -15 5 -17 12 -3 9 -15 8 -44 -4 -31 -13 -46 -28 -78 -83 l-39 -67
18 -64 17 -64 42 34 c33 28 53 36 104 42 58 6 62 5 62 -13 0 -18 9 -21 68 -26
63 -5 92 3 92 24 0 4 -10 9 -22 11 -39 6 -33 28 8 28 37 0 37 0 18 21 -10 12
-18 23 -16 25 1 2 0 4 -3 4 -3 0 -14 0 -25 0 -13 0 -20 -7 -20 -19 0 -32 -31
-34 -62 -4 -24 23 -28 24 -28 8 0 -15 -3 -16 -12 -7 -20 20 -46 14 -80 -18
-34 -33 -36 -34 -58 -20 -10 6 -15 28 -16 67 0 32 1 50 3 41 6 -26 40 -22 75
7 18 16 42 25 62 25 19 0 40 8 49 18 22 25 21 32 -4 32 -16 0 -20 5 -16 20 6
24 -18 28 -27 4z m-96 -66 c21 -26 17 -38 -10 -38 -13 0 -17 5 -14 14 3 8 1
17 -5 21 -6 3 -11 10 -11 16 0 16 21 9 40 -13z"/>
<path d="M8456 4274 c-11 -8 -30 -14 -42 -14 -17 0 -21 -4 -17 -20 6 -24 19
-26 27 -5 3 8 15 15 26 15 11 0 23 7 27 15 8 23 1 25 -21 9z"/>
<path d="M8256 4232 c-3 -6 1 -13 10 -16 23 -9 28 -2 10 13 -8 7 -17 8 -20 3z"/>
<path d="M8880 4220 c0 -5 5 -10 10 -10 6 0 10 5 10 10 0 6 -4 10 -10 10 -5 0
-10 -4 -10 -10z"/>
<path d="M8362 4201 c-9 -10 -25 -21 -34 -24 -10 -4 -18 -15 -18 -25 0 -10 -9
-27 -20 -37 -21 -19 -28 -65 -10 -65 6 0 10 11 10 25 0 13 6 28 13 32 8 4 16
15 19 24 4 9 27 30 52 46 40 26 43 31 26 36 -13 3 -28 -2 -38 -12z"/>
<path d="M8187 4083 c-4 -3 -6 -22 -6 -42 2 -31 3 -32 6 -8 3 18 13 31 29 37
13 5 24 12 24 15 0 7 -45 6 -53 -2z"/>
<path d="M8220 3999 c0 -7 7 -17 15 -23 8 -6 16 -22 18 -35 2 -14 9 -27 15
-29 16 -5 15 1 -9 53 -20 42 -39 59 -39 34z"/>
<path d="M8490 3895 c0 -5 5 -17 10 -25 5 -8 10 -10 10 -5 0 6 -5 17 -10 25
-5 8 -10 11 -10 5z"/>
<path d="M8558 3843 c6 -2 18 -2 25 0 6 3 1 5 -13 5 -14 0 -19 -2 -12 -5z"/>
<path d="M10099 4518 c-1 -7 -1 -27 -1 -45 0 -23 -3 -30 -14 -26 -8 3 -14 1
-14 -4 0 -5 -17 -15 -37 -22 -21 -7 -50 -25 -65 -38 -16 -15 -33 -23 -42 -20
-24 9 -19 -11 5 -24 18 -9 25 -7 43 14 24 29 76 57 106 57 23 0 44 42 37 72
-3 11 0 18 10 18 8 0 13 6 11 13 -6 17 -38 21 -39 5z"/>
<path d="M9860 4470 c0 -5 7 -10 15 -10 8 0 15 5 15 10 0 6 -7 10 -15 10 -8 0
-15 -4 -15 -10z"/>
<path d="M9678 4372 c-29 -18 -42 -38 -33 -53 4 -6 72 37 104 67 13 12 -48 0
-71 -14z"/>
<path d="M10366 4374 c-4 -9 -1 -23 5 -31 19 -22 -5 -40 -26 -19 -9 9 -22 16
-30 16 -7 0 -15 5 -17 12 -3 9 -15 8 -44 -4 -31 -13 -46 -28 -78 -83 l-39 -67
18 -64 17 -64 42 34 c33 28 53 36 104 42 58 6 62 5 62 -13 0 -18 9 -21 68 -26
63 -5 92 3 92 24 0 4 -10 9 -22 11 -39 6 -33 28 8 28 37 0 37 0 18 21 -10 12
-18 23 -16 25 1 2 0 4 -3 4 -3 0 -14 0 -25 0 -13 0 -20 -7 -20 -19 0 -32 -31
-34 -62 -4 -24 23 -28 24 -28 8 0 -15 -3 -16 -12 -7 -20 20 -46 14 -80 -18
-34 -33 -36 -34 -58 -20 -10 6 -15 28 -16 67 0 32 1 50 3 41 6 -26 40 -22 75
7 18 16 42 25 62 25 19 0 40 8 49 18 22 25 21 32 -4 32 -16 0 -20 5 -16 20 6
24 -18 28 -27 4z m-96 -66 c21 -26 17 -38 -10 -38 -13 0 -17 5 -14 14 3 8 1
17 -5 21 -6 3 -11 10 -11 16 0 16 21 9 40 -13z"/>
<path d="M9826 4274 c-11 -8 -30 -14 -42 -14 -17 0 -21 -4 -17 -20 6 -24 19
-26 27 -5 3 8 15 15 26 15 11 0 23 7 27 15 8 23 1 25 -21 9z"/>
<path d="M9626 4232 c-3 -6 1 -13 10 -16 23 -9 28 -2 10 13 -8 7 -17 8 -20 3z"/>
<path d="M10250 4220 c0 -5 5 -10 10 -10 6 0 10 5 10 10 0 6 -4 10 -10 10 -5
0 -10 -4 -10 -10z"/>
<path d="M9732 4201 c-9 -10 -25 -21 -34 -24 -10 -4 -18 -15 -18 -25 0 -10 -9
-27 -20 -37 -21 -19 -28 -65 -10 -65 6 0 10 11 10 25 0 13 6 28 13 32 8 4 16
15 19 24 4 9 27 30 52 46 40 26 43 31 26 36 -13 3 -28 -2 -38 -12z"/>
<path d="M9557 4083 c-4 -3 -6 -22 -6 -42 2 -31 3 -32 6 -8 3 18 13 31 29 37
13 5 24 12 24 15 0 7 -45 6 -53 -2z"/>
<path d="M9590 3999 c0 -7 7 -17 15 -23 8 -6 16 -22 18 -35 2 -14 9 -27 15
-29 16 -5 15 1 -9 53 -20 42 -39 59 -39 34z"/>
<path d="M9860 3895 c0 -5 5 -17 10 -25 5 -8 10 -10 10 -5 0 6 -5 17 -10 25
-5 8 -10 11 -10 5z"/>
<path d="M9928 3843 c6 -2 18 -2 25 0 6 3 1 5 -13 5 -14 0 -19 -2 -12 -5z"/>
<path d="M11479 4518 c-1 -7 -1 -27 -1 -45 0 -23 -3 -30 -14 -26 -8 3 -14 1
-14 -4 0 -5 -17 -15 -37 -22 -21 -7 -50 -25 -65 -38 -16 -15 -33 -23 -42 -20
-24 9 -19 -11 5 -24 18 -9 25 -7 43 14 24 29 76 57 106 57 23 0 44 42 37 72
-3 11 0 18 10 18 8 0 13 6 11 13 -6 17 -38 21 -39 5z"/>
<path d="M11240 4470 c0 -5 7 -10 15 -10 8 0 15 5 15 10 0 6 -7 10 -15 10 -8
0 -15 -4 -15 -10z"/>
<path d="M11058 4372 c-29 -18 -42 -38 -33 -53 4 -6 72 37 104 67 13 12 -48 0
-71 -14z"/>
<path d="M11746 4374 c-4 -9 -1 -23 5 -31 19 -22 -5 -40 -26 -19 -9 9 -22 16
-30 16 -7 0 -15 5 -17 12 -3 9 -13 9 -39 -2 -48 -19 -50 -21 -88 -93 l-35 -65
19 -60 18 -61 41 34 c33 27 53 35 104 41 58 6 62 5 62 -13 0 -18 9 -21 68 -26
63 -5 92 3 92 24 0 4 -10 9 -22 11 -39 6 -33 28 8 28 37 0 37 0 18 21 -10 12
-18 23 -16 25 1 2 0 4 -3 4 -3 0 -14 0 -25 0 -13 0 -20 -7 -20 -19 0 -32 -31
-34 -62 -4 -24 23 -28 24 -28 8 0 -15 -3 -16 -12 -7 -20 20 -46 14 -80 -18
-34 -33 -36 -34 -58 -20 -10 6 -15 28 -16 67 0 32 1 50 3 41 6 -26 40 -22 75
7 18 16 42 25 62 25 19 0 40 8 49 18 22 25 21 32 -4 32 -16 0 -20 5 -16 20 6
24 -18 28 -27 4z m-96 -66 c21 -26 17 -38 -10 -38 -13 0 -17 5 -14 14 3 8 1
17 -5 21 -6 3 -11 10 -11 16 0 16 21 9 40 -13z"/>
<path d="M11206 4274 c-11 -8 -30 -14 -42 -14 -17 0 -21 -4 -17 -20 6 -24 19
-26 27 -5 3 8 15 15 26 15 11 0 23 7 27 15 8 23 1 25 -21 9z"/>
<path d="M11006 4232 c-3 -6 1 -13 10 -16 23 -9 28 -2 10 13 -8 7 -17 8 -20 3z"/>
<path d="M11630 4220 c0 -5 5 -10 10 -10 6 0 10 5 10 10 0 6 -4 10 -10 10 -5
0 -10 -4 -10 -10z"/>
<path d="M11112 4201 c-9 -10 -25 -21 -34 -24 -10 -4 -18 -15 -18 -25 0 -10
-9 -27 -20 -37 -21 -19 -28 -65 -10 -65 6 0 10 11 10 25 0 13 6 28 13 32 8 4
16 15 19 24 4 9 27 30 52 46 40 26 43 31 26 36 -13 3 -28 -2 -38 -12z"/>
<path d="M10937 4083 c-4 -3 -6 -22 -6 -42 2 -31 3 -32 6 -8 3 18 13 31 29 37
13 5 24 12 24 15 0 7 -45 6 -53 -2z"/>
<path d="M10970 3999 c0 -7 7 -17 15 -23 8 -6 16 -22 18 -35 2 -14 9 -27 15
-29 16 -5 15 1 -9 53 -20 42 -39 59 -39 34z"/>
<path d="M11240 3895 c0 -5 5 -17 10 -25 5 -8 10 -10 10 -5 0 6 -5 17 -10 25
-5 8 -10 11 -10 5z"/>
<path d="M11308 3843 c6 -2 18 -2 25 0 6 3 1 5 -13 5 -14 0 -19 -2 -12 -5z"/>
<path d="M5977 2905 c-4 -8 -1 -17 5 -21 7 -5 5 -12 -7 -21 -11 -7 -13 -13 -7
-13 7 0 12 -5 12 -11 0 -6 -7 -9 -15 -5 -8 3 -15 1 -15 -4 0 -5 -18 -15 -41
-21 -22 -7 -48 -23 -58 -35 -10 -12 -28 -24 -42 -26 l-24 -3 24 -14 c23 -13
26 -11 47 14 12 16 44 35 75 45 49 17 55 22 64 57 5 21 13 41 18 44 12 9 0 29
-18 29 -7 0 -15 -7 -18 -15z"/>
<path d="M5740 2860 c0 -5 9 -10 21 -10 11 0 17 5 14 10 -3 6 -13 10 -21 10
-8 0 -14 -4 -14 -10z"/>
<path d="M5563 2763 c-30 -15 -52 -48 -40 -59 4 -4 81 48 106 72 12 11 -38 1
-66 -13z"/>
<path d="M6246 2764 c-4 -9 -1 -23 5 -31 9 -10 9 -17 1 -25 -16 -16 -15 -28 1
-28 13 0 57 40 57 52 0 3 -8 5 -17 4 -13 -1 -18 6 -17 22 1 25 -21 30 -30 6z"/>
<path d="M6315 2770 c3 -5 8 -10 11 -10 2 0 4 5 4 10 0 6 -5 10 -11 10 -5 0
-7 -4 -4 -10z"/>
<path d="M5706 2664 c-11 -8 -30 -14 -42 -14 -12 0 -27 -7 -34 -15 -11 -13
-10 -14 2 -10 9 4 18 -1 21 -9 4 -10 1 -16 -9 -16 -19 0 -84 -49 -84 -63 0 -6
-9 -21 -21 -33 -14 -15 -19 -31 -17 -50 4 -26 5 -27 12 -9 4 11 12 27 17 35 5
8 13 25 18 37 6 12 19 24 30 28 10 3 22 12 25 20 3 8 15 15 26 15 15 0 20 7
20 25 0 18 5 25 19 25 21 0 45 24 39 39 -1 5 -12 3 -22 -5z"/>
<path d="M5500 2616 c0 -2 7 -6 15 -10 8 -3 15 -1 15 4 0 6 -7 10 -15 10 -8 0
-15 -2 -15 -4z"/>
<path d="M6130 2610 c0 -5 5 -10 10 -10 6 0 10 5 10 10 0 6 -4 10 -10 10 -5 0
-10 -4 -10 -10z"/>
<path d="M5458 2473 c-26 -4 -28 -8 -27 -46 l2 -42 6 35 c4 26 12 36 29 38 12
2 22 8 22 13 0 5 -1 8 -2 8 -2 -1 -15 -4 -30 -6z"/>
<path d="M5475 2390 c-5 -8 -2 -18 8 -25 10 -7 17 -19 17 -27 0 -8 7 -23 16
-34 14 -18 15 -18 8 6 -13 49 -40 94 -49 80z"/>
<path d="M7347 2905 c-4 -8 -1 -17 5 -21 7 -5 5 -12 -7 -21 -11 -7 -13 -13 -7
-13 7 0 12 -5 12 -11 0 -6 -7 -9 -15 -5 -8 3 -15 1 -15 -4 0 -5 -18 -15 -41
-21 -22 -7 -48 -23 -58 -35 -10 -12 -28 -24 -42 -26 l-24 -3 24 -14 c23 -13
26 -11 47 14 12 16 44 35 75 45 49 17 55 22 64 57 5 21 13 41 18 44 12 9 0 29
-18 29 -7 0 -15 -7 -18 -15z"/>
<path d="M7110 2860 c0 -5 9 -10 21 -10 11 0 17 5 14 10 -3 6 -13 10 -21 10
-8 0 -14 -4 -14 -10z"/>
<path d="M6933 2763 c-30 -15 -52 -48 -40 -59 4 -4 81 48 106 72 12 11 -38 1
-66 -13z"/>
<path d="M7616 2764 c-4 -9 -1 -23 5 -31 9 -10 9 -17 1 -25 -16 -16 -15 -28 1
-28 13 0 57 40 57 52 0 3 -8 5 -17 4 -13 -1 -18 6 -17 22 1 25 -21 30 -30 6z"/>
<path d="M7685 2770 c3 -5 8 -10 11 -10 2 0 4 5 4 10 0 6 -5 10 -11 10 -5 0
-7 -4 -4 -10z"/>
<path d="M7781 2720 c14 -31 19 -36 19 -24 0 6 -7 19 -16 30 -14 18 -14 18 -3
-6z"/>
<path d="M7076 2664 c-11 -8 -30 -14 -42 -14 -12 0 -27 -7 -34 -15 -11 -13
-10 -14 2 -10 9 4 18 -1 21 -9 4 -10 1 -16 -9 -16 -19 0 -84 -49 -84 -63 0 -6
-9 -21 -21 -33 -14 -15 -19 -31 -17 -50 4 -26 5 -27 12 -9 4 11 12 27 17 35 5
8 13 25 18 37 6 12 19 24 30 28 10 3 22 12 25 20 3 8 15 15 26 15 15 0 20 7
20 25 0 18 5 25 19 25 21 0 45 24 39 39 -1 5 -12 3 -22 -5z"/>
<path d="M6870 2616 c0 -2 7 -6 15 -10 8 -3 15 -1 15 4 0 6 -7 10 -15 10 -8 0
-15 -2 -15 -4z"/>
<path d="M7500 2610 c0 -5 5 -10 10 -10 6 0 10 5 10 10 0 6 -4 10 -10 10 -5 0
-10 -4 -10 -10z"/>
<path d="M6828 2473 c-26 -4 -28 -8 -27 -46 l2 -42 6 35 c4 26 12 36 29 38 12
2 22 8 22 13 0 5 -1 8 -2 8 -2 -1 -15 -4 -30 -6z"/>
<path d="M6845 2390 c-5 -8 -2 -18 8 -25 10 -7 17 -19 17 -27 0 -8 7 -23 16
-34 14 -18 15 -18 8 6 -13 49 -40 94 -49 80z"/>
<path d="M8727 2905 c-4 -8 -1 -17 5 -21 7 -5 5 -12 -7 -21 -11 -7 -13 -13 -7
-13 7 0 12 -5 12 -11 0 -6 -7 -9 -15 -5 -8 3 -15 1 -15 -4 0 -5 -18 -15 -41
-21 -22 -7 -48 -23 -58 -35 -10 -12 -28 -24 -42 -26 l-24 -3 24 -14 c23 -13
26 -11 47 14 12 16 44 35 75 45 49 17 55 22 64 57 5 21 13 41 18 44 12 9 0 29
-18 29 -7 0 -15 -7 -18 -15z"/>
<path d="M8490 2860 c0 -5 9 -10 21 -10 11 0 17 5 14 10 -3 6 -13 10 -21 10
-8 0 -14 -4 -14 -10z"/>
<path d="M8313 2763 c-30 -15 -52 -48 -40 -59 4 -4 81 48 106 72 12 11 -38 1
-66 -13z"/>
<path d="M8996 2764 c-4 -9 -1 -23 5 -31 9 -10 9 -17 1 -25 -16 -16 -15 -28 1
-28 13 0 57 40 57 52 0 3 -8 5 -17 4 -13 -1 -18 6 -17 22 1 25 -21 30 -30 6z"/>
<path d="M9065 2770 c3 -5 8 -10 11 -10 2 0 4 5 4 10 0 6 -5 10 -11 10 -5 0
-7 -4 -4 -10z"/>
<path d="M9161 2720 c14 -31 19 -36 19 -24 0 6 -7 19 -16 30 -14 18 -14 18 -3
-6z"/>
<path d="M8456 2664 c-11 -8 -30 -14 -42 -14 -12 0 -27 -7 -34 -15 -11 -13
-10 -14 2 -10 9 4 18 -1 21 -9 4 -10 1 -16 -9 -16 -19 0 -84 -49 -84 -63 0 -6
-9 -21 -21 -33 -14 -15 -19 -31 -17 -50 4 -26 5 -27 12 -9 4 11 12 27 17 35 5
8 13 25 18 37 6 12 19 24 30 28 10 3 22 12 25 20 3 8 15 15 26 15 15 0 20 7
20 25 0 18 5 25 19 25 21 0 45 24 39 39 -1 5 -12 3 -22 -5z"/>
<path d="M8250 2616 c0 -2 7 -6 15 -10 8 -3 15 -1 15 4 0 6 -7 10 -15 10 -8 0
-15 -2 -15 -4z"/>
<path d="M8880 2610 c0 -5 5 -10 10 -10 6 0 10 5 10 10 0 6 -4 10 -10 10 -5 0
-10 -4 -10 -10z"/>
<path d="M8208 2473 c-26 -4 -28 -8 -27 -46 l2 -42 6 35 c4 26 12 36 29 38 12
2 22 8 22 13 0 5 -1 8 -2 8 -2 -1 -15 -4 -30 -6z"/>
<path d="M8225 2390 c-5 -8 -2 -18 8 -25 10 -7 17 -19 17 -27 0 -8 7 -23 16
-34 14 -18 15 -18 8 6 -13 49 -40 94 -49 80z"/>
<path d="M10097 2905 c-4 -8 -1 -17 5 -21 7 -5 5 -12 -7 -21 -11 -7 -13 -13
-7 -13 7 0 12 -5 12 -11 0 -6 -7 -9 -15 -5 -8 3 -15 1 -15 -4 0 -5 -18 -15
-41 -21 -22 -7 -48 -23 -58 -35 -10 -12 -28 -24 -42 -26 l-24 -3 24 -14 c23
-13 26 -11 47 14 12 16 44 35 75 45 49 17 55 22 64 57 5 21 13 41 18 44 12 9
0 29 -18 29 -7 0 -15 -7 -18 -15z"/>
<path d="M9860 2860 c0 -5 9 -10 21 -10 11 0 17 5 14 10 -3 6 -13 10 -21 10
-8 0 -14 -4 -14 -10z"/>
<path d="M9683 2763 c-30 -15 -52 -48 -40 -59 4 -4 81 48 106 72 12 11 -38 1
-66 -13z"/>
<path d="M10366 2764 c-4 -9 -1 -23 5 -31 9 -10 9 -17 1 -25 -16 -16 -15 -28
1 -28 13 0 57 40 57 52 0 3 -8 5 -17 4 -13 -1 -18 6 -17 22 1 25 -21 30 -30 6z"/>
<path d="M10435 2770 c3 -5 8 -10 11 -10 2 0 4 5 4 10 0 6 -5 10 -11 10 -5 0
-7 -4 -4 -10z"/>
<path d="M10531 2720 c14 -31 19 -36 19 -24 0 6 -7 19 -16 30 -14 18 -14 18
-3 -6z"/>
<path d="M9826 2664 c-11 -8 -30 -14 -42 -14 -12 0 -27 -7 -34 -15 -11 -13
-10 -14 2 -10 9 4 18 -1 21 -9 4 -10 1 -16 -9 -16 -19 0 -84 -49 -84 -63 0 -6
-9 -21 -21 -33 -14 -15 -19 -31 -17 -50 4 -26 5 -27 12 -9 4 11 12 27 17 35 5
8 13 25 18 37 6 12 19 24 30 28 10 3 22 12 25 20 3 8 15 15 26 15 15 0 20 7
20 25 0 18 5 25 19 25 21 0 45 24 39 39 -1 5 -12 3 -22 -5z"/>
<path d="M9620 2616 c0 -2 7 -6 15 -10 8 -3 15 -1 15 4 0 6 -7 10 -15 10 -8 0
-15 -2 -15 -4z"/>
<path d="M10250 2610 c0 -5 5 -10 10 -10 6 0 10 5 10 10 0 6 -4 10 -10 10 -5
0 -10 -4 -10 -10z"/>
<path d="M9578 2473 c-26 -4 -28 -8 -27 -46 l2 -42 6 35 c4 26 12 36 29 38 12
2 22 8 22 13 0 5 -1 8 -2 8 -2 -1 -15 -4 -30 -6z"/>
<path d="M9595 2390 c-5 -8 -2 -18 8 -25 10 -7 17 -19 17 -27 0 -8 7 -23 16
-34 14 -18 15 -18 8 6 -13 49 -40 94 -49 80z"/>
<path d="M11477 2905 c-4 -8 -1 -17 5 -21 7 -5 5 -12 -7 -21 -11 -7 -13 -13
-7 -13 7 0 12 -5 12 -11 0 -6 -7 -9 -15 -5 -8 3 -15 1 -15 -4 0 -5 -18 -15
-41 -21 -22 -7 -48 -23 -58 -35 -10 -12 -28 -24 -42 -26 l-24 -3 24 -14 c23
-13 26 -11 47 14 12 16 44 35 75 45 49 17 55 22 64 57 5 21 13 41 18 44 12 9
0 29 -18 29 -7 0 -15 -7 -18 -15z"/>
<path d="M11240 2860 c0 -5 9 -10 21 -10 11 0 17 5 14 10 -3 6 -13 10 -21 10
-8 0 -14 -4 -14 -10z"/>
<path d="M11063 2763 c-30 -15 -52 -48 -40 -59 4 -4 81 48 106 72 12 11 -38 1
-66 -13z"/>
<path d="M11746 2764 c-4 -9 -1 -23 5 -31 9 -10 9 -17 1 -25 -16 -16 -15 -28
1 -28 13 0 57 40 57 52 0 3 -8 5 -17 4 -13 -1 -18 6 -17 22 1 25 -21 30 -30 6z"/>
<path d="M11815 2770 c3 -5 8 -10 11 -10 2 0 4 5 4 10 0 6 -5 10 -11 10 -5 0
-7 -4 -4 -10z"/>
<path d="M11206 2664 c-11 -8 -30 -14 -42 -14 -12 0 -27 -7 -34 -15 -11 -13
-10 -14 2 -10 9 4 18 -1 21 -9 4 -10 1 -16 -9 -16 -19 0 -84 -49 -84 -63 0 -6
-9 -21 -21 -33 -14 -15 -19 -31 -17 -50 4 -26 5 -27 12 -9 4 11 12 27 17 35 5
8 13 25 18 37 6 12 19 24 30 28 10 3 22 12 25 20 3 8 15 15 26 15 15 0 20 7
20 25 0 18 5 25 19 25 21 0 45 24 39 39 -1 5 -12 3 -22 -5z"/>
<path d="M11000 2616 c0 -2 7 -6 15 -10 8 -3 15 -1 15 4 0 6 -7 10 -15 10 -8
0 -15 -2 -15 -4z"/>
<path d="M11630 2610 c0 -5 5 -10 10 -10 6 0 10 5 10 10 0 6 -4 10 -10 10 -5
0 -10 -4 -10 -10z"/>
<path d="M10958 2473 c-26 -4 -28 -8 -27 -46 l2 -42 6 35 c4 26 12 36 29 38
12 2 22 8 22 13 0 5 -1 8 -2 8 -2 -1 -15 -4 -30 -6z"/>
<path d="M10975 2390 c-5 -8 -2 -18 8 -25 10 -7 17 -19 17 -27 0 -8 7 -23 16
-34 14 -18 15 -18 8 6 -13 49 -40 94 -49 80z"/>
<path d="M15877 2022 c-16 -18 -15 -21 19 -65 20 -26 40 -47 44 -47 4 0 14 8
24 18 15 18 15 20 -4 37 -16 14 -23 16 -32 7 -21 -21 -32 -13 -13 8 18 20 18
21 -1 41 -20 19 -21 19 -37 1z"/>
<path d="M15817 1973 c-14 -16 -14 -20 2 -39 16 -21 19 -21 39 -5 20 16 20 16
2 39 -22 27 -23 27 -43 5z"/>
<path d="M15860 1915 c-10 -12 -10 -18 1 -32 7 -10 15 -20 16 -22 2 -2 12 4
23 14 19 17 19 19 4 37 -21 22 -28 22 -44 3z"/>
<path d="M15959 1914 c-9 -11 -10 -20 -3 -32 14 -22 26 -24 48 -7 19 14 19 15
1 35 -22 24 -29 25 -46 4z"/>
<path d="M15901 1866 c-9 -11 -9 -19 1 -35 15 -25 17 -25 42 -6 19 14 19 15 1
35 -21 24 -29 25 -44 6z"/>
<path d="M16008 1866 c-23 -17 -23 -29 0 -50 18 -15 20 -15 37 4 18 20 18 21
-1 40 -16 16 -22 17 -36 6z"/>
<path d="M15865 1831 c-3 -5 6 -18 20 -29 13 -11 22 -21 20 -24 -3 -3 4 -13
15 -23 34 -31 33 -9 -2 38 -34 47 -43 53 -53 38z"/>
<path d="M15948 1813 c-15 -17 -15 -20 1 -41 l17 -23 19 21 c18 20 18 21 -1
41 -19 19 -21 19 -36 2z"/>
<path d="M16045 1810 c-18 -20 -18 -21 1 -41 l20 -20 19 21 c18 20 18 21 -1
41 l-20 20 -19 -21z"/>
<path d="M15987 1762 c-15 -16 -15 -20 -1 -40 13 -18 18 -20 34 -9 25 15 25
29 2 51 -18 15 -20 15 -35 -2z"/>
<path d="M16085 1755 c-19 -15 -19 -16 3 -37 21 -21 23 -21 39 -5 13 13 15 21
7 34 -14 23 -26 25 -49 8z"/>
<path d="M15950 1724 c0 -15 74 -93 83 -87 6 4 -1 16 -17 30 -15 12 -24 23
-20 23 4 0 -1 9 -11 20 -17 19 -35 26 -35 14z"/>
<path d="M16027 1706 c-16 -13 -16 -15 2 -37 19 -23 20 -23 38 -6 13 13 15 21
7 34 -14 23 -26 25 -47 9z"/>
<path d="M16445 1315 c-19 -15 -19 -15 1 -35 17 -18 22 -18 38 -7 15 11 17 17
7 35 -14 26 -19 26 -46 7z"/>
<path d="M16391 1266 c-10 -11 -9 -19 1 -35 15 -25 21 -26 39 -5 9 11 10 20 3
32 -15 22 -29 25 -43 8z"/>
<path d="M16486 1262 c-15 -18 -15 -20 4 -37 19 -17 22 -17 36 -3 13 12 14 20
5 37 -14 26 -23 26 -45 3z"/>
<path d="M16431 1216 c-9 -11 -10 -20 -1 -35 13 -25 23 -26 41 -5 9 11 10 20
3 32 -15 22 -29 25 -43 8z"/>
<path d="M16527 1212 c-14 -16 -14 -19 2 -40 17 -23 17 -23 35 -4 15 17 15 23
4 41 -16 26 -20 26 -41 3z"/>
<path d="M16400 1178 c0 -19 26 -42 34 -30 3 5 -3 17 -14 27 -17 15 -20 16
-20 3z"/>
<path d="M16471 1166 c-9 -11 -10 -20 -1 -35 13 -25 23 -26 41 -5 9 11 10 20
3 32 -15 22 -29 25 -43 8z"/>
<path d="M16567 1162 c-14 -16 -14 -19 2 -40 17 -23 17 -23 35 -4 15 17 15 23
4 41 -16 26 -20 26 -41 3z"/>
<path d="M15874 1146 c-10 -8 -15 -18 -11 -22 4 -4 17 2 30 14 24 25 12 30
-19 8z"/>
<path d="M16436 1132 c-3 -6 5 -19 19 -31 15 -11 26 -23 27 -28 0 -4 14 -27
31 -51 20 -28 34 -39 41 -32 11 11 -21 53 -35 44 -5 -3 -7 1 -4 8 6 17 -70
105 -79 90z"/>
<path d="M16518 1119 c-22 -12 -23 -32 -3 -49 12 -10 19 -10 27 -2 21 21 32
13 13 -8 -18 -19 -18 -22 -2 -38 15 -14 20 -15 40 -3 22 14 22 14 3 -8 -18
-20 -19 -22 -1 -41 17 -19 20 -19 36 -4 19 17 16 23 -86 151 -7 9 -15 9 -27 2z"/>
<path d="M16607 1109 c-16 -9 -15 -14 15 -55 41 -57 41 -58 68 -36 l22 17 -21
19 c-17 15 -24 17 -33 8 -7 -7 -17 -12 -22 -12 -6 0 -2 7 9 16 15 11 17 18 9
31 -14 22 -25 25 -47 12z"/>
<path d="M16692 1008 c-16 -16 -15 -33 4 -48 22 -19 54 12 38 37 -14 22 -27
26 -42 11z"/>
<path d="M16630 955 c-10 -13 -9 -19 5 -35 17 -19 19 -19 37 -3 17 15 17 17 2
35 -21 22 -28 22 -44 3z"/>
<path d="M6657 1295 c-4 -8 -1 -17 5 -21 7 -5 5 -12 -7 -21 -11 -7 -13 -13 -7
-13 7 0 12 -5 12 -11 0 -6 -7 -9 -15 -5 -8 3 -15 1 -15 -4 0 -5 -18 -15 -41
-21 -22 -7 -48 -23 -58 -35 -10 -12 -28 -24 -42 -26 l-24 -3 24 -14 c23 -13
26 -11 47 14 12 16 44 35 75 45 49 17 55 22 64 57 5 21 13 41 18 44 12 9 0 29
-18 29 -7 0 -15 -7 -18 -15z"/>
<path d="M6420 1250 c0 -5 9 -10 21 -10 11 0 17 5 14 10 -3 6 -13 10 -21 10
-8 0 -14 -4 -14 -10z"/>
<path d="M6243 1153 c-30 -15 -52 -48 -40 -59 4 -4 81 48 106 72 12 11 -38 1
-66 -13z"/>
<path d="M6926 1154 c-4 -9 -1 -23 5 -31 9 -10 9 -17 1 -25 -16 -16 -15 -28 1
-28 13 0 57 40 57 52 0 3 -8 5 -17 4 -13 -1 -18 6 -17 22 1 25 -21 30 -30 6z"/>
<path d="M6995 1160 c3 -5 8 -10 11 -10 2 0 4 5 4 10 0 6 -5 10 -11 10 -5 0
-7 -4 -4 -10z"/>
<path d="M6386 1054 c-11 -8 -30 -14 -42 -14 -12 0 -27 -7 -34 -15 -11 -13
-10 -14 2 -10 9 4 18 -1 21 -9 4 -10 1 -16 -9 -16 -19 0 -84 -49 -84 -63 0 -6
-9 -21 -21 -33 -14 -15 -19 -31 -17 -50 4 -26 5 -27 12 -9 4 11 12 27 17 35 5
8 13 25 18 37 6 12 19 24 30 28 10 3 22 12 25 20 3 8 15 15 26 15 15 0 20 7
20 25 0 18 5 25 19 25 21 0 45 24 39 39 -1 5 -12 3 -22 -5z"/>
<path d="M6180 1006 c0 -2 7 -6 15 -10 8 -3 15 -1 15 4 0 6 -7 10 -15 10 -8 0
-15 -2 -15 -4z"/>
<path d="M6810 1000 c0 -5 5 -10 10 -10 6 0 10 5 10 10 0 6 -4 10 -10 10 -5 0
-10 -4 -10 -10z"/>
<path d="M6138 863 c-26 -4 -28 -8 -27 -46 l2 -42 6 35 c4 26 12 36 29 38 12
2 22 8 22 13 0 5 -1 8 -2 8 -2 -1 -15 -4 -30 -6z"/>
<path d="M6155 780 c-5 -8 -2 -18 8 -25 10 -7 17 -19 17 -27 0 -8 7 -23 16
-34 14 -18 15 -18 8 6 -13 49 -40 94 -49 80z"/>
<path d="M8037 1295 c-4 -8 -1 -17 5 -21 7 -5 5 -12 -7 -21 -11 -7 -13 -13 -7
-13 7 0 12 -5 12 -11 0 -6 -7 -9 -15 -5 -8 3 -15 1 -15 -4 0 -5 -18 -15 -41
-21 -22 -7 -48 -23 -58 -35 -10 -12 -28 -24 -42 -26 l-24 -3 24 -14 c23 -13
26 -11 47 14 12 16 44 35 75 45 49 17 55 22 64 57 5 21 13 41 18 44 12 9 0 29
-18 29 -7 0 -15 -7 -18 -15z"/>
<path d="M7800 1250 c0 -5 9 -10 21 -10 11 0 17 5 14 10 -3 6 -13 10 -21 10
-8 0 -14 -4 -14 -10z"/>
<path d="M7623 1153 c-30 -15 -52 -48 -40 -59 4 -4 81 48 106 72 12 11 -38 1
-66 -13z"/>
<path d="M8306 1154 c-4 -9 -1 -23 5 -31 9 -10 9 -17 1 -25 -16 -16 -15 -28 1
-28 13 0 57 40 57 52 0 3 -8 5 -17 4 -13 -1 -18 6 -17 22 1 25 -21 30 -30 6z"/>
<path d="M8375 1160 c3 -5 8 -10 11 -10 2 0 4 5 4 10 0 6 -5 10 -11 10 -5 0
-7 -4 -4 -10z"/>
<path d="M7766 1054 c-11 -8 -30 -14 -42 -14 -12 0 -27 -7 -34 -15 -11 -13
-10 -14 2 -10 9 4 18 -1 21 -9 4 -10 1 -16 -9 -16 -19 0 -84 -49 -84 -63 0 -6
-9 -21 -21 -33 -14 -15 -19 -31 -17 -50 4 -26 5 -27 12 -9 4 11 12 27 17 35 5
8 13 25 18 37 6 12 19 24 30 28 10 3 22 12 25 20 3 8 15 15 26 15 15 0 20 7
20 25 0 18 5 25 19 25 21 0 45 24 39 39 -1 5 -12 3 -22 -5z"/>
<path d="M7560 1006 c0 -2 7 -6 15 -10 8 -3 15 -1 15 4 0 6 -7 10 -15 10 -8 0
-15 -2 -15 -4z"/>
<path d="M8190 1000 c0 -5 5 -10 10 -10 6 0 10 5 10 10 0 6 -4 10 -10 10 -5 0
-10 -4 -10 -10z"/>
<path d="M7518 863 c-26 -4 -28 -8 -27 -46 l2 -42 6 35 c4 26 12 36 29 38 12
2 22 8 22 13 0 5 -1 8 -2 8 -2 -1 -15 -4 -30 -6z"/>
<path d="M7535 780 c-5 -8 -2 -18 8 -25 10 -7 17 -19 17 -27 0 -8 7 -23 16
-34 14 -18 15 -18 8 6 -13 49 -40 94 -49 80z"/>
<path d="M9407 1295 c-4 -8 -1 -17 5 -21 7 -5 5 -12 -7 -21 -11 -7 -13 -13 -7
-13 7 0 12 -5 12 -11 0 -6 -7 -9 -15 -5 -8 3 -15 1 -15 -4 0 -5 -18 -15 -41
-21 -22 -7 -48 -23 -58 -35 -10 -12 -28 -24 -42 -26 l-24 -3 24 -14 c23 -13
26 -11 47 14 12 16 44 35 75 45 49 17 55 22 64 57 5 21 13 41 18 44 12 9 0 29
-18 29 -7 0 -15 -7 -18 -15z"/>
<path d="M9170 1250 c0 -5 9 -10 21 -10 11 0 17 5 14 10 -3 6 -13 10 -21 10
-8 0 -14 -4 -14 -10z"/>
<path d="M8993 1153 c-30 -15 -52 -48 -40 -59 4 -4 81 48 106 72 12 11 -38 1
-66 -13z"/>
<path d="M9676 1154 c-4 -9 -1 -23 5 -31 9 -10 9 -17 1 -25 -16 -16 -15 -28 1
-28 13 0 57 40 57 52 0 3 -8 5 -17 4 -13 -1 -18 6 -17 22 1 25 -21 30 -30 6z"/>
<path d="M9745 1160 c3 -5 8 -10 11 -10 2 0 4 5 4 10 0 6 -5 10 -11 10 -5 0
-7 -4 -4 -10z"/>
<path d="M9136 1054 c-11 -8 -30 -14 -42 -14 -12 0 -27 -7 -34 -15 -11 -13
-10 -14 2 -10 9 4 18 -1 21 -9 4 -10 1 -16 -9 -16 -19 0 -84 -49 -84 -63 0 -6
-9 -21 -21 -33 -14 -15 -19 -31 -17 -50 4 -26 5 -27 12 -9 4 11 12 27 17 35 5
8 13 25 18 37 6 12 19 24 30 28 10 3 22 12 25 20 3 8 15 15 26 15 15 0 20 7
20 25 0 18 5 25 19 25 21 0 45 24 39 39 -1 5 -12 3 -22 -5z"/>
<path d="M8930 1006 c0 -2 7 -6 15 -10 8 -3 15 -1 15 4 0 6 -7 10 -15 10 -8 0
-15 -2 -15 -4z"/>
<path d="M9560 1000 c0 -5 5 -10 10 -10 6 0 10 5 10 10 0 6 -4 10 -10 10 -5 0
-10 -4 -10 -10z"/>
<path d="M8888 863 c-26 -4 -28 -8 -27 -46 l2 -42 6 35 c4 26 12 36 29 38 12
2 22 8 22 13 0 5 -1 8 -2 8 -2 -1 -15 -4 -30 -6z"/>
<path d="M8905 780 c-5 -8 -2 -18 8 -25 10 -7 17 -19 17 -27 0 -8 7 -23 16
-34 14 -18 15 -18 8 6 -13 49 -40 94 -49 80z"/>
<path d="M10776 1285 c-3 -8 -3 -22 0 -30 4 -8 1 -15 -6 -15 -9 0 -9 -4 1 -17
12 -15 12 -16 -3 -11 -9 4 -18 1 -21 -6 -3 -7 -23 -18 -45 -24 -22 -7 -47 -23
-56 -38 -13 -19 -22 -23 -39 -18 -19 6 -20 5 -8 -10 20 -24 34 -20 75 19 25
23 47 35 65 35 35 0 54 21 55 60 1 16 7 32 13 34 16 6 5 36 -12 36 -7 0 -15
-7 -19 -15z"/>
<path d="M10545 1240 c-3 -5 3 -10 15 -10 12 0 18 5 15 10 -3 6 -10 10 -15 10
-5 0 -12 -4 -15 -10z"/>
<path d="M10386 1148 c-32 -18 -56 -42 -56 -55 0 -7 2 -13 5 -13 4 0 90 63
104 76 10 9 -36 3 -53 -8z"/>
<path d="M10512 1044 c-7 -8 -24 -14 -37 -14 -13 0 -27 -4 -30 -10 -3 -5 -1
-10 5 -10 6 0 8 -4 5 -10 -3 -5 -1 -10 4 -10 6 0 11 5 11 10 0 6 8 10 18 10
27 0 59 27 47 38 -7 7 -14 5 -23 -4z"/>
<path d="M10310 996 c0 -2 7 -7 16 -10 8 -3 12 -2 9 4 -6 10 -25 14 -25 6z"/>
<path d="M10413 966 c-4 -7 -18 -18 -30 -25 -13 -6 -23 -20 -23 -30 0 -10 -6
-24 -14 -30 -17 -14 -27 -59 -15 -67 9 -5 13 9 10 33 -1 7 8 17 19 23 11 6 20
17 20 24 0 17 63 66 85 66 9 0 13 5 10 10 -9 15 -53 12 -62 -4z"/>
<path d="M10237 818 c-2 -18 -2 -37 2 -43 3 -5 8 6 11 25 4 26 11 36 30 41 23
7 23 7 -6 8 -28 1 -32 -3 -37 -31z"/>
<path d="M10280 766 c0 -7 6 -19 14 -26 8 -6 16 -21 18 -32 2 -12 8 -23 14
-25 8 -3 8 6 0 32 -6 19 -14 35 -18 35 -5 0 -8 7 -8 15 0 8 -4 15 -10 15 -5 0
-10 -6 -10 -14z"/>
<path d="M10541 665 c1 -19 18 -51 18 -35 0 8 -4 22 -9 30 -5 8 -9 11 -9 5z"/>
<path d="M0 4570 l0 -175 20 25 c23 28 50 111 50 150 0 39 -27 122 -50 150
l-20 25 0 -175z"/>
<path d="M85 260 c-3 -6 5 -10 19 -10 14 0 28 5 31 10 3 6 -5 10 -19 10 -14 0
-28 -4 -31 -10z"/>
<path d="M0 226 c0 -10 9 -16 21 -16 24 0 21 23 -4 28 -10 2 -17 -3 -17 -12z"/>
<path d="M81 198 c-28 -65 -33 -88 -22 -88 5 0 13 5 16 10 9 14 62 13 67 -1 2
-7 9 -10 15 -8 13 5 -34 129 -48 129 -6 0 -18 -19 -28 -42z m39 -28 c0 -11 -7
-20 -15 -20 -17 0 -18 2 -9 24 9 23 24 20 24 -4z"/>
<path d="M200 220 c-40 -40 -11 -110 45 -110 56 0 85 70 45 110 -11 11 -31 20
-45 20 -14 0 -34 -9 -45 -20z m81 -31 c14 -27 -23 -64 -50 -50 -28 16 -33 39
-11 61 22 22 45 17 61 -11z"/>
<path d="M339 224 c-13 -16 -12 -17 14 -10 20 5 27 3 27 -9 0 -8 -4 -15 -10
-15 -5 0 -10 -9 -10 -20 0 -27 11 -25 34 7 14 19 16 30 9 42 -14 23 -47 25
-64 5z"/>
<path d="M0 124 c0 -9 7 -14 17 -12 25 5 28 28 4 28 -12 0 -21 -6 -21 -16z"/>
<path d="M357 134 c-8 -8 1 -24 14 -24 5 0 9 7 9 15 0 15 -12 20 -23 9z"/>
<path d="M0 79 c0 -5 5 -7 10 -4 5 3 10 8 10 11 0 2 -4 4 -10 4 -5 0 -10 -5
-10 -11z"/>
</g>
</svg>
