<?xml version="1.0" standalone="no"?>
<!DOCTYPE svg PUBLIC "-//W3C//DTD SVG 20010904//EN"
 "http://www.w3.org/TR/2001/REC-SVG-20010904/DTD/svg10.dtd">
<svg version="1.0" xmlns="http://www.w3.org/2000/svg"
 width="1772.000000pt" height="921.000000pt" viewBox="0 0 1772.000000 921.000000"
 preserveAspectRatio="xMidYMid meet">

<g transform="translate(0.000000,921.000000) scale(0.100000,-0.100000)"
fill="#000000" stroke="none">
<path d="M0 5072 l0 -4139 62 -50 c102 -83 308 -300 395 -416 84 -113 214
-324 254 -415 l24 -52 3510 1 c1930 1 3502 3 3493 6 -22 5 -24 23 -3 23 8 0
15 7 15 15 0 8 -4 15 -10 15 -5 0 -10 5 -10 10 0 6 7 10 15 10 8 0 15 9 15 20
0 14 7 20 21 20 16 0 20 -5 16 -20 -3 -11 -1 -18 4 -14 5 3 9 12 9 20 0 8 9
14 20 14 14 0 18 -5 13 -16 -3 -9 0 -20 7 -24 10 -6 9 -12 -5 -27 -17 -16 -17
-18 -2 -21 22 -4 22 -19 0 -25 -14 -4 -12 -5 5 -6 19 -1 22 4 22 34 l0 36 68
-3 67 -3 6 -35 c4 -20 7 -26 8 -13 3 53 77 73 107 28 8 -13 13 -29 9 -35 -3
-5 1 -10 9 -10 20 0 20 4 1 40 -15 29 -15 30 5 30 11 0 23 -7 26 -15 8 -19 24
-19 24 0 0 9 9 15 21 15 16 0 19 -4 14 -17 -14 -35 -17 -53 -8 -53 5 0 13 15
18 32 8 26 16 34 38 36 16 2 35 -2 43 -9 17 -14 18 -46 1 -52 -7 -3 -4 -6 6
-6 15 -1 18 6 16 31 -3 56 0 68 20 68 11 0 22 -8 24 -17 3 -10 5 -1 6 20 1 30
5 37 21 37 16 0 20 -7 20 -34 0 -30 3 -35 28 -38 23 -3 28 -8 30 -38 l4 -35
11 35 c10 27 18 36 40 38 16 2 35 -2 43 -9 17 -14 18 -46 2 -52 -8 -3 -6 -6 5
-6 11 -1 17 6 17 22 0 29 18 47 47 47 20 0 23 5 23 35 0 28 4 35 20 35 18 0
20 -7 21 -72 1 -40 4 -62 6 -48 8 40 22 50 74 50 37 0 49 4 49 15 0 8 9 15 20
15 21 0 24 -10 21 -70 l-1 -35 13 35 c9 27 18 36 40 38 16 2 35 -2 43 -9 17
-14 18 -46 2 -52 -7 -3 1250 -6 2795 -6 l2807 -1 0 265 0 265 623 0 622 0 11
23 c8 19 3 30 -35 80 -45 59 -56 64 -75 34 -15 -23 17 -58 36 -39 20 20 32 13
13 -8 -16 -17 -16 -22 -4 -38 8 -10 -4 2 -27 26 -24 27 -44 41 -48 34 -3 -6 5
-19 19 -30 30 -24 33 -48 5 -48 -14 0 -19 5 -15 15 7 17 -24 53 -38 44 -6 -4
-7 -1 -3 6 11 17 -22 51 -42 43 -14 -5 -15 -3 -5 9 16 20 -9 54 -34 45 -14 -6
-15 -4 -6 5 17 17 -12 60 -35 52 -12 -3 -13 -2 -5 4 19 13 -14 56 -36 48 -13
-5 -13 -4 -4 6 10 10 9 17 -5 33 -17 21 -17 21 4 3 27 -22 37 -11 17 20 l-16
24 -23 -22 c-13 -13 -24 -17 -24 -11 0 6 9 16 20 22 19 10 19 12 4 35 -15 23
-17 24 -42 8 l-27 -17 19 22 c18 21 18 23 1 49 l-18 28 27 -24 c24 -23 28 -23
42 -9 15 14 15 18 -1 41 -9 14 -12 28 -7 31 6 3 18 -6 27 -20 l17 -26 21 20
c20 20 20 22 4 40 -9 10 -17 23 -17 28 0 5 9 -2 19 -15 16 -21 21 -22 42 -11
23 13 23 12 7 -7 -16 -18 -16 -21 -2 -42 16 -22 17 -22 38 -4 21 18 21 18 4
-3 -16 -18 -16 -22 -2 -43 15 -21 17 -21 42 -5 27 17 27 17 10 -3 -22 -24 -23
-37 -3 -53 13 -10 19 -10 35 5 11 10 20 13 20 8 0 -6 -7 -13 -15 -17 -19 -7
-19 -30 -1 -45 11 -10 20 -10 38 0 23 12 23 12 4 -10 -18 -20 -19 -22 -1 -41
16 -18 20 -19 35 -5 9 8 20 15 24 15 5 0 -2 -9 -15 -19 -24 -19 -24 -19 -5
-40 18 -20 21 -20 45 -5 l26 17 -23 -25 -22 -25 20 -18 c19 -17 21 -17 40 0
11 10 22 16 25 13 3 -3 -6 -13 -21 -22 l-26 -18 23 -24 c12 -13 18 -24 13 -24
-5 0 -15 9 -22 20 -12 19 -14 19 -40 4 l-27 -16 22 20 c23 20 23 20 4 43 -19
23 -20 23 -40 5 l-20 -19 46 -58 c49 -63 53 -65 71 -47 7 7 12 8 12 4 0 -11
69 46 154 128 38 36 75 66 81 66 19 0 104 -79 122 -113 17 -34 21 -27 -61 -92
-16 -12 -27 -28 -25 -34 2 -6 24 7 49 29 25 21 51 39 58 40 26 0 10 -28 -34
-61 l-46 -34 711 -3 711 -2 0 -265 0 -265 40 0 40 0 0 4605 0 4605 -8860 0
-8860 0 0 -4138z m16469 3655 c8 -10 7 -19 -4 -33 -13 -18 -15 -18 -31 -2 -18
18 -13 48 9 48 8 0 20 -6 26 -13z m-12984 -202 c0 -30 -39 -27 -43 3 -3 20 0
23 20 20 15 -2 23 -10 23 -23z m13810 -120 c0 -30 -39 -27 -43 3 -3 20 0 23
20 20 15 -2 23 -10 23 -23z m-12285 -95 c0 -5 -5 -10 -11 -10 -5 0 -7 5 -4 10
3 6 8 10 11 10 2 0 4 -4 4 -10z m-450 -204 l0 -165 -91 0 c-82 0 -93 2 -114
24 -46 45 -45 108 3 152 22 20 35 24 74 21 l48 -3 0 68 0 67 40 0 40 0 0 -164z
m1400 0 l0 -165 -89 0 c-82 0 -91 2 -114 25 -35 34 -42 75 -22 117 20 43 52
60 104 55 l41 -4 0 68 0 68 40 0 40 0 0 -164z m910 -1 l0 -165 -40 0 -40 0 0
165 0 165 40 0 40 0 0 -165z m5420 1 l0 -165 -91 0 c-82 0 -93 2 -114 24 -46
45 -45 108 3 152 22 20 35 24 74 21 l48 -3 0 68 0 67 40 0 40 0 0 -164z
m-8639 144 c23 -13 25 -55 3 -64 -49 -19 -85 13 -58 52 17 25 27 27 55 12z
m7993 -3 c11 -8 17 -23 14 -38 -2 -19 -10 -25 -35 -27 -41 -4 -60 24 -37 56
17 25 33 27 58 9z m-8769 -32 c20 -19 25 -34 25 -75 0 -69 -29 -100 -95 -100
l-45 0 0 -50 0 -50 -40 0 -40 0 0 150 0 150 85 0 c78 0 88 -2 110 -25z m6616
-4 c21 -22 29 -39 29 -66 0 -69 -33 -104 -97 -105 l-43 0 0 -50 0 -50 -40 0
-40 0 0 150 0 150 81 0 c76 0 82 -2 110 -29z m-5956 -41 c0 -16 6 -26 18 -28
22 -5 23 -49 0 -54 -14 -2 -16 -15 -14 -75 l2 -73 -40 0 -41 0 0 75 c0 43 -4
75 -10 75 -5 0 -10 11 -10 25 0 14 5 25 10 25 6 0 10 14 10 31 0 29 2 30 38
27 32 -3 37 -6 37 -28z m7065 0 c0 -23 4 -30 20 -30 15 0 20 -7 20 -25 0 -18
-5 -25 -20 -25 -18 0 -20 -7 -20 -75 l0 -75 -40 0 -40 0 0 75 c0 43 -4 75 -10
75 -5 0 -10 11 -10 25 0 14 5 25 10 25 6 0 10 14 10 30 0 28 2 30 40 30 38 0
40 -2 40 -30z m4278 -14 c-2 -13 -10 -21 -23 -21 -23 0 -33 34 -14 45 20 13
40 -1 37 -24z m-11768 -33 c95 -56 47 -183 -70 -183 -47 0 -95 21 -110 49 -13
25 -13 77 0 101 25 47 126 66 180 33z m230 -14 c0 -26 -4 -29 -30 -29 -36 0
-50 -27 -50 -96 0 -44 0 -44 -35 -44 l-35 0 0 99 0 100 75 -1 75 0 0 -29z
m330 -69 l0 -100 -40 0 -40 0 0 100 0 100 40 0 40 0 0 -100z m241 70 c41 -41
41 -100 -1 -142 -26 -26 -36 -30 -75 -26 l-45 3 0 -52 0 -53 -40 0 -40 0 0
150 0 149 86 0 c82 0 88 -2 115 -29z m238 16 c28 -15 51 -53 51 -86 0 -33 -23
-71 -51 -86 -34 -17 -99 -18 -134 -2 -69 31 -71 137 -4 174 32 18 103 17 138
0z m620 -7 c21 -20 41 -59 41 -80 0 -5 -34 -9 -76 -9 -76 0 -90 -9 -51 -34 12
-8 22 -7 37 2 28 17 80 16 80 -2 0 -51 -133 -77 -179 -35 -48 45 -50 107 -4
153 34 35 117 37 152 5z m243 -46 c3 -65 4 -68 28 -68 24 0 25 3 28 68 l3 67
39 0 40 0 0 -65 c0 -103 -26 -135 -110 -135 -84 0 -110 32 -110 135 l0 65 40
0 39 0 3 -67z m316 58 c11 -7 12 -12 1 -29 -10 -16 -20 -19 -41 -15 -41 8 -34
-5 12 -23 50 -20 62 -53 33 -92 -16 -21 -30 -28 -66 -30 -26 -2 -58 3 -72 11
-26 13 -26 13 -7 36 16 21 21 22 41 11 16 -8 26 -9 33 -2 7 7 -1 15 -25 25
-55 23 -65 58 -29 100 16 18 95 24 120 8z m244 -20 c27 -24 33 -36 33 -71 0
-35 -6 -47 -33 -71 -27 -25 -41 -29 -87 -29 -46 0 -60 4 -87 29 -27 24 -33 36
-33 71 0 35 6 47 33 71 27 25 41 29 87 29 46 0 60 -4 87 -29z m609 0 c17 -17
29 -40 29 -55 0 -25 -1 -26 -70 -26 -54 0 -70 -3 -70 -14 0 -19 39 -31 53 -17
13 13 74 15 81 2 3 -5 -6 -20 -21 -35 -21 -22 -35 -26 -80 -26 -47 0 -59 4
-84 29 -23 23 -29 38 -29 71 0 33 6 48 29 71 25 25 37 29 81 29 44 0 56 -4 81
-29z m304 19 c3 -5 1 -19 -5 -30 -8 -15 -17 -19 -35 -14 -14 3 -25 2 -25 -4 0
-5 12 -13 27 -17 40 -10 53 -24 53 -56 0 -45 -31 -69 -88 -69 -63 0 -89 18
-73 49 9 17 17 20 34 15 32 -10 41 -10 47 0 3 5 -10 14 -28 20 -88 30 -61 116
37 116 28 0 53 -4 56 -10z m224 -4 c49 -26 67 -101 33 -142 -25 -31 -55 -44
-102 -44 -47 0 -77 13 -102 44 -33 40 -16 115 33 142 32 18 103 17 138 0z
m393 -15 c27 -24 33 -36 33 -71 0 -35 -6 -47 -33 -71 -27 -25 -41 -29 -87 -29
-46 0 -60 4 -87 29 -27 24 -33 36 -33 71 0 35 6 47 33 71 27 25 41 29 87 29
46 0 60 -4 87 -29z m2618 16 c14 -7 33 -29 43 -50 18 -36 18 -38 0 -74 -22
-46 -53 -63 -116 -63 -42 0 -54 5 -83 34 -24 25 -34 43 -34 66 0 23 10 42 34
66 29 29 41 34 83 34 26 0 59 -6 73 -13z m230 -18 c0 -24 -4 -29 -23 -29 -36
0 -47 -19 -47 -82 l0 -58 -40 0 -40 0 0 100 0 99 75 0 75 0 0 -30z m278 -5 c3
-30 2 -31 -40 -30 -43 1 -43 1 -43 -34 0 -35 0 -35 43 -34 42 1 43 0 40 -30
-3 -30 -5 -31 -54 -34 -45 -3 -55 1 -82 27 -36 33 -42 73 -17 121 21 40 42 50
100 47 48 -2 50 -3 53 -33z m252 -64 l0 -98 -86 -1 c-82 0 -88 2 -115 29 -23
22 -29 38 -29 70 0 32 6 48 29 70 27 27 33 29 115 29 l86 -1 0 -98z m349 73
c16 -16 32 -40 35 -55 l6 -28 -75 0 c-75 0 -88 -7 -60 -30 12 -10 21 -10 41
-1 31 14 84 15 84 1 0 -6 -11 -22 -25 -35 -20 -21 -34 -25 -80 -25 -46 0 -60
4 -80 24 -46 46 -45 109 2 152 38 36 112 34 152 -3z m291 -79 c0 -158 -22
-194 -115 -194 -67 0 -115 29 -115 71 0 15 77 10 90 -6 16 -19 25 -19 44 1 29
29 19 39 -34 36 -42 -3 -53 0 -74 21 -46 46 -46 108 -1 152 21 22 32 24 114
24 l91 0 0 -105z m210 93 c14 -7 33 -29 43 -50 18 -36 18 -38 0 -74 -22 -46
-53 -63 -116 -63 -42 0 -54 5 -83 34 -24 25 -34 43 -34 66 0 23 10 42 34 66
29 29 41 34 83 34 26 0 59 -6 73 -13z m230 -18 c0 -24 -4 -29 -23 -29 -36 0
-47 -19 -47 -82 l0 -58 -40 0 -40 0 0 100 0 99 75 0 75 0 0 -30z m100 -69 l0
-100 -40 0 -40 0 0 100 0 100 40 0 40 0 0 -100z m260 0 l0 -98 -86 -1 c-82 0
-88 2 -115 29 -17 16 -29 39 -29 54 0 13 -4 28 -10 31 -16 10 -11 45 8 51 9 3
28 12 42 19 15 9 56 14 107 13 l83 0 0 -98z m584 78 c15 -13 29 -38 32 -55 l7
-33 -77 0 c-74 0 -76 -1 -66 -20 11 -21 44 -27 55 -10 10 16 75 12 75 -4 0
-29 -50 -56 -102 -56 -41 0 -54 5 -79 29 -23 23 -29 38 -29 71 0 33 6 48 29
71 25 24 38 29 80 29 38 0 56 -6 75 -22z m324 -14 c3 -30 2 -31 -40 -30 -43 1
-43 1 -43 -34 0 -35 0 -35 43 -34 39 1 42 -1 42 -27 0 -31 -15 -39 -72 -39
-90 0 -132 107 -68 171 26 27 35 30 82 27 51 -3 53 -4 56 -34z m224 7 c27 -24
33 -36 33 -71 0 -35 -6 -47 -33 -71 -27 -25 -41 -29 -87 -29 -46 0 -60 4 -87
29 -27 24 -33 36 -33 71 0 35 6 47 33 71 27 25 41 29 87 29 46 0 60 -4 87 -29z
m248 11 c18 -14 22 -31 26 -100 l5 -82 -40 0 -40 0 -3 68 c-3 64 -4 67 -28 67
-24 0 -25 -3 -28 -67 l-3 -68 -39 0 -40 0 0 100 0 99 85 0 c64 0 89 -4 105
-17z m199 9 c10 -7 11 -13 2 -29 -9 -17 -17 -20 -43 -15 -39 8 -31 -12 9 -22
39 -9 53 -23 53 -53 0 -43 -36 -72 -90 -72 -61 0 -87 18 -70 49 8 16 17 20 28
16 40 -17 52 -17 52 -1 0 9 -8 16 -18 16 -54 0 -80 62 -42 100 21 21 92 28
119 11z m121 -45 c0 -70 7 -86 36 -86 23 0 24 3 24 70 l0 70 40 0 40 0 0 -75
c0 -67 -3 -79 -25 -100 -33 -33 -119 -36 -159 -4 -24 19 -26 26 -26 100 l0 79
35 0 35 0 0 -54z m347 43 c8 -7 18 -7 32 0 37 20 88 13 110 -15 17 -22 21 -41
21 -100 l0 -74 -40 0 -40 0 0 65 c0 51 -4 67 -16 72 -24 9 -34 -15 -34 -79 l0
-58 -35 0 -35 0 0 48 c0 65 -9 92 -30 92 -23 0 -30 -20 -30 -86 l0 -54 -35 0
-35 0 0 99 0 100 77 0 c43 0 83 -5 90 -10z m383 -6 c95 -56 47 -183 -70 -183
-47 0 -95 21 -110 49 -13 25 -13 77 0 101 25 47 126 66 180 33z m2723 -240
c-7 -2 -19 -2 -25 0 -7 3 -2 5 12 5 14 0 19 -2 13 -5z m-61 -13 c-12 -5 -27
-20 -32 -32 -5 -13 -9 -17 -9 -9 -1 20 29 51 48 50 10 0 8 -4 -7 -9z m-15557
-55 c0 -23 -34 -33 -45 -14 -13 20 1 40 24 37 13 -2 21 -10 21 -23z m15522
-72 c-3 -10 -5 -2 -5 17 0 19 2 27 5 18 2 -10 2 -26 0 -35z m-9600 -249 c3 -8
-2 -23 -11 -32 -16 -16 -18 -16 -31 1 -7 11 -11 25 -8 33 7 19 42 18 50 -2z
m1076 -8 c3 -8 -1 -22 -8 -33 -13 -17 -15 -17 -31 -1 -9 9 -14 24 -11 32 8 20
43 21 50 2z m-7608 -331 c0 -13 -8 -21 -22 -23 -19 -3 -23 1 -23 23 0 22 4 26
23 23 14 -2 22 -10 22 -23z m11121 -67 c9 -16 9 -27 2 -35 -8 -10 -6 -13 5
-13 8 0 40 -11 71 -25 l56 -25 0 -839 0 -840 -22 -15 c-19 -13 -59 -16 -235
-16 -140 0 -221 4 -238 12 l-25 11 2 846 3 845 85 42 c47 24 89 43 93 43 23 2
-12 -23 -75 -55 l-71 -36 109 -64 c60 -35 113 -64 117 -64 9 0 194 107 211
122 5 4 -7 15 -28 23 -21 9 -41 14 -44 11 -3 -3 -11 -1 -18 4 -13 12 -44 -12
-44 -34 0 -7 -12 -18 -27 -25 -21 -10 -28 -9 -34 1 -7 10 -11 10 -21 0 -9 -9
-9 -12 1 -12 7 0 11 -5 9 -11 -2 -6 -7 -10 -12 -9 -5 1 -12 -4 -17 -11 -10
-16 -98 29 -100 51 -2 29 3 45 21 64 18 18 19 18 59 -5 23 -12 41 -26 41 -31
0 -4 5 -8 10 -8 6 0 10 7 10 16 0 8 5 12 11 9 14 -9 89 42 89 60 0 19 -20 19
-46 1 -18 -13 -25 -12 -68 14 -28 16 -44 30 -37 34 56 35 63 36 105 11 22 -13
45 -34 52 -47z m-6676 -103 l0 -125 -125 0 -125 0 0 125 0 125 125 0 125 0 0
-125z m338 93 c-3 -7 -15 -15 -28 -16 -21 -3 -22 -2 -11 12 16 19 44 21 39 4z
m-1733 -23 c157 -30 337 -119 469 -231 169 -144 274 -311 338 -539 26 -93 36
-329 18 -429 -73 -414 -367 -738 -770 -848 -75 -20 -107 -23 -270 -22 -204 0
-261 10 -415 75 -273 113 -506 377 -588 664 -42 147 -50 217 -43 341 16 289
119 519 318 710 140 134 264 207 444 259 154 45 331 52 499 20z m2845 -65 l0
-70 -40 0 c-29 0 -42 5 -50 20 -15 28 4 60 35 60 21 0 25 5 25 30 0 20 5 30
15 30 12 0 15 -14 15 -70z m-1105 4 c14 -31 25 -60 25 -65 0 -15 -28 -10 -34
6 -3 8 -15 15 -26 15 -11 0 -23 -7 -26 -15 -6 -14 -34 -22 -34 -9 0 16 54 124
61 124 5 0 20 -25 34 -56z m1005 47 c0 -5 -6 -14 -14 -20 -16 -13 -32 2 -21
19 8 12 35 13 35 1z m-220 -26 c0 -10 11 -15 35 -15 19 0 35 -4 35 -10 0 -5
-4 -10 -10 -10 -5 0 -10 -13 -10 -30 0 -23 -4 -30 -20 -30 -16 0 -20 7 -22 38
l-1 37 -4 -37 c-3 -30 -9 -38 -24 -38 -16 0 -19 7 -19 55 0 48 2 55 20 55 11
0 20 -7 20 -15z m5534 -20 c-6 -16 -24 -21 -24 -7 0 11 11 22 21 22 5 0 6 -7
3 -15z m-6224 -5 c0 -5 -4 -10 -10 -10 -5 0 -10 -13 -10 -30 0 -23 -4 -30 -20
-30 -17 0 -20 7 -20 40 0 38 2 40 30 40 17 0 30 -4 30 -10z m85 -30 c0 -31 -3
-35 -28 -38 -32 -4 -57 13 -57 37 0 27 22 42 55 39 27 -3 30 -6 30 -38z m115
0 c0 -40 0 -40 -40 -40 -46 0 -68 26 -50 60 8 15 21 20 50 20 40 0 40 0 40
-40z m150 26 c0 -9 -8 -12 -25 -8 -21 3 -25 0 -25 -18 0 -18 4 -21 25 -18 17
4 25 1 25 -8 0 -17 -51 -19 -68 -2 -29 29 -6 68 40 68 17 0 28 -5 28 -14z
m104 -8 c15 -25 -4 -52 -38 -56 -47 -6 -74 36 -44 66 18 18 69 11 82 -10z
m100 6 c13 -34 7 -64 -14 -64 -16 0 -20 7 -22 33 l-1 32 -4 -32 c-6 -50 -33
-43 -33 7 0 39 1 40 34 40 22 0 36 -6 40 -16z m76 6 c0 -5 -5 -10 -12 -10 -6
0 -3 -6 7 -14 26 -19 13 -48 -20 -44 -27 3 -31 24 -5 21 9 -1 7 5 -7 14 -12 8
-19 21 -16 29 6 16 53 20 53 4z m170 -20 c0 -16 5 -30 10 -30 6 0 10 14 10 30
0 21 5 30 16 30 12 0 14 -9 12 -37 -3 -36 -5 -38 -38 -38 -33 0 -35 2 -38 38
-2 28 0 37 12 37 11 0 16 -9 16 -30z m100 -10 c0 -29 -4 -40 -15 -40 -11 0
-15 11 -15 40 0 29 4 40 15 40 11 0 15 -11 15 -40z m220 0 c0 -40 0 -40 -40
-40 -46 0 -68 26 -50 60 8 15 21 20 50 20 40 0 40 0 40 -40z m8020 -30 c0 -5
-5 -10 -11 -10 -5 0 -7 5 -4 10 3 6 8 10 11 10 2 0 4 -4 4 -10z m1025 -82 l0
-52 58 -34 c62 -37 68 -52 41 -104 -24 -47 -12 -73 49 -102 108 -52 166 -42
132 24 -9 18 -14 34 -11 38 11 10 49 -34 71 -83 23 -54 71 -101 111 -111 22
-6 35 -24 17 -24 -25 0 -143 101 -143 122 0 4 -7 8 -15 8 -8 0 -15 -4 -15 -10
0 -31 -182 17 -224 60 l-21 21 23 40 c32 55 24 76 -44 123 -55 38 -56 40 -51
79 3 22 1 51 -4 66 -10 25 -9 25 8 8 13 -13 18 -33 18 -69z m-244 -44 c14 -32
19 -56 15 -79 -6 -31 -3 -36 36 -63 24 -16 68 -42 98 -57 94 -47 116 -68 145
-145 32 -84 47 -94 163 -108 61 -7 90 -16 105 -31 12 -11 44 -30 70 -41 l48
-21 -32 -59 c-17 -33 -54 -80 -81 -106 l-49 -45 -37 29 c-52 41 -88 58 -162
76 -102 26 -133 44 -188 106 -29 32 -76 72 -105 89 -108 62 -137 92 -188 198
l-47 98 26 48 c25 47 133 157 153 157 6 0 19 -21 30 -46z m-10361 -169 l0
-125 -125 0 -125 0 0 125 0 125 125 0 125 0 0 -125z m338 103 c-3 -7 -15 -15
-28 -16 -21 -3 -22 -2 -11 12 16 19 44 21 39 4z m416 -60 c-1 -24 -2 -55 -3
-70 -1 -21 -6 -28 -21 -28 -18 0 -20 7 -20 54 0 66 7 86 29 86 14 0 17 -8 15
-42z m46 -28 c0 -56 -3 -70 -15 -70 -12 0 -15 14 -15 70 0 56 3 70 15 70 12 0
15 -14 15 -70z m560 0 c0 -56 -3 -70 -15 -70 -12 0 -15 14 -15 70 0 56 3 70
15 70 12 0 15 -14 15 -70z m-1015 4 c14 -31 25 -60 25 -65 0 -15 -28 -10 -34
6 -3 8 -15 15 -26 15 -11 0 -23 -7 -26 -15 -6 -14 -34 -22 -34 -9 0 16 54 124
61 124 5 0 20 -25 34 -56z m855 21 c0 -8 5 -15 12 -15 9 0 9 -3 0 -12 -7 -7
-12 -25 -12 -40 0 -44 -27 -35 -32 10 -1 21 -2 45 0 55 4 21 32 23 32 2z
m-760 -25 c0 -5 -4 -10 -10 -10 -5 0 -10 -13 -10 -30 0 -23 -4 -30 -20 -30
-17 0 -20 7 -20 40 0 38 2 40 30 40 17 0 30 -4 30 -10z m85 -30 c0 -31 -3 -35
-28 -38 -32 -4 -57 13 -57 37 0 27 22 42 55 39 27 -3 30 -6 30 -38z m115 0 c0
-40 0 -40 -40 -40 -46 0 -68 26 -50 60 8 15 21 20 50 20 40 0 40 0 40 -40z
m265 0 c0 -33 -2 -35 -37 -38 -29 -2 -39 1 -48 17 -18 36 4 63 48 59 35 -3 37
-5 37 -38z m165 26 c7 -10 7 -22 0 -40 -8 -23 -15 -27 -42 -24 -29 3 -33 7
-36 35 -4 41 -32 34 -32 -8 0 -19 -5 -29 -15 -29 -11 0 -15 11 -15 39 l0 40
64 0 c41 0 69 -5 76 -13z m80 4 c0 -5 -5 -10 -12 -10 -6 0 -3 -6 7 -14 24 -18
13 -46 -19 -46 -27 0 -42 15 -26 25 8 5 8 11 0 20 -7 8 -9 19 -5 25 8 13 55
13 55 0z m160 -31 l0 -40 -42 3 c-36 3 -44 7 -46 26 -6 41 5 52 48 52 l40 0 0
-41z m240 -115 c0 -17 -6 -24 -20 -24 -25 0 -36 25 -20 45 16 20 40 7 40 -21z
m8637 -44 c72 -91 187 -205 266 -264 71 -52 197 -120 292 -157 l70 -28 -37
-15 c-37 -16 -39 -16 -91 13 -74 42 -130 61 -221 72 -95 12 -156 41 -248 118
-69 57 -87 88 -102 181 -4 28 4 17 38 -49 52 -97 80 -129 144 -164 45 -24 180
-67 212 -67 8 0 -22 25 -68 55 -107 72 -204 164 -274 262 -43 59 -56 85 -51
101 3 13 7 21 8 20 1 -2 29 -37 62 -78z m-14626 50 c141 -26 281 -134 344
-265 171 -354 -118 -750 -507 -695 -262 37 -451 291 -411 551 43 275 301 460
574 409z m4439 -215 l0 -125 -125 0 -125 0 0 125 0 125 125 0 125 0 0 -125z
m338 103 c-3 -7 -15 -15 -28 -16 -21 -3 -22 -2 -11 12 16 19 44 21 39 4z m462
-89 l0 -70 -36 3 c-44 4 -65 29 -48 56 6 9 21 18 33 20 16 3 21 10 21 33 0 19
5 29 15 29 12 0 15 -15 15 -71z m400 1 c0 -56 -3 -70 -15 -70 -12 0 -15 14
-15 70 0 56 3 70 15 70 12 0 15 -14 15 -70z m-855 4 c14 -31 25 -60 25 -65 0
-15 -28 -10 -34 6 -3 8 -15 15 -26 15 -11 0 -23 -7 -26 -15 -6 -14 -34 -22
-34 -9 0 16 54 124 61 124 5 0 20 -25 34 -56z m965 36 c0 -5 -9 -10 -20 -10
-11 0 -20 5 -20 10 0 6 9 10 20 10 11 0 20 -4 20 -10z m6204 -7 c4 -9 0 -23
-9 -32 -13 -14 -17 -14 -31 1 -9 9 -14 24 -11 32 8 21 43 20 51 -1z m-6264 -8
c0 -11 12 -15 49 -15 30 0 52 -5 55 -12 5 -10 7 -10 12 0 3 6 14 12 24 12 19
0 19 -1 0 -42 -10 -24 -24 -43 -30 -43 -6 0 -20 18 -30 40 l-18 40 -1 -37 c-1
-31 -5 -38 -21 -38 -16 0 -20 7 -20 36 0 21 -4 33 -10 29 -5 -3 -10 -19 -10
-36 0 -45 -27 -37 -32 9 -1 21 -2 45 0 55 4 21 32 23 32 2z m-810 -25 c0 -5
-4 -10 -10 -10 -5 0 -10 -13 -10 -30 0 -23 -4 -30 -20 -30 -17 0 -20 7 -20 40
0 38 2 40 30 40 17 0 30 -4 30 -10z m85 -30 c0 -31 -3 -35 -28 -38 -32 -4 -57
13 -57 37 0 27 22 42 55 39 27 -3 30 -6 30 -38z m115 0 c0 -40 0 -40 -40 -40
-29 0 -42 5 -50 20 -18 34 4 60 50 60 40 0 40 0 40 -40z m266 15 c9 -37 -2
-55 -34 -55 -31 0 -52 16 -52 40 0 24 21 40 52 40 21 0 29 -6 34 -25z m154 10
c0 -11 -7 -14 -25 -9 -21 5 -25 3 -25 -16 0 -19 4 -21 26 -16 19 5 25 3 22 -6
-3 -7 -19 -14 -36 -16 -38 -4 -59 26 -42 58 13 25 80 29 80 5z m52 -17 l1 -33
4 33 c6 48 35 44 31 -5 -2 -31 -7 -39 -26 -41 -32 -5 -52 15 -52 49 0 22 5 29
20 29 16 0 20 -7 22 -32z m392 10 c15 -25 -4 -52 -38 -56 -47 -6 -74 36 -44
66 18 18 69 11 82 -10z m7496 -50 c-34 -28 -64 -31 -100 -13 l-33 17 44 27 44
28 34 -20 34 -21 -23 -18z m-106 -33 l43 -25 44 25 c24 13 46 25 49 25 3 0 16
-25 29 -55 13 -31 26 -53 29 -51 11 12 42 -17 42 -39 0 -20 -5 -25 -25 -25
-20 0 -28 8 -41 40 -9 22 -21 37 -26 34 -6 -4 -6 -10 1 -17 6 -6 11 -19 11
-29 0 -9 9 -22 20 -28 12 -6 21 -22 21 -38 2 -23 2 -24 6 -4 5 27 2 27 58 0
l45 -22 0 -363 0 -363 -240 0 -240 0 0 366 0 366 60 26 60 27 0 87 c0 49 3 88
6 88 3 0 25 -11 48 -25z m-8894 -260 l0 -125 -125 0 -125 0 0 125 0 125 125 0
125 0 0 -125z m7843 85 c16 0 23 -24 29 -95 3 -26 12 -35 70 -65 l68 -35 0
-282 0 -283 -255 0 -255 0 0 275 c0 312 -6 290 90 335 44 21 50 27 50 54 0 28
8 35 83 78 70 41 84 46 93 33 6 -8 18 -15 27 -15z m-7505 8 c-3 -7 -15 -15
-28 -16 -21 -3 -22 -2 -11 12 16 19 44 21 39 4z m462 -89 l0 -70 -36 3 c-44 4
-65 29 -48 56 6 9 21 18 33 20 16 3 21 10 21 33 0 19 5 29 15 29 12 0 15 -15
15 -71z m-455 5 c14 -31 25 -60 25 -65 0 -15 -28 -10 -34 6 -3 8 -15 15 -26
15 -11 0 -23 -7 -26 -15 -6 -14 -34 -22 -34 -9 0 16 54 124 61 124 5 0 20 -25
34 -56z m967 19 c8 -31 -3 -93 -17 -93 -7 0 -15 16 -17 38 -6 46 0 72 17 72 7
0 15 -8 17 -17z m-872 -23 c0 -5 -4 -10 -10 -10 -5 0 -10 -13 -10 -30 0 -23
-4 -30 -20 -30 -17 0 -20 7 -20 40 0 38 2 40 30 40 17 0 30 -4 30 -10z m85
-30 c0 -31 -3 -35 -28 -38 -32 -4 -57 13 -57 37 0 27 22 42 55 39 27 -3 30 -6
30 -38z m115 0 c0 -40 0 -40 -40 -40 -46 0 -68 26 -50 60 8 15 21 20 50 20 40
0 40 0 40 -40z m266 15 c9 -37 -2 -55 -34 -55 -31 0 -52 16 -52 40 0 24 21 40
52 40 21 0 29 -6 34 -25z m159 -15 c0 -31 -3 -35 -27 -38 -20 -2 -28 -9 -28
-23 0 -10 -7 -19 -15 -19 -12 0 -15 13 -15 61 l0 60 43 -3 c41 -3 42 -4 42
-38z m115 0 c0 -40 0 -40 -40 -40 -29 0 -42 5 -50 20 -18 34 4 60 50 60 40 0
40 0 40 -40z m75 30 c3 -5 -2 -10 -12 -10 -17 -1 -17 -1 0 -11 9 -5 17 -19 17
-30 0 -17 -6 -20 -32 -17 -18 2 -31 8 -28 13 3 6 12 9 20 8 12 -1 11 1 -2 11
-27 20 -23 46 6 46 14 0 28 -4 31 -10z m165 -30 c0 -40 0 -40 -40 -40 -29 0
-42 5 -50 20 -18 34 4 60 50 60 40 0 40 0 40 -40z m110 -9 c0 -56 -15 -74 -57
-69 -22 2 -28 8 -29 29 -1 14 -4 31 -8 37 -4 7 -2 21 4 32 8 15 21 20 50 20
l40 0 0 -49z m98 32 c16 -31 -3 -63 -37 -63 -37 0 -57 30 -41 60 14 26 65 27
78 3z m100 -25 c2 -29 0 -38 -12 -38 -11 0 -16 9 -16 30 0 17 -4 30 -10 30 -5
0 -10 -13 -10 -30 0 -20 -5 -30 -15 -30 -11 0 -15 11 -15 41 l0 40 38 -3 c35
-3 37 -5 40 -40z m77 32 c3 -5 -2 -10 -12 -10 -17 -1 -17 -1 0 -11 9 -5 17
-19 17 -30 0 -17 -6 -20 -32 -17 -18 2 -31 8 -28 13 3 6 12 9 20 8 12 -1 11 1
-2 11 -27 20 -23 46 6 46 14 0 28 -4 31 -10z m2308 -139 c-4 -15 -8 -19 -13
-10 -5 6 -3 18 3 24 16 17 17 14 10 -14z m46 -31 c0 -12 -3 -11 -14 3 -7 11
-11 26 -8 35 6 13 8 13 14 -4 4 -10 8 -26 8 -34z m36 -20 c2 -25 43 -80 60
-80 2 0 2 16 0 35 -2 19 1 35 6 35 9 0 11 -5 12 -57 1 -18 4 -33 8 -33 13 0
18 15 9 30 -9 14 -3 40 10 40 4 0 6 -15 5 -32 -1 -18 3 -36 9 -40 8 -6 7 -11
-3 -17 -7 -5 -10 -14 -7 -20 4 -6 4 -11 -1 -11 -13 1 -43 26 -43 38 0 5 -7 13
-16 16 -8 3 -12 2 -9 -4 3 -6 -1 -10 -10 -10 -13 0 -14 4 -5 20 7 14 7 20 0
20 -5 0 -10 -4 -10 -10 0 -5 -7 -10 -15 -10 -8 0 -15 6 -15 14 0 18 -8 23 -44
30 -40 7 -71 49 -43 59 18 6 48 -4 41 -14 -3 -5 4 -9 14 -9 12 0 24 -11 32
-30 7 -17 15 -29 17 -26 2 2 -3 18 -12 36 -9 17 -13 40 -10 51 9 27 17 17 20
-21z m-135 15 c0 -8 -4 -15 -10 -15 -5 0 -7 7 -4 15 4 8 8 15 10 15 2 0 4 -7
4 -15z m172 -13 c-7 -2 -10 -8 -6 -13 3 -5 0 -9 -5 -9 -13 0 -13 3 -5 24 3 9
11 13 17 9 8 -5 7 -8 -1 -11z m658 -12 c0 -5 -5 -10 -11 -10 -5 0 -7 5 -4 10
3 6 8 10 11 10 2 0 4 -4 4 -10z m-925 -29 c-3 -12 -11 -19 -16 -16 -5 4 -3 14
3 25 15 24 22 19 13 -9z m100 -12 c-16 -4 -24 -7 -17 -8 6 0 12 -8 12 -18 0
-9 -3 -13 -7 -10 -3 4 -12 -1 -20 -11 -13 -16 -14 -15 -9 8 3 14 6 32 6 41 0
12 7 14 33 10 l32 -5 -30 -7z m1373 -2 c2 -11 -3 -15 -17 -14 -21 1 -28 17
-14 31 10 10 28 1 31 -17z m-5438 -112 l0 -125 -125 0 -125 0 0 125 0 125 125
0 125 0 0 -125z m4001 118 c0 -5 2 -17 4 -28 4 -20 4 -20 -11 -1 -8 11 -14 23
-14 28 0 10 20 11 21 1z m-3663 -15 c-3 -7 -15 -15 -28 -16 -21 -3 -22 -2 -11
12 16 19 44 21 39 4z m3772 -18 c16 0 32 -5 35 -10 4 -7 -3 -9 -22 -5 -23 5
-25 4 -10 -5 9 -6 17 -16 17 -23 0 -8 -3 -7 -9 2 -6 8 -19 12 -36 9 -20 -4
-25 -2 -21 9 3 8 6 22 7 31 0 11 2 12 6 5 2 -7 18 -13 33 -13z m-3310 -71 l0
-70 -36 3 c-44 4 -65 29 -48 56 6 9 21 18 33 20 16 3 21 10 21 33 0 19 5 29
15 29 12 0 15 -15 15 -71z m3188 55 c33 -14 35 -17 17 -24 -16 -7 -17 -9 -3
-9 9 -1 20 4 23 9 10 17 25 11 25 -10 0 -14 5 -18 17 -13 11 4 14 3 9 -6 -5
-7 -14 -10 -22 -7 -8 3 -14 1 -14 -4 0 -6 -7 -10 -15 -10 -8 0 -15 5 -15 10 0
6 7 10 15 10 8 0 15 4 15 10 0 11 -32 1 -42 -14 -8 -11 -12 14 -9 43 2 7 -2
10 -8 6 -6 -3 -11 -13 -11 -21 0 -12 -2 -12 -14 -2 -10 9 -11 15 -2 20 8 6 8
8 -1 8 -7 0 -13 5 -13 10 0 13 4 13 48 -6z m1220 -22 c4 -25 -31 -62 -58 -62
-23 0 -40 33 -32 63 10 40 84 40 90 -1z m282 -40 c0 -43 1 -44 50 -65 l50 -21
0 -123 0 -123 -245 0 -245 0 0 123 c0 123 0 124 25 135 34 16 35 15 35 -8 0
-11 5 -20 10 -20 6 0 10 13 10 29 0 21 6 32 20 36 15 5 20 15 20 45 0 21 4 41
8 44 4 2 26 -6 47 -19 80 -48 96 -56 103 -51 5 3 19 25 32 50 l23 45 28 -16
c25 -15 29 -24 29 -61z m-5145 12 c14 -31 25 -60 25 -65 0 -15 -28 -10 -34 6
-3 8 -15 15 -26 15 -11 0 -23 -7 -26 -15 -6 -14 -34 -22 -34 -9 0 16 54 124
61 124 5 0 20 -25 34 -56z m3843 26 c15 -1 14 -3 -3 -16 -18 -13 -20 -13 -26
3 -4 10 -4 22 -1 28 3 5 7 4 10 -3 2 -7 11 -12 20 -12z m-3748 -30 c0 -5 -4
-10 -10 -10 -5 0 -10 -13 -10 -30 0 -23 -4 -30 -20 -30 -17 0 -20 7 -20 40 0
38 2 40 30 40 17 0 30 -4 30 -10z m85 -30 c0 -31 -3 -35 -28 -38 -32 -4 -57
13 -57 37 0 27 22 42 55 39 27 -3 30 -6 30 -38z m115 0 c0 -40 0 -40 -40 -40
-46 0 -68 26 -50 60 8 15 21 20 50 20 40 0 40 0 40 -40z m266 15 c9 -37 -2
-55 -34 -55 -31 0 -52 16 -52 40 0 24 21 40 52 40 21 0 29 -6 34 -25z m159
-15 c0 -31 -3 -35 -27 -38 -20 -2 -28 -9 -28 -23 0 -10 -7 -19 -15 -19 -12 0
-15 13 -15 61 l0 60 43 -3 c41 -3 42 -4 42 -38z m103 23 c16 -31 -3 -63 -37
-63 -37 0 -57 30 -41 60 14 26 65 27 78 3z m77 7 c3 -5 -2 -10 -12 -10 -15 0
-14 -2 4 -15 29 -20 19 -45 -18 -45 -20 0 -29 5 -29 16 0 11 5 14 17 10 15 -6
15 -5 -1 13 -10 11 -15 25 -11 30 8 14 42 14 50 1z m105 -5 c0 -11 -7 -14 -25
-9 -21 5 -25 3 -25 -16 0 -19 4 -21 26 -16 19 5 25 3 22 -6 -3 -7 -19 -14 -36
-16 -38 -4 -59 26 -42 58 13 25 80 29 80 5z m100 -26 l0 -40 -42 3 c-36 3 -44
7 -46 26 -6 41 5 52 48 52 l40 0 0 -41z m75 31 c3 -5 -2 -10 -12 -10 -15 0
-14 -2 4 -15 29 -20 19 -45 -18 -45 -20 0 -29 5 -29 16 0 11 5 14 17 10 15 -6
15 -5 -1 13 -10 11 -15 25 -11 30 8 14 42 14 50 1z m2407 -8 c4 -11 196 -122
210 -122 13 0 186 97 210 118 33 28 38 5 38 -164 l0 -164 -250 0 -250 0 0 170
c0 161 1 170 19 170 11 0 21 -4 23 -8z m5953 -77 c0 -30 -39 -27 -43 3 -3 20
0 23 20 20 15 -2 23 -10 23 -23z m-5165 -85 c0 -5 -5 -10 -11 -10 -5 0 -7 5
-4 10 3 6 8 10 11 10 2 0 4 -4 4 -10z m-4720 -185 l0 -125 -125 0 -125 0 0
125 0 125 125 0 125 0 0 -125z m760 5 c0 -56 -3 -70 -15 -70 -8 0 -15 -6 -15
-12 0 -8 -3 -9 -8 -3 -4 6 -16 15 -27 21 -38 21 -26 74 16 74 14 0 19 7 19 30
0 20 5 30 15 30 12 0 15 -14 15 -70z m280 0 l0 -70 -40 0 c-29 0 -42 5 -50 20
-15 28 4 60 35 60 21 0 25 5 25 30 0 20 5 30 15 30 12 0 15 -14 15 -70z m520
41 c0 -23 5 -30 21 -33 12 -2 27 -11 33 -20 18 -29 -4 -53 -53 -56 -41 -3 -41
-3 -41 32 0 27 -3 34 -15 30 -9 -4 -15 -19 -15 -35 0 -19 -5 -29 -15 -29 -11
0 -15 11 -15 40 0 38 2 40 30 40 27 0 30 3 30 30 0 23 4 30 20 30 15 0 20 -7
20 -29z m-1225 -16 c0 -22 -6 -33 -22 -40 -14 -6 -23 -18 -23 -32 0 -14 -6
-23 -15 -23 -12 0 -15 14 -15 66 l0 65 38 -3 c34 -3 37 -6 37 -33z m992 18 c3
-8 -6 -10 -31 -6 -32 5 -37 3 -46 -21 -16 -44 3 -70 47 -63 24 4 33 2 30 -6
-4 -14 -40 -21 -72 -13 -31 8 -51 57 -34 88 6 12 17 26 23 31 16 11 79 4 83
-10z m-891 -58 c9 -37 -2 -55 -34 -55 -31 0 -52 16 -52 40 0 24 21 40 52 40
21 0 29 -6 34 -25z m114 -16 c0 -56 -15 -79 -49 -79 -34 0 -62 27 -42 40 9 5
10 10 2 14 -15 9 -14 39 1 54 7 7 29 12 50 12 38 0 38 0 38 -41z m100 1 c0
-39 -1 -40 -33 -40 -36 0 -57 15 -57 40 0 25 21 40 57 40 32 0 33 -1 33 -40z
m220 0 c0 -39 -1 -40 -33 -40 -36 0 -57 15 -57 40 0 25 21 40 57 40 32 0 33
-1 33 -40z m268 23 c16 -31 -3 -63 -37 -63 -37 0 -57 30 -41 60 14 26 65 27
78 3z m302 -23 c0 -40 0 -40 -40 -40 -46 0 -68 26 -50 60 8 15 21 20 50 20 40
0 40 0 40 -40z m284 18 c15 -25 -4 -52 -38 -56 -47 -6 -74 36 -44 66 18 18 69
11 82 -10z m94 -20 c2 -29 0 -38 -12 -38 -11 0 -17 10 -18 33 l-1 32 -4 -32
c-3 -25 -9 -33 -24 -33 -16 0 -19 7 -19 41 l0 40 38 -3 c35 -3 37 -5 40 -40z
m116 20 c15 -25 -4 -52 -38 -56 -47 -6 -74 36 -44 66 18 18 69 11 82 -10z
m-2409 -58 c0 -16 -6 -26 -18 -28 -19 -4 -32 20 -23 44 9 25 41 13 41 -16z
m-3997 -64 c4 -21 -14 -37 -35 -29 -14 5 -18 35 -6 47 12 12 38 1 41 -18z
m8358 9 c4 -8 12 -15 19 -15 7 0 15 -5 17 -10 5 -17 239 -18 245 -3 7 17 30
17 35 1 3 -8 19 -12 41 -10 24 2 37 -1 37 -8 0 -10 3 -10 15 0 9 7 26 9 45 5
23 -5 30 -3 28 7 -2 8 8 14 24 16 20 2 28 -2 33 -18 5 -16 10 -19 20 -10 19
16 56 9 69 -12 23 -37 -35 -76 -70 -48 -11 10 -14 10 -14 0 0 -9 -12 -11 -42
-7 -34 5 -44 2 -58 -15 -18 -22 -43 -17 -34 6 3 8 1 17 -5 21 -6 3 -11 1 -11
-4 0 -14 -57 -14 -65 -1 -4 6 -12 7 -18 3 -7 -4 -56 -8 -109 -9 l-98 -1 -1 26
-2 26 -4 -26 c-4 -25 -7 -26 -74 -27 -58 0 -71 2 -79 19 -14 25 -27 24 -35 -1
-7 -21 -35 -28 -35 -9 0 19 42 109 52 109 5 0 17 -17 26 -37 l17 -38 3 43 c3
42 17 56 28 27z m1352 -11 c1 -10 14 -24 27 -31 22 -10 25 -9 25 8 0 14 7 19
29 19 16 0 31 -6 33 -12 3 -8 19 -12 41 -10 24 2 37 -1 37 -8 0 -10 3 -10 15
0 9 7 26 9 45 5 23 -5 30 -3 28 7 -2 8 8 14 24 16 20 2 28 -2 33 -18 5 -16 10
-19 20 -10 19 16 56 9 69 -12 23 -37 -35 -76 -70 -48 -11 10 -14 10 -14 0 0
-9 -12 -11 -42 -7 -34 5 -44 2 -59 -16 l-17 -22 -12 30 c-7 17 -14 24 -17 18
-6 -16 -55 -17 -71 -1 -9 9 -12 9 -12 0 0 -7 -13 -12 -30 -12 -16 0 -30 5 -30
11 0 8 -4 8 -13 1 -7 -6 -39 -11 -72 -11 -33 0 -65 5 -72 11 -9 7 -13 7 -13
-1 0 -6 -7 -11 -15 -11 -9 0 -15 9 -15 25 0 32 -35 36 -37 4 -2 -27 -11 -35
-24 -22 -14 14 -7 105 9 111 7 2 12 -6 12 -22 0 -19 5 -26 20 -26 15 0 20 7
20 25 0 16 6 25 15 25 10 0 15 -10 15 -32 0 -25 3 -29 12 -20 7 7 27 12 45 12
29 0 33 3 33 26 0 30 23 28 28 -2z m1002 -14 c7 -16 16 -30 19 -30 4 0 15 16
24 36 20 42 37 36 37 -12 0 -32 1 -34 16 -20 18 19 45 21 62 4 9 -9 12 -4 12
26 0 40 22 48 28 10 1 -10 14 -24 27 -31 22 -10 25 -9 25 8 0 10 6 19 14 19 8
0 16 7 20 15 3 8 10 15 16 15 5 0 10 -7 10 -15 0 -8 7 -15 15 -15 9 0 15 -9
15 -22 0 -17 3 -19 12 -10 7 7 20 12 30 12 13 0 18 8 18 26 0 33 24 27 28 -7
3 -21 7 -24 45 -23 90 4 87 2 87 30 0 34 24 26 28 -9 3 -23 7 -26 32 -21 33 7
53 -18 40 -52 -8 -19 -16 -21 -152 -21 -83 -1 -148 3 -155 9 -8 7 -13 7 -13 1
0 -6 -56 -10 -140 -10 -113 0 -140 3 -145 15 -5 13 -8 12 -20 -4 -14 -18 -15
-18 -29 -1 -13 17 -15 17 -24 1 -16 -29 -30 -6 -25 43 8 83 19 92 43 33z
m1424 24 c9 -3 16 -17 16 -30 0 -28 3 -29 30 -12 16 10 24 10 40 0 12 -7 20
-8 20 -2 0 13 47 13 56 -1 4 -8 9 -8 17 0 18 18 37 12 47 -15 14 -35 -1 -52
-45 -51 -32 1 -35 4 -36 31 l-1 31 -7 -29 c-5 -27 -11 -30 -48 -33 -23 -1 -45
1 -48 6 -3 5 -17 5 -34 -2 -46 -17 -61 -5 -61 51 0 62 11 73 54 56z m1100 0
c23 -9 20 -27 -4 -21 -27 7 -25 -7 4 -26 19 -13 25 -14 29 -3 8 19 126 20 133
1 5 -11 11 -8 29 10 25 27 45 32 45 12 0 -11 16 -13 62 -11 35 1 68 -2 75 -7
7 -7 13 -6 18 1 14 22 42 10 49 -21 3 -17 4 -35 1 -40 -3 -4 -37 -7 -75 -5
-57 3 -72 1 -86 -15 -19 -21 -36 -16 -27 8 5 13 2 15 -20 9 -24 -6 -27 -4 -28
21 l-1 28 -10 -27 c-13 -36 -24 -35 -45 5 l-18 32 -3 -30 c-3 -28 -6 -30 -47
-32 -25 -1 -47 3 -50 7 -3 5 -16 5 -29 -1 -25 -12 -66 2 -66 21 0 13 23 13 37
-1 7 -7 13 -7 17 0 4 5 -5 18 -19 27 -46 30 -22 78 29 58z m1861 -269 c0 -13
-8 -21 -22 -23 -17 -3 -23 2 -23 16 0 10 3 22 7 26 13 13 38 1 38 -19z m1241
-33 c131 -67 190 -199 150 -337 -23 -77 -98 -154 -175 -180 -68 -22 -169 -17
-227 13 -215 110 -201 423 22 512 64 26 171 23 230 -8z m-5257 -141 c13 -23
-10 -47 -34 -37 -18 7 -20 42 -2 49 21 9 26 7 36 -12z m-2819 -236 c17 -20 5
-45 -20 -45 -11 0 -23 7 -26 15 -6 15 11 45 26 45 4 0 13 -7 20 -15z m5440
-25 c0 -5 -5 -10 -11 -10 -5 0 -7 5 -4 10 3 6 8 10 11 10 2 0 4 -4 4 -10z
m-8585 -150 c3 -5 1 -10 -4 -10 -6 0 -11 5 -11 10 0 6 2 10 4 10 3 0 8 -4 11
-10z m5265 -75 c47 -24 70 -66 70 -125 0 -47 -4 -56 -39 -91 -34 -34 -44 -39
-86 -39 -85 0 -142 64 -132 149 4 37 13 52 46 83 45 42 89 50 141 23z m-5425
-35 c3 -5 1 -10 -4 -10 -6 0 -11 5 -11 10 0 6 2 10 4 10 3 0 8 -4 11 -10z
m2592 -87 c14 -32 34 -77 44 -100 l18 -43 -23 0 c-15 0 -26 7 -29 20 -4 15
-14 20 -41 20 -25 0 -38 -6 -46 -20 -9 -17 -50 -29 -50 -15 0 7 94 195 98 195
2 0 15 -26 29 -57z m1223 -43 l0 -101 -57 3 c-52 3 -59 6 -71 31 -20 40 2 81
46 85 30 3 32 6 32 43 0 35 3 39 25 39 l25 0 0 -100z m670 0 l0 -100 -25 0
-25 0 0 100 0 100 25 0 25 0 0 -100z m-1245 74 c10 -10 15 -29 13 -48 -2 -24
-10 -34 -35 -46 -27 -12 -33 -21 -33 -47 0 -28 -4 -33 -25 -33 -18 0 -25 5
-25 19 0 10 -9 21 -20 24 -11 3 -20 12 -20 21 0 9 9 21 20 28 15 10 20 24 20
55 l0 43 44 0 c28 0 51 -6 61 -16z m925 1 c0 -11 -11 -15 -40 -15 -36 0 -40
-2 -40 -25 0 -22 4 -25 35 -25 24 0 35 -5 35 -15 0 -10 -11 -15 -35 -15 -31 0
-35 -3 -35 -25 0 -22 4 -25 40 -25 29 0 40 -4 40 -15 0 -12 -13 -15 -60 -15
l-60 0 0 95 0 95 60 0 c47 0 60 -3 60 -15z m433 8 c11 -10 -33 -52 -49 -46
-11 4 -10 9 3 29 15 24 33 30 46 17z m237 -17 c0 -8 -5 -18 -10 -21 -13 -8
-42 14 -34 26 9 15 44 10 44 -5z m-2070 -26 c0 -16 7 -20 35 -20 35 0 35 0 35
-46 0 -59 24 -55 28 4 3 34 7 42 23 42 16 0 19 -7 19 -41 0 -56 -14 -79 -50
-79 -47 0 -60 10 -66 51 -9 53 -24 49 -24 -6 0 -37 -3 -45 -19 -45 -15 0 -19
10 -23 56 -6 76 0 104 23 104 12 0 19 -7 19 -20z m-660 -170 l0 -170 30 0 c25
0 30 -4 30 -25 0 -21 -5 -25 -30 -25 -28 0 -30 -2 -30 -40 0 -39 -1 -40 -35
-40 -34 0 -35 1 -35 40 l0 40 -115 0 -115 0 116 163 c154 215 163 227 175 227
5 0 9 -69 9 -170z m-870 134 c67 -27 98 -106 70 -178 -5 -14 -43 -64 -85 -110
-41 -47 -75 -87 -75 -90 0 -4 38 -6 85 -6 84 0 85 0 85 -25 l0 -25 -150 0
c-82 0 -150 2 -150 5 0 2 49 59 110 125 114 126 134 163 117 213 -17 52 -81
63 -122 22 -14 -13 -25 -33 -25 -45 0 -16 -6 -20 -30 -20 -25 0 -30 4 -30 25
0 44 29 85 73 106 52 23 75 24 127 3z m357 -10 c55 -35 73 -117 40 -179 -8
-16 -48 -66 -87 -110 l-72 -80 86 -3 c84 -3 86 -3 86 -27 l0 -25 -151 0 -150
0 28 34 c15 18 62 71 104 117 42 46 84 99 93 118 30 56 -1 121 -56 121 -43 0
-65 -16 -78 -55 -10 -29 -16 -35 -41 -35 -25 0 -29 4 -29 28 0 28 22 67 50 89
41 34 131 37 177 7z m1453 -34 l0 -60 -49 0 c-40 0 -53 4 -65 22 -9 12 -16 29
-16 38 0 9 7 26 16 38 12 18 25 22 65 22 l49 0 0 -60z m326 35 l17 -26 11 23
c10 19 21 23 69 26 l57 3 0 -63 c0 -84 -15 -112 -61 -116 -35 -3 -69 16 -69
39 0 12 37 12 45 -1 9 -15 35 -12 35 4 0 9 -12 16 -32 18 -23 2 -36 10 -43 26
-12 27 -25 29 -25 3 0 -39 -81 -44 -106 -6 -28 43 0 95 52 95 25 0 38 -7 50
-25z m294 -35 l0 -60 -47 0 c-55 0 -83 21 -83 61 0 41 24 59 81 59 l49 0 0
-60z m290 0 l0 -60 -49 0 c-40 0 -53 4 -65 22 -9 12 -16 29 -16 38 0 9 7 26
16 38 12 18 25 22 65 22 l49 0 0 -60z m328 38 c2 -12 -4 -16 -30 -15 -29 2
-33 -1 -33 -23 0 -22 4 -25 33 -23 47 2 41 -31 -7 -35 -60 -6 -94 56 -54 100
22 24 86 21 91 -4z m124 5 c40 -36 10 -103 -46 -103 -37 0 -49 7 -65 37 -12
24 -1 67 21 76 27 11 72 6 90 -10z m212 -5 c21 -30 20 -54 -4 -78 -41 -41
-120 -16 -120 38 0 38 27 62 71 62 28 0 42 -6 53 -22z m156 -46 c0 -84 -16
-112 -65 -112 -24 0 -39 7 -50 23 -14 20 -14 22 0 25 9 2 22 -2 30 -8 16 -13
45 -7 45 10 0 5 -13 10 -29 10 -37 0 -61 23 -61 60 0 42 24 60 81 60 l49 0 0
-68z m60 8 c0 -53 -2 -60 -20 -60 -18 0 -20 7 -20 60 0 53 2 60 20 60 18 0 20
-7 20 -60z m120 40 c0 -16 -5 -19 -29 -14 -31 6 -46 -12 -34 -42 4 -12 14 -14
34 -10 24 5 29 2 29 -14 0 -30 -73 -28 -94 2 -34 48 -6 98 55 98 32 0 39 -3
39 -20z m140 -40 l0 -60 -47 0 c-54 0 -83 20 -83 58 0 42 27 62 82 62 l48 0 0
-60z m-5261 -179 c21 -17 50 -35 65 -42 26 -12 33 -47 8 -41 -7 1 -31 -11 -53
-28 -38 -27 -43 -28 -68 -16 -14 7 -31 11 -38 9 -6 -2 -14 0 -17 5 -4 6 -22 5
-48 -2 -30 -9 -51 -10 -75 -3 -39 12 -41 26 -8 55 14 12 25 30 25 41 0 24 60
49 124 50 39 1 55 -4 85 -28z m-343 -8 c24 -16 43 -34 44 -40 0 -7 -3 -12 -7
-11 -5 1 -21 -5 -38 -14 -19 -10 -37 -13 -50 -7 -28 11 -37 11 -30 -2 5 -7 -8
-8 -41 -4 -58 9 -77 22 -51 36 9 6 17 16 17 24 0 19 48 44 84 45 15 0 48 -12
72 -27z m5564 -8 c47 -24 70 -66 70 -125 0 -47 -4 -56 -39 -91 -34 -34 -44
-39 -86 -39 -85 0 -142 64 -132 149 4 37 13 52 46 83 45 42 89 50 141 23z
m-5806 -42 c45 -40 54 -53 36 -53 -6 0 -24 -10 -40 -22 -24 -17 -41 -21 -91
-19 -34 1 -72 7 -85 12 -27 10 -32 37 -9 45 8 4 15 14 15 25 0 27 39 49 89 49
36 0 50 -6 85 -37z m7041 2 c0 -22 -31 -33 -47 -17 -17 17 -1 44 24 40 15 -2
23 -10 23 -23z m-3762 -82 c-5 -16 -8 -50 -8 -78 0 -27 3 -62 8 -77 6 -24 4
-28 -12 -28 -29 0 -45 86 -31 157 9 42 15 53 31 53 16 0 18 -4 12 -27z m57 -8
c0 -30 3 -35 24 -35 27 0 36 -16 36 -66 0 -27 -4 -34 -20 -34 -16 0 -20 7 -20
35 0 19 -4 35 -10 35 -5 0 -10 -16 -10 -35 0 -28 -4 -35 -20 -35 -18 0 -20 7
-20 85 0 78 2 85 20 85 16 0 20 -7 20 -35z m910 -50 c0 -78 -2 -85 -20 -85
-18 0 -20 7 -20 85 0 78 2 85 20 85 18 0 20 -7 20 -85z m170 50 c0 -30 3 -35
24 -35 14 0 31 -9 40 -21 l14 -21 11 21 c9 17 21 21 56 21 l45 0 0 -50 0 -50
-45 0 c-35 0 -47 4 -56 21 l-11 21 -14 -21 c-12 -16 -26 -21 -60 -21 -39 0
-44 3 -44 22 l0 22 -16 -22 c-22 -33 -80 -31 -96 3 -8 19 -8 31 0 50 16 34 74
36 96 3 15 -21 16 -20 16 35 0 50 2 57 20 57 16 0 20 -7 20 -35z m820 1 c0
-30 3 -35 28 -38 25 -3 27 -7 30 -50 2 -37 0 -48 -12 -48 -10 0 -16 12 -18 38
-4 46 -22 45 -26 -3 -2 -22 -8 -35 -18 -35 -11 0 -14 18 -14 85 0 69 3 85 15
85 10 0 15 -10 15 -34z m241 4 c4 -14 7 -47 7 -75 0 -63 -10 -99 -28 -103 -12
-2 -15 16 -15 103 0 87 3 105 15 103 8 -2 17 -14 21 -28z m-4770 -22 c12 -18
31 -40 42 -49 13 -11 18 -23 13 -34 -3 -10 -9 -15 -13 -12 -3 3 -15 -8 -27
-26 -22 -31 -24 -32 -87 -29 -35 2 -72 8 -81 13 -19 10 -25 54 -9 64 5 3 13
20 16 37 10 42 42 67 87 68 30 0 40 -6 59 -32z m3949 17 c0 -8 -9 -15 -20 -15
-20 0 -26 11 -13 23 12 13 33 7 33 -8z m-2129 -5 c39 -21 13 -75 -33 -68 -40
5 -35 77 5 78 5 0 17 -5 28 -10z m1119 -15 c0 -17 4 -17 73 -15 l47 1 0 -50 0
-51 -45 0 c-35 0 -47 4 -56 21 -6 12 -9 30 -6 40 3 10 1 19 -4 19 -5 0 -9 -18
-9 -40 l0 -40 -53 0 c-59 0 -77 12 -77 50 0 35 17 50 57 50 23 0 33 5 33 15 0
8 9 15 20 15 11 0 20 -7 20 -15z m-148 -41 c10 -21 9 -27 -3 -35 -11 -7 -11
-9 0 -9 11 0 11 -3 1 -15 -15 -18 -61 -20 -78 -3 -7 7 -12 24 -12 38 0 34 17
50 52 50 21 0 32 -7 40 -26z m437 12 c6 -7 10 -28 8 -47 -2 -31 -5 -34 -39
-37 -29 -3 -39 1 -48 18 -7 12 -10 30 -7 40 3 13 0 16 -14 13 -14 -4 -19 -15
-19 -39 0 -24 -5 -34 -15 -34 -11 0 -15 12 -15 50 l0 49 69 0 c44 0 74 -5 80
-13z m91 -1 c0 -8 -5 -15 -11 -15 -6 0 -3 -7 5 -16 18 -18 19 -24 7 -42 -10
-17 -63 -12 -69 7 -3 10 1 12 17 8 27 -7 27 0 -1 22 -29 24 -18 51 22 51 20 0
30 -5 30 -15z m170 -48 c0 -36 -5 -68 -12 -75 -28 -28 -93 -5 -87 30 1 7 -1
25 -5 40 -13 45 8 68 59 68 l45 0 0 -63z m460 13 c0 -43 -3 -50 -20 -50 -17 0
-20 7 -20 50 0 43 3 50 20 50 17 0 20 -7 20 -50z m80 41 c0 -6 -5 -13 -10 -16
-6 -4 -4 -12 5 -21 17 -18 18 -24 6 -42 -10 -17 -63 -12 -69 7 -3 10 1 12 17
8 27 -7 27 0 -1 22 -29 24 -18 51 22 51 16 0 30 -4 30 -9z m162 -8 c35 -32 11
-83 -39 -83 -30 0 -63 26 -63 48 0 45 66 68 102 35z m60 -20 c2 -21 8 -38 13
-38 6 0 11 17 13 38 2 25 8 37 18 37 12 0 14 -11 12 -47 l-3 -48 -40 0 -40 0
-3 48 c-2 36 0 47 12 47 10 0 16 -12 18 -37z m228 -26 c0 -36 -5 -68 -12 -75
-28 -28 -93 -5 -87 30 1 7 -1 25 -5 40 -13 45 8 68 59 68 l45 0 0 -63z m230
13 l0 -50 -45 0 c-39 0 -47 4 -57 25 -8 19 -8 31 0 50 10 21 18 25 57 25 l45
0 0 -50z m5308 11 c19 -11 11 -45 -11 -49 -19 -4 -32 20 -23 43 6 17 15 19 34
6z m1860 0 c19 -11 11 -45 -11 -49 -19 -4 -32 20 -23 43 6 17 15 19 34 6z
m-12054 -343 c3 -57 8 -188 11 -293 3 -104 8 -214 11 -242 5 -51 7 -53 35 -53
16 0 29 -4 29 -10 0 -5 -13 -10 -30 -10 -28 0 -30 -3 -30 -36 0 -32 3 -36 21
-31 29 8 18 -16 -12 -25 -13 -4 -40 -10 -61 -13 -35 -5 -37 -8 -56 -73 -11
-37 -26 -91 -33 -120 -7 -29 -16 -49 -20 -45 -4 5 -24 41 -44 82 -21 41 -50
96 -66 123 -17 28 -29 63 -29 83 l0 33 68 7 c37 4 75 9 85 11 9 3 17 1 17 -5
0 -6 -18 -11 -40 -11 -30 0 -40 -4 -40 -16 0 -12 -6 -15 -26 -10 -19 5 -25 3
-22 -6 3 -7 15 -15 27 -16 13 -2 25 -12 28 -21 4 -16 10 -17 52 -8 l48 9 7 91
c3 49 6 186 6 303 0 184 2 216 18 243 14 25 15 34 5 51 -26 40 -8 108 28 110
4 0 9 -46 13 -102z m-4579 62 c0 -29 -32 -41 -41 -16 -9 24 4 48 23 44 12 -2
18 -12 18 -28z m4789 -320 l7 -196 -41 -10 -40 -11 0 191 c0 106 4 196 9 202
14 15 22 62 11 69 -5 3 -10 21 -10 39 0 25 6 36 23 43 21 10 22 8 28 -61 4
-39 10 -159 13 -266z m-1109 255 c0 -23 -34 -33 -45 -14 -13 20 1 40 24 37 13
-2 21 -10 21 -23z m1535 11 c0 -3 -4 -8 -10 -11 -5 -3 -10 -1 -10 4 0 6 5 11
10 11 6 0 10 -2 10 -4z m3400 -116 l0 -101 -57 3 c-52 3 -59 6 -71 31 -20 40
2 81 46 85 30 3 32 6 32 43 0 35 3 39 25 39 l25 0 0 -100z m350 0 l0 -100 -47
0 c-54 0 -83 20 -83 58 0 35 27 62 62 62 26 0 28 3 28 40 0 33 3 40 20 40 19
0 20 -7 20 -100z m670 61 c0 -37 2 -40 32 -43 23 -2 37 -11 48 -30 13 -25 13
-31 0 -55 -14 -25 -22 -28 -73 -31 l-57 -3 0 46 c0 38 -3 45 -20 45 -17 0 -20
-7 -20 -45 0 -41 -2 -45 -25 -45 -24 0 -25 3 -25 60 l0 60 45 0 45 0 0 40 c0
36 3 40 25 40 22 0 25 -4 25 -39z m-2248 -8 c9 -21 27 -64 42 -95 l26 -58 -24
0 c-15 0 -26 7 -29 20 -4 15 -14 20 -41 20 -25 0 -38 -6 -46 -20 -9 -17 -50
-29 -50 -15 0 14 91 185 99 185 4 0 15 -17 23 -37z m653 21 c10 -10 15 -29 13
-48 -2 -24 -10 -34 -35 -46 -27 -12 -33 -21 -33 -47 0 -28 -4 -33 -25 -33 -25
0 -25 0 -25 95 l0 95 44 0 c28 0 51 -6 61 -16z m1293 -11 c3 -23 -12 -31 -23
-13 -10 15 -46 12 -67 -7 -22 -20 -23 -70 -1 -95 17 -19 58 -24 68 -8 11 18
26 10 23 -12 -2 -19 -10 -24 -45 -26 -54 -4 -81 11 -99 55 -12 27 -13 42 -4
69 16 47 45 65 100 62 38 -3 45 -6 48 -25z m-3248 -173 l0 -170 25 0 c20 0 25
-5 25 -25 0 -20 -5 -25 -25 -25 -22 0 -25 -4 -25 -40 0 -39 -1 -40 -35 -40
-34 0 -35 1 -35 40 l0 39 -115 3 -115 3 137 193 c76 105 143 192 150 192 10 0
13 -39 13 -170z m1480 150 c0 -16 7 -20 35 -20 35 0 35 0 35 -46 0 -59 24 -55
28 4 3 34 7 42 23 42 16 0 19 -7 19 -41 0 -59 -14 -79 -55 -79 -38 0 -65 28
-65 67 0 13 -4 23 -10 23 -5 0 -10 -20 -10 -45 0 -37 -3 -45 -19 -45 -15 0
-19 10 -23 56 -6 76 0 104 23 104 12 0 19 -7 19 -20z m-1187 -22 c27 -14 57
-69 57 -103 0 -16 -9 -45 -20 -63 l-20 -33 20 -26 c30 -39 28 -122 -5 -161
-34 -40 -76 -56 -132 -49 -38 4 -54 12 -80 41 -19 21 -33 46 -33 61 0 21 5 25
29 25 23 0 31 -6 39 -28 6 -17 22 -34 41 -42 26 -11 35 -10 56 4 65 43 49 138
-25 148 -36 5 -38 35 -3 49 15 6 36 18 45 26 22 20 23 76 2 97 -35 35 -104 8
-104 -41 0 -21 -4 -24 -32 -21 -30 3 -33 6 -30 33 8 83 112 128 195 83z m467
-208 l0 -220 -35 0 -35 0 0 195 0 195 -35 0 c-33 0 -34 1 -23 25 10 23 17 25
70 25 l58 0 0 -220z m1000 150 l0 -60 -49 0 c-40 0 -53 4 -65 22 -9 12 -16 29
-16 38 0 9 7 26 16 38 12 18 25 22 65 22 l49 0 0 -60z m326 35 l17 -26 11 23
c10 19 21 23 69 26 l57 3 0 -63 c0 -82 -15 -112 -59 -116 -31 -3 -71 19 -71
40 0 11 38 10 45 -2 9 -15 35 -12 35 4 0 9 -12 16 -32 18 -23 2 -36 10 -43 26
-12 27 -25 29 -25 3 0 -39 -81 -44 -106 -6 -28 43 0 95 52 95 25 0 38 -7 50
-25z m294 -35 l0 -60 -47 0 c-54 0 -83 20 -83 58 0 42 27 62 82 62 l48 0 0
-60z m290 0 l0 -60 -49 0 c-40 0 -53 4 -65 22 -9 12 -16 29 -16 38 0 9 7 26
16 38 12 18 25 22 65 22 l49 0 0 -60z m340 39 c13 -22 11 -67 -3 -86 -15 -21
-85 -16 -97 6 -27 51 1 101 56 101 23 0 37 -6 44 -21z m390 -39 l0 -60 -54 0
c-61 0 -79 14 -79 60 0 46 18 60 79 60 l54 0 0 -60z m355 54 c25 -10 37 -51
24 -77 -16 -29 -28 -37 -63 -37 -57 0 -87 60 -49 102 16 18 57 24 88 12z m149
-10 c3 -9 6 -36 6 -60 0 -37 -3 -44 -20 -44 -17 0 -20 7 -20 45 0 33 -4 45
-15 45 -11 0 -15 -12 -15 -45 0 -38 -3 -45 -20 -45 -18 0 -20 7 -20 60 l0 60
49 0 c35 0 51 -4 55 -16z m138 -1 c40 -36 10 -103 -46 -103 -37 0 -49 7 -65
37 -12 24 -1 67 21 76 27 11 72 6 90 -10z m-935 -155 c-3 -8 -6 -5 -6 6 -1 11
2 17 5 13 3 -3 4 -12 1 -19z m5171 -82 c-2 -13 -10 -21 -23 -21 -23 0 -33 34
-14 45 20 13 40 -1 37 -24z m-7035 -33 c-5 -16 -8 -50 -8 -78 0 -27 3 -62 8
-77 6 -24 4 -28 -12 -28 -29 0 -45 86 -31 157 9 42 15 53 31 53 16 0 18 -4 12
-27z m967 -58 l0 -85 -43 0 c-49 0 -67 13 -67 50 0 32 17 50 47 50 20 0 23 5
23 35 0 28 4 35 20 35 18 0 20 -7 20 -85z m1380 0 c0 -78 -2 -85 -20 -85 -18
0 -20 7 -20 85 0 78 2 85 20 85 18 0 20 -7 20 -85z m240 0 l0 -85 -43 0 c-49
0 -67 13 -67 50 0 32 17 50 47 50 20 0 23 5 23 35 0 28 4 35 20 35 18 0 20 -7
20 -85z m1020 81 c0 -2 4 -27 10 -55 13 -71 -3 -151 -32 -151 -16 0 -18 4 -11
23 4 12 8 49 8 82 0 33 -4 70 -8 83 -7 18 -5 22 12 22 12 0 21 -2 21 -4z
m-3282 -33 c2 -8 -5 -13 -17 -13 -12 0 -21 6 -21 16 0 18 31 15 38 -3z m940
-7 c3 -15 0 -17 -14 -11 -47 19 -74 2 -74 -48 0 -32 33 -51 63 -35 22 11 32 5
24 -17 -10 -24 -76 -20 -104 7 -29 27 -30 76 -2 107 27 29 102 27 107 -3z
m152 4 c12 -12 20 -33 20 -55 0 -46 -29 -75 -76 -75 -47 0 -69 13 -83 49 -10
24 -10 34 3 59 18 35 28 40 79 41 24 1 44 -6 57 -19z m-823 -4 c-4 -13 -87
-21 -87 -8 0 16 12 21 51 20 25 0 38 -5 36 -12z m1363 -10 c0 -8 6 -17 13 -20
10 -5 10 -7 0 -12 -7 -3 -13 -23 -13 -45 0 -32 -4 -39 -19 -39 -15 0 -20 9
-23 48 -2 26 -2 55 0 65 5 20 42 23 42 3z m-1852 -28 c16 -16 15 -48 0 -48 -9
0 -8 -4 2 -10 13 -9 13 -11 0 -20 -21 -13 -64 -12 -78 2 -7 7 -12 24 -12 38 0
14 5 31 12 38 7 7 24 12 38 12 14 0 31 -5 38 -12z m162 -7 c5 -11 10 -33 10
-50 0 -24 -4 -31 -20 -31 -16 0 -20 7 -20 35 0 19 -4 35 -10 35 -5 0 -10 -16
-10 -35 0 -24 -5 -35 -15 -35 -10 0 -15 11 -15 35 0 19 -4 35 -10 35 -5 0 -10
-16 -10 -35 0 -28 -4 -35 -20 -35 -17 0 -20 7 -20 50 l0 50 65 0 c53 0 66 -3
75 -19z m60 -31 c0 -43 -3 -50 -20 -50 -17 0 -20 7 -20 50 0 43 3 50 20 50 17
0 20 -7 20 -50z m73 43 c4 -3 2 -12 -3 -18 -11 -13 10 -37 43 -48 23 -9 22 1
-5 22 -27 22 -18 51 15 51 30 0 40 -10 27 -25 -7 -9 -6 -16 5 -25 12 -10 15
-9 15 7 0 28 20 43 55 43 38 0 55 -16 55 -50 0 -14 -5 -31 -12 -38 -17 -17
-73 -15 -89 4 -11 14 -13 14 -21 0 -10 -18 -53 -22 -63 -6 -5 8 -11 7 -20 0
-18 -15 -57 -9 -63 9 -3 10 1 12 17 8 27 -7 27 0 -1 22 -27 22 -18 51 15 51
13 0 27 -3 30 -7z m305 -5 c16 -16 15 -48 0 -48 -9 0 -8 -4 2 -10 13 -9 13
-11 0 -20 -21 -13 -64 -12 -78 2 -7 7 -12 24 -12 38 0 14 5 31 12 38 7 7 24
12 38 12 14 0 31 -5 38 -12z m85 5 c4 -3 2 -12 -3 -18 -7 -9 -6 -16 5 -25 23
-19 1 -52 -32 -48 -15 2 -29 9 -31 17 -3 10 1 12 17 8 27 -7 27 0 -1 22 -27
22 -18 51 15 51 13 0 27 -3 30 -7z m275 -5 c16 -16 15 -48 0 -48 -9 0 -8 -4 2
-10 13 -9 13 -11 0 -20 -21 -13 -64 -12 -78 2 -7 7 -12 24 -12 38 0 14 5 31
12 38 7 7 24 12 38 12 14 0 31 -5 38 -12z m621 -2 c6 -7 10 -28 8 -47 -2 -31
-5 -34 -40 -37 -31 -3 -39 1 -49 22 -17 39 3 76 41 76 16 0 34 -6 40 -14z
m161 -5 c5 -11 10 -33 10 -50 0 -24 -4 -31 -20 -31 -16 0 -20 7 -20 35 0 19
-4 35 -10 35 -5 0 -10 -16 -10 -35 0 -24 -5 -35 -15 -35 -10 0 -15 11 -15 35
0 19 -4 35 -10 35 -5 0 -10 -16 -10 -35 0 -28 -4 -35 -20 -35 -17 0 -20 7 -20
50 l0 50 65 0 c53 0 66 -3 75 -19z m222 2 c35 -32 11 -83 -39 -83 -30 0 -63
26 -63 48 0 45 66 68 102 35z m116 -35 c2 -37 0 -48 -12 -48 -10 0 -16 12 -18
38 -2 20 -7 37 -13 37 -5 0 -11 -17 -13 -37 -2 -25 -8 -38 -18 -38 -10 0 -14
13 -14 51 l0 50 43 -3 42 -3 3 -47z m101 38 c6 -7 10 -28 8 -47 -2 -31 -5 -34
-40 -37 -31 -3 -39 1 -49 22 -17 39 3 76 41 76 16 0 34 -6 40 -14z m181 -36
l0 -50 -45 0 c-39 0 -47 4 -57 25 -8 19 -8 31 0 50 10 21 18 25 57 25 l45 0 0
-50z m240 0 l0 -50 -43 0 c-49 0 -67 13 -67 50 0 37 18 50 67 50 l43 0 0 -50z
m80 41 c0 -6 -5 -13 -10 -16 -6 -4 -4 -12 5 -21 17 -18 18 -24 6 -42 -10 -17
-63 -12 -69 7 -3 10 1 12 17 8 27 -7 27 0 -1 22 -29 24 -18 51 22 51 16 0 30
-4 30 -9z m164 -12 l14 -21 11 21 c16 30 74 29 95 -1 l16 -22 0 22 c0 19 5 22
41 22 28 0 39 -4 37 -12 -3 -7 -11 -13 -19 -13 -9 0 -15 -13 -17 -37 -3 -30
-7 -38 -23 -38 -13 0 -19 7 -19 22 l0 22 -16 -22 c-21 -30 -79 -31 -95 -1
l-11 21 -14 -21 c-9 -12 -26 -21 -40 -21 -19 0 -24 -5 -24 -25 0 -18 -5 -25
-20 -25 -18 0 -20 7 -20 75 l0 75 44 0 c34 0 48 -5 60 -21z m376 -29 l0 -50
-43 0 c-49 0 -67 13 -67 50 0 37 18 50 67 50 l43 0 0 -50z m100 31 c5 -11 10
-33 10 -50 0 -24 -4 -31 -20 -31 -16 0 -20 7 -20 34 0 19 -4 38 -10 41 -6 4
-10 -10 -10 -34 0 -34 -3 -41 -20 -41 -17 0 -20 7 -20 50 l0 50 40 0 c29 0 42
-5 50 -19z m122 -6 c18 -40 -3 -75 -45 -75 -40 0 -57 15 -57 50 0 35 17 50 57
50 26 0 36 -6 45 -25z m-4301 -15 c39 -21 13 -75 -33 -68 -40 5 -35 77 5 78 5
0 17 -5 28 -10z m2285 -15 c4 -17 1 -32 -10 -44 -20 -22 -20 -31 -1 -31 8 0
15 -4 15 -10 0 -5 -21 -10 -46 -10 l-46 0 31 42 c32 44 33 65 1 46 -23 -14
-33 -7 -24 16 4 10 18 16 40 16 28 0 35 -4 40 -25z m-3577 -206 c22 -102 41
-188 41 -192 0 -4 15 -7 33 -8 17 -1 43 -4 57 -8 22 -6 17 -12 -63 -69 -100
-73 -105 -75 -257 -102 -91 -16 -154 -21 -300 -20 -269 1 -328 15 -618 148
l-44 20 69 11 c37 7 76 14 85 17 13 4 17 -3 20 -28 l3 -33 79 -12 c43 -7 92
-17 108 -22 18 -7 38 -7 54 -1 20 8 37 4 85 -21 34 -17 62 -29 63 -27 9 11 48
417 43 445 -2 12 -1 22 2 21 40 -4 70 4 76 22 4 14 15 20 33 20 15 0 38 7 50
16 13 9 25 14 27 12 4 -4 60 -236 84 -353 20 -93 23 -86 42 75 26 236 21 215
52 218 19 2 27 9 27 23 0 14 7 19 28 19 16 0 37 6 48 14 10 8 22 12 25 8 4 -4
25 -91 48 -193z m3761 111 c0 -5 -4 -10 -10 -10 -5 0 -10 5 -10 10 0 6 5 10
10 10 6 0 10 -4 10 -10z m-430 -360 l0 -101 -57 3 c-52 3 -59 6 -71 31 -20 40
2 81 46 85 30 3 32 6 32 43 0 35 3 39 25 39 l25 0 0 -100z m350 0 l0 -100 -47
0 c-54 0 -83 20 -83 58 0 35 27 62 62 62 26 0 28 3 28 40 0 33 3 40 20 40 19
0 20 -7 20 -100z m670 61 c0 -37 2 -40 32 -43 23 -2 37 -11 48 -30 13 -25 13
-31 0 -55 -14 -25 -22 -28 -73 -31 l-57 -3 0 46 c0 38 -3 45 -20 45 -17 0 -20
-7 -20 -45 0 -41 -2 -45 -25 -45 -24 0 -25 3 -25 60 l0 60 45 0 45 0 0 40 c0
36 3 40 25 40 22 0 25 -4 25 -39z m-2248 -8 c9 -21 27 -64 42 -95 l26 -58 -24
0 c-15 0 -26 7 -29 20 -4 15 -14 20 -41 20 -25 0 -38 -6 -46 -20 -9 -17 -50
-29 -50 -15 0 14 91 185 99 185 4 0 15 -17 23 -37z m653 21 c10 -10 15 -29 13
-48 -2 -24 -10 -34 -35 -46 -27 -12 -33 -21 -33 -47 0 -28 -4 -33 -25 -33 -25
0 -25 0 -25 95 l0 95 44 0 c28 0 51 -6 61 -16z m1293 -11 c3 -23 -12 -31 -23
-13 -10 15 -46 12 -67 -7 -22 -20 -23 -70 -1 -95 17 -19 58 -24 68 -8 11 18
26 10 23 -12 -2 -19 -10 -24 -45 -26 -54 -4 -81 11 -99 55 -12 27 -13 42 -4
69 16 47 45 65 100 62 38 -3 45 -6 48 -25z m-1768 -23 c0 -16 7 -20 35 -20 35
0 35 0 35 -46 0 -59 24 -55 28 4 3 34 7 42 23 42 16 0 19 -7 19 -41 0 -59 -14
-79 -55 -79 -38 0 -65 28 -65 67 0 13 -4 23 -10 23 -5 0 -10 -20 -10 -45 0
-37 -3 -45 -19 -45 -15 0 -19 10 -23 56 -6 76 0 104 23 104 12 0 19 -7 19 -20z
m-1319 -10 c26 -15 24 -25 -16 -80 l-35 -47 42 -6 c45 -6 81 -28 112 -71 29
-39 29 -133 0 -173 -54 -73 -144 -94 -225 -53 -59 31 -81 72 -77 146 4 57 8
66 87 177 45 64 85 117 87 117 3 0 14 -5 25 -10z m361 -6 c17 -16 16 -19 -17
-65 -19 -27 -35 -51 -35 -53 0 -2 17 -6 38 -10 85 -14 134 -72 134 -157 0 -87
-55 -148 -140 -157 -65 -6 -114 11 -151 53 -35 40 -48 94 -34 145 10 38 161
259 177 260 5 0 18 -7 28 -16z m1238 -64 l0 -60 -49 0 c-40 0 -53 4 -65 22 -9
12 -16 29 -16 38 0 9 7 26 16 38 12 18 25 22 65 22 l49 0 0 -60z m326 35 l17
-26 11 23 c10 19 21 23 69 26 l57 3 0 -63 c0 -82 -15 -112 -59 -116 -31 -3
-71 19 -71 40 0 11 38 10 45 -2 9 -15 35 -12 35 4 0 9 -12 16 -32 18 -23 2
-36 10 -43 26 -12 27 -25 29 -25 3 0 -39 -81 -44 -106 -6 -28 43 0 95 52 95
25 0 38 -7 50 -25z m294 -35 l0 -60 -47 0 c-54 0 -83 20 -83 58 0 42 27 62 82
62 l48 0 0 -60z m290 0 l0 -60 -49 0 c-40 0 -53 4 -65 22 -9 12 -16 29 -16 38
0 9 7 26 16 38 12 18 25 22 65 22 l49 0 0 -60z m340 39 c13 -22 11 -67 -3 -86
-15 -21 -85 -16 -97 6 -27 51 1 101 56 101 23 0 37 -6 44 -21z m390 -39 l0
-60 -54 0 c-61 0 -79 14 -79 60 0 46 18 60 79 60 l54 0 0 -60z m355 54 c25
-10 37 -51 24 -77 -16 -29 -28 -37 -63 -37 -57 0 -87 60 -49 102 16 18 57 24
88 12z m149 -10 c3 -9 6 -36 6 -60 0 -37 -3 -44 -20 -44 -17 0 -20 7 -20 45 0
33 -4 45 -15 45 -11 0 -15 -12 -15 -45 0 -38 -3 -45 -20 -45 -18 0 -20 7 -20
60 l0 60 49 0 c35 0 51 -4 55 -16z m138 -1 c40 -36 10 -103 -46 -103 -37 0
-49 7 -65 37 -12 24 -1 67 21 76 27 11 72 6 90 -10z m1533 -213 c0 -16 -6 -26
-18 -28 -19 -4 -32 20 -23 44 9 25 41 13 41 -16z m-4332 -57 c-5 -16 -8 -50
-8 -78 0 -27 3 -62 8 -77 6 -24 4 -28 -12 -28 -29 0 -45 86 -31 157 9 42 15
53 31 53 16 0 18 -4 12 -27z m357 -58 l0 -85 -45 0 c-39 0 -47 4 -57 25 -17
38 3 75 42 75 28 0 30 3 30 35 0 24 5 35 15 35 12 0 15 -16 15 -85z m570 0 c0
-69 -3 -85 -15 -85 -12 0 -15 16 -15 85 0 69 3 85 15 85 12 0 15 -16 15 -85z
m180 33 c1 -41 3 -49 11 -35 7 12 23 17 54 17 l45 0 0 -50 0 -50 -45 0 c-31 0
-47 5 -54 18 -10 16 -10 16 -11 0 0 -14 -9 -18 -43 -18 -49 0 -67 13 -67 50 0
32 17 50 47 50 20 0 23 5 23 35 0 28 4 35 20 35 17 0 20 -7 20 -52z m1070 -33
l0 -85 -45 0 c-39 0 -47 3 -55 25 -15 40 3 75 40 75 28 0 30 3 30 35 0 24 5
35 15 35 12 0 15 -16 15 -85z m550 0 c0 -78 -2 -85 -20 -85 -14 0 -20 7 -20
22 l0 22 -16 -22 c-22 -33 -80 -31 -96 3 -8 19 -8 31 0 50 16 34 74 36 96 3
15 -21 16 -20 16 35 0 50 2 57 20 57 18 0 20 -7 20 -85z m560 59 c6 -14 10
-49 10 -79 0 -64 -14 -105 -35 -105 -13 0 -15 7 -8 38 4 20 8 51 8 67 0 17 -4
47 -8 68 -7 30 -5 37 8 37 8 0 20 -12 25 -26z m-3193 -10 c15 -39 -40 -69 -71
-39 -12 12 -13 21 -6 36 13 24 68 26 77 3z m63 12 c0 -18 -85 -146 -97 -146
-13 0 4 38 61 133 9 15 36 25 36 13z m1561 -17 c15 -29 -3 -69 -31 -69 -16 0
-20 -7 -20 -30 0 -23 -4 -30 -20 -30 -18 0 -20 7 -20 75 l0 75 40 0 c30 0 42
-5 51 -21z m749 11 c0 -5 -13 -10 -30 -10 -23 0 -30 -4 -30 -20 0 -16 7 -20
30 -20 17 0 30 -4 30 -10 0 -5 -13 -10 -30 -10 -25 0 -30 -4 -30 -25 0 -21 5
-25 30 -25 17 0 30 -4 30 -10 0 -5 -22 -10 -50 -10 l-50 0 0 75 0 75 50 0 c28
0 50 -4 50 -10z m360 3 c0 -3 -7 -15 -17 -25 -14 -16 -15 -18 0 -18 9 0 22 -9
31 -21 l14 -21 11 21 c9 17 21 21 56 21 l45 0 0 -63 c0 -36 -5 -68 -12 -75
-28 -28 -97 -3 -85 30 2 7 0 21 -5 31 -9 18 -10 18 -24 -2 -27 -38 -104 -19
-104 25 0 25 20 54 36 54 8 0 12 5 9 10 -8 13 13 40 31 40 8 0 14 -3 14 -7z
m190 -8 c0 -8 -9 -15 -20 -15 -11 0 -20 7 -20 15 0 8 9 15 20 15 11 0 20 -7
20 -15z m-2428 -22 c2 -10 2 -39 0 -65 -3 -38 -8 -48 -22 -48 -14 0 -19 10
-22 48 -5 61 0 82 22 82 10 0 20 -8 22 -17z m168 2 c0 -17 4 -17 73 -15 l47 1
0 -50 0 -51 -45 0 c-35 0 -47 4 -56 21 -6 12 -9 30 -6 40 3 10 1 19 -4 19 -5
0 -9 -18 -9 -40 0 -33 -4 -40 -19 -40 -15 0 -20 9 -23 48 -2 26 -2 55 0 65 5
21 42 23 42 2z m570 0 c0 -9 9 -15 25 -15 22 0 25 -4 25 -34 0 -19 5 -38 10
-41 6 -4 10 10 10 34 0 34 3 41 20 41 16 0 20 -7 20 -38 0 -45 -14 -62 -51
-62 -31 0 -39 9 -50 54 -7 29 -7 29 -8 -11 -1 -35 -4 -43 -20 -43 -15 0 -20 9
-23 48 -2 26 -2 55 0 65 5 21 42 23 42 2z m-858 -32 c35 -32 11 -83 -39 -83
-30 0 -63 26 -63 48 0 45 66 68 102 35z m226 5 c7 -7 12 -24 12 -38 0 -34 -17
-50 -55 -50 -38 0 -55 16 -55 50 0 34 17 50 55 50 17 0 36 -5 43 -12z m862
-38 l0 -50 -43 0 c-49 0 -67 13 -67 50 0 37 18 50 67 50 l43 0 0 -50z m262 24
c10 -21 9 -27 -3 -35 -11 -7 -11 -9 0 -9 11 0 11 -3 1 -15 -15 -18 -61 -20
-78 -3 -7 7 -12 24 -12 38 0 34 17 50 52 50 21 0 32 -7 40 -26z m129 4 l0 -23
9 23 c8 18 17 22 55 22 l45 0 0 -50 0 -50 -46 0 c-39 0 -47 3 -52 22 -4 18 -8
14 -16 -22 -10 -42 -13 -45 -47 -48 -42 -4 -69 19 -50 42 8 10 9 16 1 21 -14
9 -13 58 2 73 7 7 31 12 55 12 38 0 43 -3 44 -22z m349 -28 l0 -50 -45 0 c-39
0 -47 3 -55 25 -6 16 -6 34 0 50 8 22 16 25 55 25 l45 0 0 -50z m270 34 c0
-11 -6 -15 -20 -11 -26 7 -47 -18 -31 -37 7 -8 21 -12 31 -9 14 4 20 0 20 -11
0 -11 -9 -16 -33 -16 -40 0 -57 15 -57 50 0 35 17 50 57 50 24 0 33 -5 33 -16z
m450 -34 c0 -43 -3 -50 -20 -50 -17 0 -20 7 -20 50 0 43 3 50 20 50 17 0 20
-7 20 -50z m100 34 c0 -11 -6 -15 -20 -11 -26 7 -47 -18 -31 -37 7 -8 21 -12
31 -9 14 4 20 0 20 -11 0 -11 -9 -16 -33 -16 -40 0 -57 15 -57 50 0 35 17 50
57 50 24 0 33 -5 33 -16z m110 -34 l0 -50 -37 0 c-51 0 -66 12 -66 50 0 38 15
50 66 50 l37 0 0 -50z m-3039 4 c18 -22 -1 -49 -36 -49 -35 0 -54 27 -36 49 8
9 24 16 36 16 12 0 28 -7 36 -16z m-1816 -24 c0 -29 -32 -41 -41 -16 -9 24 4
48 23 44 12 -2 18 -12 18 -28z m-5105 -20 c0 -5 -5 -10 -11 -10 -5 0 -7 5 -4
10 3 6 8 10 11 10 2 0 4 -4 4 -10z m-890 -615 c15 -18 6 -45 -15 -45 -18 0
-30 24 -21 45 7 19 20 19 36 0z m9440 -450 l0 -355 -1750 0 -1750 0 0 355 0
355 1750 0 1750 0 0 -355z m790 275 c0 -5 -5 -10 -11 -10 -5 0 -7 5 -4 10 3 6
8 10 11 10 2 0 4 -4 4 -10z m-9302 -479 c19 -11 11 -45 -11 -49 -19 -4 -32 20
-23 43 6 17 15 19 34 6z m10275 -273 c7 -21 -4 -38 -23 -38 -23 0 -34 16 -26
35 7 18 43 20 49 3z"/>
<path d="M4412 8068 c-7 -7 -12 -20 -12 -29 0 -43 72 -53 78 -11 6 42 -37 69
-66 40z"/>
<path d="M5812 8068 c-29 -29 -3 -72 40 -66 19 2 23 9 23 38 0 30 -4 35 -25
38 -14 2 -31 -3 -38 -10z"/>
<path d="M12142 8068 c-7 -7 -12 -20 -12 -29 0 -43 72 -53 78 -11 6 42 -37 69
-66 40z"/>
<path d="M2760 8140 c0 -39 1 -41 28 -38 24 3 27 7 27 38 0 31 -3 35 -27 38
-27 3 -28 1 -28 -38z"/>
<path d="M9380 8140 c0 -37 2 -41 21 -38 12 2 27 11 33 21 14 22 -3 51 -33 55
-19 3 -21 -1 -21 -38z"/>
<path d="M3000 8060 c-16 -30 4 -60 40 -60 32 0 46 25 35 60 -4 14 -15 20 -35
20 -19 0 -33 -7 -40 -20z"/>
<path d="M3792 8068 c-29 -29 -3 -72 40 -66 19 2 23 9 23 38 0 30 -4 35 -25
38 -14 2 -31 -3 -38 -10z"/>
<path d="M4044 8066 c-3 -8 -4 -25 -2 -38 2 -19 9 -23 38 -23 33 0 35 2 35 35
0 32 -3 35 -33 38 -21 2 -34 -2 -38 -12z"/>
<path d="M4675 8080 c-4 -6 7 -10 25 -10 18 0 29 4 25 10 -3 6 -15 10 -25 10
-10 0 -22 -4 -25 -10z"/>
<path d="M5452 8068 c-28 -28 -3 -72 39 -66 30 4 47 33 33 56 -14 21 -55 27
-72 10z"/>
<path d="M6075 8080 c-4 -6 8 -10 30 -10 22 0 34 4 30 10 -3 6 -17 10 -30 10
-13 0 -27 -4 -30 -10z"/>
<path d="M6604 8066 c-3 -8 -4 -25 -2 -38 2 -19 9 -23 38 -23 33 0 35 2 35 35
0 32 -3 35 -33 38 -21 2 -34 -2 -38 -12z"/>
<path d="M6982 8068 c-28 -28 -3 -72 39 -66 30 4 47 33 33 56 -14 21 -55 27
-72 10z"/>
<path d="M9622 8068 c-27 -27 -6 -68 35 -68 29 0 48 33 33 60 -12 22 -49 27
-68 8z"/>
<path d="M10343 8073 c-7 -2 -13 -18 -13 -34 0 -22 6 -30 25 -35 29 -7 55 10
55 35 0 33 -32 49 -67 34z"/>
<path d="M10725 8080 c-4 -6 8 -10 30 -10 22 0 34 4 30 10 -3 6 -17 10 -30 10
-13 0 -27 -4 -30 -10z"/>
<path d="M10972 8068 c-29 -29 -3 -72 40 -66 19 2 23 9 23 38 0 30 -4 35 -25
38 -14 2 -31 -3 -38 -10z"/>
<path d="M11232 8068 c-27 -27 -6 -68 35 -68 29 0 48 33 33 60 -12 22 -49 27
-68 8z"/>
<path d="M11783 8073 c-7 -2 -13 -18 -13 -34 0 -22 6 -30 25 -35 29 -7 55 10
55 35 0 33 -32 49 -67 34z"/>
<path d="M12405 8080 c-4 -6 7 -10 24 -10 17 0 31 5 31 10 0 6 -11 10 -24 10
-14 0 -28 -4 -31 -10z"/>
<path d="M12932 8068 c-28 -28 -3 -72 39 -66 30 4 47 33 33 56 -14 21 -55 27
-72 10z"/>
<path d="M14240 8060 c-16 -30 4 -60 40 -60 20 0 31 6 35 20 11 35 -3 60 -35
60 -19 0 -33 -7 -40 -20z"/>
<path d="M11741 6967 c2 -1 13 -9 24 -17 19 -14 19 -14 6 3 -7 9 -18 17 -24
17 -6 0 -8 -1 -6 -3z"/>
<path d="M3570 7054 c-204 -31 -315 -73 -469 -177 -173 -116 -326 -315 -393
-507 -34 -99 -49 -183 -55 -305 -18 -380 173 -731 506 -928 103 -61 182 -93
294 -118 298 -66 582 -8 835 171 130 91 293 280 261 301 -8 5 -209 126 -446
270 l-433 262 0 518 0 519 -37 -1 c-21 -1 -49 -3 -63 -5z"/>
<path d="M6680 6960 c0 -13 5 -20 13 -17 6 2 12 10 12 17 0 7 -6 15 -12 18 -8
2 -13 -5 -13 -18z"/>
<path d="M5590 6980 c0 -5 5 -10 10 -10 6 0 10 5 10 10 0 6 -4 10 -10 10 -5 0
-10 -4 -10 -10z"/>
<path d="M5870 6960 c0 -13 5 -20 13 -17 6 2 12 10 12 17 0 7 -6 15 -12 18 -8
2 -13 -5 -13 -18z"/>
<path d="M6125 6970 c-8 -14 3 -30 21 -30 8 0 14 9 14 20 0 21 -24 28 -35 10z"/>
<path d="M6790 6960 c0 -13 5 -20 13 -17 6 2 12 10 12 17 0 7 -6 15 -12 18 -8
2 -13 -5 -13 -18z"/>
<path d="M5590 6640 c0 -5 5 -10 10 -10 6 0 10 5 10 10 0 6 -4 10 -10 10 -5 0
-10 -4 -10 -10z"/>
<path d="M5870 6620 c0 -13 5 -20 13 -17 6 2 12 10 12 17 0 7 -6 15 -12 18 -8
2 -13 -5 -13 -18z"/>
<path d="M6140 6620 c0 -11 7 -20 15 -20 8 0 15 9 15 20 0 11 -7 20 -15 20 -8
0 -15 -9 -15 -20z"/>
<path d="M6318 6603 c7 -3 16 -2 19 1 4 3 -2 6 -13 5 -11 0 -14 -3 -6 -6z"/>
<path d="M6540 6620 c0 -11 7 -20 15 -20 8 0 15 9 15 20 0 11 -7 20 -15 20 -8
0 -15 -9 -15 -20z"/>
<path d="M675 6351 c-8 -15 35 -35 47 -23 6 6 7 15 4 21 -9 14 -43 14 -51 2z"/>
<path d="M847 6334 c-22 -12 -28 -21 -25 -42 3 -24 9 -28 50 -36 40 -8 51 -7
68 9 25 23 25 40 0 65 -24 24 -54 25 -93 4z"/>
<path d="M545 6251 c-73 -18 -95 -44 -95 -115 0 -36 5 -48 26 -65 32 -25 81
-27 114 -4 24 16 24 16 11 0 -7 -9 -28 -21 -45 -26 -22 -7 -25 -9 -10 -10 32
-1 87 40 107 82 24 47 15 88 -25 122 -31 26 -35 27 -83 16z m66 -18 c12 -16
12 -17 -1 -7 -8 6 -22 14 -30 17 -13 5 -12 6 1 6 9 1 23 -7 30 -16z"/>
<path d="M1067 6189 c61 -18 79 -75 43 -135 -22 -34 -124 -93 -164 -95 -12 0
-15 -3 -8 -6 17 -7 96 23 144 55 45 29 72 82 63 122 -8 37 -49 70 -84 69 -24
-1 -24 -1 6 -10z"/>
<path d="M965 6165 c-22 -8 -51 -26 -64 -41 -19 -23 -22 -35 -18 -77 5 -53 17
-67 60 -67 35 0 108 34 136 63 74 79 -4 163 -114 122z"/>
<path d="M715 5965 c0 -14 5 -23 10 -22 6 2 10 12 10 22 0 10 -4 20 -10 22 -5
2 -10 -8 -10 -22z"/>
<path d="M448 5963 c-27 -7 -21 -31 11 -47 26 -14 30 -14 41 -1 10 13 9 19 -5
35 -10 11 -21 19 -24 19 -3 -1 -14 -3 -23 -6z"/>
<path d="M1092 5920 c11 -18 11 -23 -6 -36 -11 -8 -15 -14 -10 -14 6 0 19 6
30 14 15 12 17 19 8 32 -6 10 -16 20 -23 22 -10 3 -10 -1 1 -18z"/>
<path d="M885 5870 c3 -4 -6 -11 -20 -14 -58 -15 -49 -89 17 -140 38 -28 58
-32 88 -16 50 27 43 75 -19 138 -27 26 -78 52 -66 32z"/>
<path d="M632 5742 c-37 -24 -28 -49 21 -55 67 -9 92 34 35 64 -22 12 -23 11
-5 -8 19 -22 22 -39 7 -48 -6 -3 -7 1 -4 10 4 9 -1 24 -13 34 -17 16 -21 16
-41 3z"/>
<path d="M6030 6280 c0 -11 7 -20 15 -20 8 0 15 9 15 20 0 11 -7 20 -15 20 -8
0 -15 -9 -15 -20z"/>
<path d="M5590 6300 c0 -5 5 -10 10 -10 6 0 10 5 10 10 0 6 -4 10 -10 10 -5 0
-10 -4 -10 -10z"/>
<path d="M5870 6280 c0 -13 5 -20 13 -17 6 2 12 10 12 17 0 7 -6 15 -12 18 -8
2 -13 -5 -13 -18z"/>
<path d="M6148 6293 c7 -3 16 -2 19 1 4 3 -2 6 -13 5 -11 0 -14 -3 -6 -6z"/>
<path d="M6148 6263 c7 -3 16 -2 19 1 4 3 -2 6 -13 5 -11 0 -14 -3 -6 -6z"/>
<path d="M6730 6280 c0 -15 5 -20 18 -18 9 2 17 10 17 18 0 8 -8 16 -17 18
-13 2 -18 -3 -18 -18z"/>
<path d="M14303 6084 c6 -20 13 -31 15 -25 6 17 -7 61 -17 61 -5 0 -4 -16 2
-36z"/>
<path d="M14261 6100 c0 -8 6 -28 14 -45 10 -23 13 -25 14 -10 0 11 -6 31 -14
45 -8 14 -14 19 -14 10z"/>
<path d="M14210 6075 c0 -13 10 -31 22 -39 28 -20 31 -16 17 22 -13 39 -39 51
-39 17z"/>
<path d="M12970 5945 c2 -5 2 -36 1 -67 -1 -55 -2 -57 -32 -63 l-32 -7 48 -24
c26 -14 49 -23 50 -22 6 8 -18 174 -27 183 -6 7 -9 7 -8 0z"/>
<path d="M6030 5930 c0 -11 7 -20 15 -20 8 0 15 9 15 20 0 11 -7 20 -15 20 -8
0 -15 -9 -15 -20z"/>
<path d="M5590 5950 c0 -5 5 -10 10 -10 6 0 10 5 10 10 0 6 -4 10 -10 10 -5 0
-10 -4 -10 -10z"/>
<path d="M5870 5930 c0 -13 5 -20 13 -17 6 2 12 10 12 17 0 7 -6 15 -12 18 -8
2 -13 -5 -13 -18z"/>
<path d="M6148 5943 c7 -3 16 -2 19 1 4 3 -2 6 -13 5 -11 0 -14 -3 -6 -6z"/>
<path d="M6148 5913 c7 -3 16 -2 19 1 4 3 -2 6 -13 5 -11 0 -14 -3 -6 -6z"/>
<path d="M6300 5930 c0 -11 7 -20 15 -20 8 0 15 9 15 20 0 11 -7 20 -15 20 -8
0 -15 -9 -15 -20z"/>
<path d="M6410 5930 c0 -13 5 -20 13 -17 6 2 12 10 12 17 0 7 -6 15 -12 18 -8
2 -13 -5 -13 -18z"/>
<path d="M6650 5930 c0 -13 5 -20 13 -17 6 2 12 10 12 17 0 7 -6 15 -12 18 -8
2 -13 -5 -13 -18z"/>
<path d="M6760 5930 c0 -13 5 -20 13 -17 6 2 12 10 12 17 0 7 -6 15 -12 18 -8
2 -13 -5 -13 -18z"/>
<path d="M6760 5880 c0 -5 4 -10 9 -10 6 0 13 5 16 10 3 6 -1 10 -9 10 -9 0
-16 -4 -16 -10z"/>
<path d="M6030 5590 c0 -11 7 -20 15 -20 8 0 15 9 15 20 0 11 -7 20 -15 20 -8
0 -15 -9 -15 -20z"/>
<path d="M10570 5552 c0 -18 6 -32 16 -36 12 -5 15 1 12 26 -4 42 -28 50 -28
10z"/>
<path d="M10790 5521 c0 -13 -23 -32 -70 -60 -38 -23 -70 -44 -70 -47 0 -3 3
-3 8 -1 180 103 188 109 156 121 -23 9 -24 8 -24 -13z"/>
<path d="M5590 5610 c0 -5 5 -10 10 -10 6 0 10 5 10 10 0 6 -4 10 -10 10 -5 0
-10 -4 -10 -10z"/>
<path d="M5870 5590 c0 -13 5 -20 13 -17 6 2 12 10 12 17 0 7 -6 15 -12 18 -8
2 -13 -5 -13 -18z"/>
<path d="M6148 5603 c7 -3 16 -2 19 1 4 3 -2 6 -13 5 -11 0 -14 -3 -6 -6z"/>
<path d="M6148 5573 c7 -3 16 -2 19 1 4 3 -2 6 -13 5 -11 0 -14 -3 -6 -6z"/>
<path d="M6300 5590 c0 -11 7 -20 15 -20 8 0 15 9 15 20 0 11 -7 20 -15 20 -8
0 -15 -9 -15 -20z"/>
<path d="M6680 5590 c0 -11 7 -20 15 -20 8 0 15 9 15 20 0 11 -7 20 -15 20 -8
0 -15 -9 -15 -20z"/>
<path d="M5050 5265 l0 -115 115 0 115 0 0 115 0 115 -115 0 -115 0 0 -115z"/>
<path d="M5990 5240 c0 -11 7 -20 15 -20 8 0 15 9 15 20 0 11 -7 20 -15 20 -8
0 -15 -9 -15 -20z"/>
<path d="M6270 5240 c0 -13 5 -20 13 -17 6 2 12 10 12 17 0 7 -6 15 -12 18 -8
2 -13 -5 -13 -18z"/>
<path d="M6850 5240 c0 -13 5 -20 13 -17 6 2 12 10 12 17 0 7 -6 15 -12 18 -8
2 -13 -5 -13 -18z"/>
<path d="M5580 5289 c0 -11 5 -17 10 -14 6 3 10 13 10 21 0 8 -4 14 -10 14 -5
0 -10 -9 -10 -21z"/>
<path d="M5678 5253 c7 -3 16 -2 19 1 4 3 -2 6 -13 5 -11 0 -14 -3 -6 -6z"/>
<path d="M5678 5223 c7 -3 16 -2 19 1 4 3 -2 6 -13 5 -11 0 -14 -3 -6 -6z"/>
<path d="M5775 5250 c-7 -12 2 -30 16 -30 5 0 9 9 9 20 0 21 -15 27 -25 10z"/>
<path d="M5775 5190 c3 -5 10 -10 16 -10 5 0 9 5 9 10 0 6 -7 10 -16 10 -8 0
-12 -4 -9 -10z"/>
<path d="M5880 5240 c0 -11 7 -20 15 -20 8 0 15 9 15 20 0 11 -7 20 -15 20 -8
0 -15 -9 -15 -20z"/>
<path d="M6100 5240 c0 -11 7 -20 15 -20 8 0 15 9 15 20 0 11 -7 20 -15 20 -8
0 -15 -9 -15 -20z"/>
<path d="M6670 5240 c0 -13 5 -20 13 -17 6 2 12 10 12 17 0 7 -6 15 -12 18 -8
2 -13 -5 -13 -18z"/>
<path d="M6950 5240 c0 -15 5 -20 18 -18 9 2 17 10 17 18 0 8 -8 16 -17 18
-13 2 -18 -3 -18 -18z"/>
<path d="M7162 5243 c2 -10 10 -18 18 -18 22 0 18 29 -3 33 -14 3 -18 -1 -15
-15z"/>
<path d="M9520 5069 c0 -11 5 -17 10 -14 6 3 10 13 10 21 0 8 -4 14 -10 14 -5
0 -10 -9 -10 -21z"/>
<path d="M9600 5070 c0 -23 13 -26 29 -6 9 11 8 15 -5 20 -23 9 -24 8 -24 -14z"/>
<path d="M9670 5069 c0 -11 5 -17 10 -14 6 3 10 13 10 21 0 8 -4 14 -10 14 -5
0 -10 -9 -10 -21z"/>
<path d="M9752 5076 c1 -10 8 -17 13 -17 15 1 12 24 -3 29 -9 3 -13 -2 -10
-12z"/>
<path d="M10445 5080 c-4 -6 -3 -16 3 -22 6 -6 12 -6 17 2 4 6 3 16 -3 22 -6
6 -12 6 -17 -2z"/>
<path d="M10530 5070 c0 -19 3 -21 12 -12 9 9 9 15 0 24 -9 9 -12 7 -12 -12z"/>
<path d="M10670 5069 c0 -11 5 -17 10 -14 6 3 10 13 10 21 0 8 -4 14 -10 14
-5 0 -10 -9 -10 -21z"/>
<path d="M10750 5076 c0 -20 13 -27 30 -15 13 8 13 10 0 19 -21 14 -30 12 -30
-4z"/>
<path d="M10824 5079 c-3 -6 -1 -16 5 -22 8 -8 11 -5 11 11 0 24 -5 28 -16 11z"/>
<path d="M10902 5076 c1 -10 8 -17 13 -17 15 1 12 24 -3 29 -9 3 -13 -2 -10
-12z"/>
<path d="M11650 5070 c0 -11 5 -20 10 -20 6 0 10 9 10 20 0 11 -4 20 -10 20
-5 0 -10 -9 -10 -20z"/>
<path d="M11730 5075 c0 -8 5 -15 10 -15 6 0 10 7 10 15 0 8 -4 15 -10 15 -5
0 -10 -7 -10 -15z"/>
<path d="M11905 5080 c-4 -6 -3 -16 3 -22 6 -6 12 -6 17 2 4 6 3 16 -3 22 -6
6 -12 6 -17 -2z"/>
<path d="M11985 5080 c-4 -6 -3 -16 3 -22 6 -6 12 -6 17 2 4 6 3 16 -3 22 -6
6 -12 6 -17 -2z"/>
<path d="M12065 5080 c-4 -6 -3 -16 3 -22 6 -6 12 -6 17 2 4 6 3 16 -3 22 -6
6 -12 6 -17 -2z"/>
<path d="M12930 5065 c0 -8 5 -15 10 -15 6 0 10 7 10 15 0 8 -4 15 -10 15 -5
0 -10 -7 -10 -15z"/>
<path d="M13130 5066 c0 -2 7 -7 16 -10 8 -3 12 -2 9 4 -6 10 -25 14 -25 6z"/>
<path d="M14317 5075 c-8 -20 11 -29 29 -14 12 10 12 14 2 20 -19 12 -25 11
-31 -6z"/>
<path d="M14385 5080 c-7 -12 2 -30 16 -30 5 0 9 9 9 20 0 21 -15 27 -25 10z"/>
<path d="M8326 4045 c-9 -23 -8 -25 9 -25 17 0 19 9 6 28 -7 11 -10 10 -15 -3z"/>
<path d="M9507 4033 c-13 -12 -7 -51 8 -57 18 -6 37 26 29 48 -6 16 -26 21
-37 9z"/>
<path d="M8960 4078 c0 -30 1 -31 16 -16 9 9 14 24 11 32 -11 27 -27 17 -27
-16z"/>
<path d="M7755 3838 c-27 -40 -51 -76 -53 -80 -2 -4 21 -8 52 -8 l56 0 0 80
c0 44 -1 80 -2 80 -2 0 -25 -33 -53 -72z"/>
<path d="M8737 4025 c-9 -22 3 -46 22 -43 10 2 16 13 16 28 0 28 -29 40 -38
15z"/>
<path d="M9080 4030 c0 -5 7 -10 15 -10 8 0 15 5 15 10 0 6 -7 10 -15 10 -8 0
-15 -4 -15 -10z"/>
<path d="M9214 4025 c-8 -21 2 -45 20 -45 17 0 28 24 20 45 -4 8 -13 15 -20
15 -8 0 -17 -7 -20 -15z"/>
<path d="M9088 3983 c6 -2 18 -2 25 0 6 3 1 5 -13 5 -14 0 -19 -2 -12 -5z"/>
<path d="M9354 4026 c-9 -24 4 -48 23 -44 12 2 18 12 18 28 0 29 -32 41 -41
16z"/>
<path d="M9646 4025 c-8 -23 4 -45 25 -45 14 0 19 7 19 30 0 23 -5 30 -19 30
-10 0 -21 -7 -25 -15z"/>
<path d="M10114 4026 c-9 -24 4 -48 23 -44 12 2 18 12 18 28 0 29 -32 41 -41
16z"/>
<path d="M10314 4025 c-9 -23 3 -45 25 -45 21 0 33 22 25 45 -4 8 -15 15 -25
15 -11 0 -22 -7 -25 -15z"/>
<path d="M10464 4026 c-9 -24 4 -48 23 -44 12 2 18 12 18 28 0 29 -32 41 -41
16z"/>
<path d="M10784 4026 c-9 -24 4 -48 23 -44 12 2 18 12 18 28 0 29 -32 41 -41
16z"/>
<path d="M9324 3615 c-4 -8 -4 -22 0 -30 7 -20 36 -8 36 15 0 23 -29 35 -36
15z"/>
<path d="M9564 3617 c-3 -9 -3 -25 0 -34 6 -15 8 -15 24 0 15 16 15 18 0 34
-16 15 -18 15 -24 0z"/>
<path d="M9440 3602 c0 -24 8 -32 26 -25 22 8 17 43 -6 43 -13 0 -20 -7 -20
-18z"/>
<path d="M8580 3615 c-17 -20 3 -45 30 -38 25 7 26 29 1 42 -14 8 -22 7 -31
-4z"/>
<path d="M8720 3601 c0 -11 4 -22 9 -25 12 -8 34 21 26 34 -11 17 -35 11 -35
-9z"/>
<path d="M8470 3620 c0 -5 5 -10 11 -10 5 0 7 5 4 10 -3 6 -8 10 -11 10 -2 0
-4 -4 -4 -10z"/>
<path d="M8465 3580 c3 -5 12 -7 20 -3 21 7 19 13 -6 13 -11 0 -18 -4 -14 -10z"/>
<path d="M8915 3620 c-3 -5 1 -10 10 -10 9 0 13 5 10 10 -3 6 -8 10 -10 10 -2
0 -7 -4 -10 -10z"/>
<path d="M8915 3580 c4 -6 11 -8 16 -5 14 9 11 15 -7 15 -8 0 -12 -5 -9 -10z"/>
<path d="M9150 3601 c0 -11 4 -22 9 -25 12 -8 34 21 26 34 -11 17 -35 11 -35
-9z"/>
<path d="M9150 3540 c0 -5 6 -10 14 -10 8 0 18 5 21 10 3 6 -3 10 -14 10 -12
0 -21 -4 -21 -10z"/>
<path d="M9871 3621 c-17 -11 -10 -46 9 -46 17 0 26 33 13 46 -4 4 -14 4 -22
0z"/>
<path d="M10144 3617 c-3 -9 -3 -25 0 -34 6 -15 8 -15 24 0 15 16 15 18 0 34
-16 15 -18 15 -24 0z"/>
<path d="M10140 3541 c0 -18 18 -21 30 -6 10 13 9 15 -9 15 -11 0 -21 -4 -21
-9z"/>
<path d="M10374 3617 c-3 -9 -3 -25 0 -34 6 -15 8 -15 24 0 15 16 15 18 0 34
-16 15 -18 15 -24 0z"/>
<path d="M9507 3143 c-13 -12 -7 -51 8 -57 18 -6 37 26 29 48 -6 16 -26 21
-37 9z"/>
<path d="M9857 3144 c-11 -12 -8 -41 6 -52 18 -16 39 1 35 29 -3 23 -27 37
-41 23z"/>
<path d="M10606 3135 c-8 -22 4 -45 24 -45 20 0 32 23 24 45 -4 8 -14 15 -24
15 -10 0 -20 -7 -24 -15z"/>
<path d="M8326 3155 c-9 -23 -8 -25 9 -25 17 0 19 9 6 28 -7 11 -10 10 -15 -3z"/>
<path d="M8960 3191 c0 -23 4 -29 16 -24 17 6 15 44 -3 51 -9 2 -13 -7 -13
-27z"/>
<path d="M6928 2965 l-56 -80 55 -3 c30 -2 57 -1 60 1 2 3 3 40 1 83 l-3 79
-57 -80z"/>
<path d="M8736 3135 c-8 -23 4 -45 25 -45 14 0 19 7 19 30 0 23 -5 30 -19 30
-10 0 -21 -7 -25 -15z"/>
<path d="M9080 3140 c0 -5 7 -10 15 -10 8 0 15 5 15 10 0 6 -7 10 -15 10 -8 0
-15 -4 -15 -10z"/>
<path d="M9210 3120 c0 -23 5 -30 19 -30 21 0 33 22 25 45 -4 8 -15 15 -25 15
-14 0 -19 -7 -19 -30z"/>
<path d="M9088 3093 c6 -2 18 -2 25 0 6 3 1 5 -13 5 -14 0 -19 -2 -12 -5z"/>
<path d="M9354 3136 c-9 -24 4 -48 23 -44 12 2 18 12 18 28 0 29 -32 41 -41
16z"/>
<path d="M9646 3135 c-8 -23 4 -45 25 -45 14 0 19 7 19 30 0 23 -5 30 -19 30
-10 0 -21 -7 -25 -15z"/>
<path d="M10005 3140 c-3 -5 3 -10 14 -10 12 0 21 5 21 10 0 6 -6 10 -14 10
-8 0 -18 -4 -21 -10z"/>
<path d="M10008 3093 c6 -2 18 -2 25 0 6 3 1 5 -13 5 -14 0 -19 -2 -12 -5z"/>
<path d="M10370 3120 c0 -23 5 -30 19 -30 10 0 21 7 25 15 8 23 -4 45 -25 45
-14 0 -19 -7 -19 -30z"/>
<path d="M10754 3136 c-9 -24 4 -48 23 -44 12 2 18 12 18 28 0 29 -32 41 -41
16z"/>
<path d="M11034 3136 c-9 -24 4 -48 23 -44 12 2 18 12 18 28 0 29 -32 41 -41
16z"/>
<path d="M9201 2817 c-13 -17 -4 -50 13 -44 15 5 20 37 9 48 -6 6 -14 4 -22
-4z"/>
<path d="M10821 2817 c-13 -17 -4 -50 13 -44 15 5 20 37 9 48 -6 6 -14 4 -22
-4z"/>
<path d="M9632 2864 c-12 -8 -22 -26 -22 -39 0 -21 32 -55 52 -55 14 0 48 39
48 55 0 16 -34 55 -48 55 -4 0 -18 -7 -30 -16z"/>
<path d="M8360 2820 c0 -5 5 -10 10 -10 6 0 10 5 10 10 0 6 -4 10 -10 10 -5 0
-10 -4 -10 -10z"/>
<path d="M8365 2780 c4 -6 11 -8 16 -5 14 9 11 15 -7 15 -8 0 -12 -5 -9 -10z"/>
<path d="M8840 2816 c-10 -13 -10 -19 0 -32 12 -14 15 -14 29 0 14 15 14 17 0
32 -14 14 -17 14 -29 0z"/>
<path d="M8960 2820 c0 -5 5 -10 10 -10 6 0 10 5 10 10 0 6 -4 10 -10 10 -5 0
-10 -4 -10 -10z"/>
<path d="M8965 2780 c4 -6 11 -8 16 -5 14 9 11 15 -7 15 -8 0 -12 -5 -9 -10z"/>
<path d="M9320 2820 c0 -5 5 -10 10 -10 6 0 10 5 10 10 0 6 -4 10 -10 10 -5 0
-10 -4 -10 -10z"/>
<path d="M9325 2780 c4 -6 11 -8 16 -5 14 9 11 15 -7 15 -8 0 -12 -5 -9 -10z"/>
<path d="M9945 2820 c-3 -5 1 -10 10 -10 9 0 13 5 10 10 -3 6 -8 10 -10 10 -2
0 -7 -4 -10 -10z"/>
<path d="M9945 2780 c4 -6 11 -8 16 -5 14 9 11 15 -7 15 -8 0 -12 -5 -9 -10z"/>
<path d="M10321 2821 c-17 -11 -10 -46 9 -46 17 0 26 33 13 46 -4 4 -14 4 -22
0z"/>
<path d="M10545 2820 c-3 -5 1 -10 10 -10 9 0 13 5 10 10 -3 6 -8 10 -10 10
-2 0 -7 -4 -10 -10z"/>
<path d="M10545 2780 c4 -6 11 -8 16 -5 14 9 11 15 -7 15 -8 0 -12 -5 -9 -10z"/>
<path d="M10704 2817 c-3 -9 -3 -25 0 -34 6 -15 8 -15 24 0 15 16 15 18 0 34
-16 15 -18 15 -24 0z"/>
<path d="M10940 2815 c-10 -12 -10 -18 0 -30 15 -18 30 -11 30 15 0 26 -15 33
-30 15z"/>
<path d="M11194 2815 c-4 -8 -4 -22 0 -30 7 -20 36 -8 36 15 0 23 -29 35 -36
15z"/>
<path d="M11314 2815 c-4 -8 -4 -22 0 -30 7 -20 36 -8 36 15 0 23 -29 35 -36
15z"/>
<path d="M11560 2815 c-10 -12 -10 -18 0 -30 15 -18 30 -11 30 15 0 26 -15 33
-30 15z"/>
<path d="M11790 2815 c-10 -12 -10 -18 0 -30 15 -18 30 -11 30 15 0 26 -15 33
-30 15z"/>
<path d="M9507 2323 c-13 -12 -7 -51 8 -57 18 -6 37 26 29 48 -6 16 -26 21
-37 9z"/>
<path d="M9857 2324 c-11 -12 -8 -41 6 -52 18 -16 39 1 35 29 -3 23 -27 37
-41 23z"/>
<path d="M10606 2315 c-8 -22 4 -45 24 -45 20 0 32 23 24 45 -4 8 -14 15 -24
15 -10 0 -20 -7 -24 -15z"/>
<path d="M8326 2335 c-9 -23 -8 -25 9 -25 17 0 19 9 6 28 -7 11 -10 10 -15 -3z"/>
<path d="M8960 2371 c0 -23 4 -29 16 -24 17 6 15 44 -3 51 -9 2 -13 -7 -13
-27z"/>
<path d="M7140 2177 c-34 -17 -62 -74 -55 -111 13 -72 63 -106 127 -86 87 25
92 169 7 199 -40 14 -48 14 -79 -2z"/>
<path d="M7504 2181 c-66 -28 -84 -118 -35 -173 24 -27 36 -33 71 -33 34 0 47
6 66 28 13 15 27 39 30 52 19 77 -63 155 -132 126z"/>
<path d="M8736 2315 c-8 -23 4 -45 25 -45 14 0 19 7 19 30 0 23 -5 30 -19 30
-10 0 -21 -7 -25 -15z"/>
<path d="M9080 2320 c0 -5 7 -10 15 -10 8 0 15 5 15 10 0 6 -7 10 -15 10 -8 0
-15 -4 -15 -10z"/>
<path d="M9210 2300 c0 -23 5 -30 19 -30 21 0 33 22 25 45 -4 8 -15 15 -25 15
-14 0 -19 -7 -19 -30z"/>
<path d="M9088 2273 c6 -2 18 -2 25 0 6 3 1 5 -13 5 -14 0 -19 -2 -12 -5z"/>
<path d="M9354 2316 c-9 -24 4 -48 23 -44 12 2 18 12 18 28 0 29 -32 41 -41
16z"/>
<path d="M9646 2315 c-8 -23 4 -45 25 -45 14 0 19 7 19 30 0 23 -5 30 -19 30
-10 0 -21 -7 -25 -15z"/>
<path d="M10005 2320 c-3 -5 3 -10 14 -10 12 0 21 5 21 10 0 6 -6 10 -14 10
-8 0 -18 -4 -21 -10z"/>
<path d="M10008 2273 c6 -2 18 -2 25 0 6 3 1 5 -13 5 -14 0 -19 -2 -12 -5z"/>
<path d="M10370 2300 c0 -23 5 -30 19 -30 21 0 33 22 25 45 -4 8 -15 15 -25
15 -14 0 -19 -7 -19 -30z"/>
<path d="M10754 2316 c-9 -24 4 -48 23 -44 12 2 18 12 18 28 0 29 -32 41 -41
16z"/>
<path d="M11034 2316 c-9 -24 4 -48 23 -44 12 2 18 12 18 28 0 29 -32 41 -41
16z"/>
<path d="M8594 1997 c-8 -21 1 -47 16 -47 19 0 23 31 7 48 -15 14 -17 14 -23
-1z"/>
<path d="M9340 1996 c-14 -18 -6 -50 13 -44 15 6 22 37 10 49 -6 6 -15 4 -23
-5z"/>
<path d="M9454 1997 c-3 -9 -3 -25 0 -34 6 -15 8 -15 24 0 15 16 15 18 0 34
-16 15 -18 15 -24 0z"/>
<path d="M10414 1997 c-8 -21 1 -47 16 -47 19 0 23 31 7 48 -15 14 -17 14 -23
-1z"/>
<path d="M10914 1995 c-4 -8 -4 -22 0 -30 7 -20 36 -8 36 15 0 23 -29 35 -36
15z"/>
<path d="M8350 2044 c0 -8 5 -12 10 -9 6 3 10 10 10 16 0 5 -4 9 -10 9 -5 0
-10 -7 -10 -16z"/>
<path d="M9970 2035 c0 -15 4 -24 10 -20 6 3 10 12 10 20 0 8 -4 17 -10 20 -6
4 -10 -5 -10 -20z"/>
<path d="M11084 1995 c-4 -8 -4 -22 0 -30 7 -20 36 -8 36 15 0 23 -29 35 -36
15z"/>
<path d="M11204 1997 c-3 -9 -3 -25 0 -34 6 -15 8 -15 24 0 15 16 15 18 0 34
-16 15 -18 15 -24 0z"/>
<path d="M11200 1915 c12 -15 30 -12 30 6 0 5 -10 9 -21 9 -18 0 -19 -2 -9
-15z"/>
<path d="M9114 1997 c-3 -9 -3 -25 0 -34 6 -15 8 -15 24 0 15 16 15 18 0 34
-16 15 -18 15 -24 0z"/>
<path d="M8721 2001 c-17 -11 -10 -46 9 -46 17 0 26 33 13 46 -4 4 -14 4 -22
0z"/>
<path d="M8940 1996 c-10 -13 -10 -19 0 -32 12 -14 15 -14 29 0 14 15 14 17 0
32 -14 14 -17 14 -29 0z"/>
<path d="M9790 1995 c-10 -12 -10 -18 0 -30 15 -18 30 -11 30 15 0 26 -15 33
-30 15z"/>
<path d="M10070 2000 c0 -5 5 -10 11 -10 5 0 7 5 4 10 -3 6 -8 10 -11 10 -2 0
-4 -4 -4 -10z"/>
<path d="M10068 1958 c9 -9 15 -9 24 0 9 9 7 12 -12 12 -19 0 -21 -3 -12 -12z"/>
<path d="M10180 1995 c-10 -12 -10 -18 0 -30 15 -18 30 -11 30 15 0 26 -15 33
-30 15z"/>
<path d="M10294 1997 c-3 -9 -3 -25 0 -34 6 -15 8 -15 24 0 15 16 15 18 0 34
-16 15 -18 15 -24 0z"/>
<path d="M10180 1915 c12 -15 30 -12 30 6 0 5 -10 9 -21 9 -18 0 -19 -2 -9
-15z"/>
<path d="M10534 1997 c-3 -9 -3 -25 0 -34 6 -15 8 -15 24 0 15 16 15 18 0 34
-16 15 -18 15 -24 0z"/>
<path d="M11464 1997 c-3 -9 -3 -25 0 -34 6 -15 8 -15 24 0 15 16 15 18 0 34
-16 15 -18 15 -24 0z"/>
<path d="M8446 1971 c-4 -7 -5 -15 -2 -18 9 -9 19 4 14 18 -4 11 -6 11 -12 0z"/>
<path d="M15557 1042 c-16 -18 -15 -21 19 -65 20 -26 40 -47 44 -47 4 0 14 8
24 18 15 18 15 20 -4 37 -16 14 -23 16 -32 7 -21 -21 -32 -13 -13 8 18 20 18
21 -1 41 -20 19 -21 19 -37 1z"/>
<path d="M15497 993 c-14 -16 -14 -20 2 -39 16 -21 19 -21 39 -5 20 16 20 16
2 39 -22 27 -23 27 -43 5z"/>
<path d="M15540 935 c-10 -12 -10 -18 1 -32 7 -10 15 -20 16 -22 2 -2 12 4 23
14 19 17 19 19 4 37 -21 22 -28 22 -44 3z"/>
<path d="M15639 934 c-9 -11 -10 -20 -3 -32 14 -22 26 -24 48 -7 19 14 19 15
1 35 -22 24 -29 25 -46 4z"/>
<path d="M15581 886 c-9 -11 -9 -19 1 -35 15 -25 17 -25 42 -6 19 14 19 15 1
35 -21 24 -29 25 -44 6z"/>
<path d="M15688 886 c-23 -17 -23 -29 0 -50 18 -15 20 -15 37 4 18 20 18 21
-1 40 -16 16 -22 17 -36 6z"/>
<path d="M15546 851 c-6 -10 31 -47 40 -39 6 7 -17 48 -28 48 -4 0 -9 -4 -12
-9z"/>
<path d="M15612 821 c-32 -28 -32 -28 -12 -46 21 -19 42 -13 22 7 -7 7 -12 17
-12 23 0 5 8 0 18 -13 l18 -23 19 21 c18 20 18 21 -1 40 -19 18 -20 18 -52 -9z"/>
<path d="M15725 830 c-18 -20 -18 -21 1 -41 l20 -20 19 21 c18 20 18 21 -1 41
l-20 20 -19 -21z"/>
<path d="M15667 782 c-15 -16 -15 -20 -1 -40 13 -18 18 -20 34 -9 25 15 25 29
2 51 -18 15 -20 15 -35 -2z"/>
<path d="M15765 775 c-19 -15 -19 -16 3 -37 21 -21 23 -21 39 -5 13 13 15 21
7 34 -14 23 -26 25 -49 8z"/>
<path d="M15630 744 c0 -15 74 -93 83 -87 6 4 -1 16 -17 30 -15 12 -24 23 -20
23 4 0 -1 9 -11 20 -17 19 -35 26 -35 14z"/>
<path d="M15707 726 c-16 -13 -16 -15 2 -37 19 -23 20 -23 38 -6 13 13 15 21
7 34 -14 23 -26 25 -47 9z"/>
<path d="M19 244 c-13 -16 -12 -17 14 -10 20 5 27 3 27 -9 0 -8 -4 -15 -10
-15 -5 0 -10 -9 -10 -20 0 -27 11 -25 34 7 14 19 16 30 9 42 -14 23 -47 25
-64 5z"/>
<path d="M37 154 c-8 -8 1 -24 14 -24 5 0 9 7 9 15 0 15 -12 20 -23 9z"/>
<path d="M7791 44 c0 -11 3 -14 6 -6 3 7 2 16 -1 19 -3 4 -6 -2 -5 -13z"/>
<path d="M7907 43 c-11 -10 -8 -43 3 -43 6 0 10 11 10 25 0 26 -2 29 -13 18z"/>
<path d="M8066 43 c-14 -15 -5 -43 14 -43 13 0 20 7 20 19 0 19 -23 35 -34 24z"/>
<path d="M8280 40 c0 -5 5 -10 10 -10 6 0 10 5 10 10 0 6 -4 10 -10 10 -5 0
-10 -4 -10 -10z"/>
<path d="M8392 25 c0 -17 2 -22 5 -12 2 9 2 23 0 30 -3 6 -5 -1 -5 -18z"/>
<path d="M8447 43 c-11 -10 -8 -43 3 -43 6 0 10 11 10 25 0 26 -2 29 -13 18z"/>
<path d="M8550 40 c0 -5 5 -10 10 -10 6 0 10 5 10 10 0 6 -4 10 -10 10 -5 0
-10 -4 -10 -10z"/>
<path d="M8662 38 c-18 -18 -14 -38 8 -38 13 0 20 7 20 19 0 25 -13 34 -28 19z"/>
<path d="M8780 35 c-14 -16 -5 -35 16 -35 15 0 20 35 5 44 -5 3 -14 -1 -21 -9z"/>
<path d="M8852 25 c0 -17 2 -22 5 -12 2 9 2 23 0 30 -3 6 -5 -1 -5 -18z"/>
<path d="M8955 40 c-3 -5 1 -10 10 -10 9 0 13 5 10 10 -3 6 -8 10 -10 10 -2 0
-7 -4 -10 -10z"/>
<path d="M7962 20 c0 -14 2 -19 5 -12 2 6 2 18 0 25 -3 6 -5 1 -5 -13z"/>
<path d="M8288 3 c7 -3 16 -2 19 1 4 3 -2 6 -13 5 -11 0 -14 -3 -6 -6z"/>
<path d="M8558 3 c7 -3 16 -2 19 1 4 3 -2 6 -13 5 -11 0 -14 -3 -6 -6z"/>
<path d="M8958 3 c7 -3 16 -2 19 1 4 3 -2 6 -13 5 -11 0 -14 -3 -6 -6z"/>
</g>
</svg>
